<svg xmlns="http://www.w3.org/2000/svg" viewBox="0 0 64 64"><g id="Layer_32" data-name="Layer 32"><rect x="17.015" y="5.479" width="16.971" height="24.042" transform="translate(-4.906 23.157) rotate(-45)" style="fill:#fcab68"/><polygon points="35.293 24.707 36.707 23.293 24.914 11.5 28.207 8.207 26.793 6.793 23.5 10.086 19.707 6.293 18.293 7.707 22.086 11.5 19.5 14.086 15.707 10.293 14.293 11.707 18.086 15.5 14.793 18.793 16.207 20.207 19.5 16.914 31.293 28.707 32.707 27.293 20.914 15.5 23.5 12.914 35.293 24.707" style="fill:#ea8e49"/><circle cx="36" cy="16" r="9" style="fill:#aee5e5"/><path d="M36,15.305a8.968,8.968,0,0,0-8.612-1.917,9,9,0,1,0,17.224,0A8.968,8.968,0,0,0,36,15.305Z" style="fill:#95dbd9"/><circle cx="30" cy="24" r="9" style="fill:#ffeaa9"/><path d="M24,24a8.995,8.995,0,0,1,7.5-8.865,9,9,0,1,0,0,17.73A8.995,8.995,0,0,1,24,24Z" style="fill:#ffe08a"/><circle cx="42" cy="24" r="9" style="fill:#f3c7e6"/><path d="M36,24a8.995,8.995,0,0,1,7.5-8.865,9,9,0,1,0,0,17.73A8.995,8.995,0,0,1,36,24Z" style="fill:#e2a3d2"/><path d="M19,27H53a0,0,0,0,1,0,0v4a2,2,0,0,1-2,2H21a2,2,0,0,1-2-2V27A0,0,0,0,1,19,27Z" style="fill:#95dbd9"/><polygon points="50 33 22 33 34 49 38 49 50 33" style="fill:#aee5e5"/><polygon points="22 33 34 49 37 49 25 33 22 33" style="fill:#95dbd9"/><rect x="34" y="49" width="4" height="8" style="fill:#95dbd9"/><path d="M31,57H41a4,4,0,0,1,4,4v0a0,0,0,0,1,0,0H27a0,0,0,0,1,0,0v0A4,4,0,0,1,31,57Z" style="fill:#aee5e5"/><path d="M44,20h1a1,1,0,0,0,0-2H44a1,1,0,0,0,0,2Z" style="fill:#ffeaa9"/><path d="M39,19a1,1,0,0,0-1,1v1a1,1,0,0,0,2,0V20A1,1,0,0,0,39,19Z" style="fill:#ffeaa9"/><path d="M32,13a1,1,0,0,0,.707-.293l1-1a1,1,0,0,0-1.414-1.414l-1,1A1,1,0,0,0,32,13Z" style="fill:#f3c7e6"/><path d="M37,12h1a1,1,0,0,0,0-2H37a1,1,0,0,0,0,2Z" style="fill:#f3c7e6"/><path d="M29.293,17.293l-1,1a1,1,0,1,0,1.414,1.414l1-1a1,1,0,0,0-1.414-1.414Z" style="fill:#aee5e5"/><path d="M25.707,20.293a1,1,0,0,0-1.414,1.414l1,1a1,1,0,0,0,1.414-1.414Z" style="fill:#aee5e5"/></g></svg>