<?xml version="1.0" encoding="utf-8"?>
<!-- Generator: Adobe Illustrator 24.3.0, SVG Export Plug-In . SVG Version: 6.00 Build 0)  -->
<svg version="1.1" baseProfile="tiny" id="Layer_1" xmlns="http://www.w3.org/2000/svg" xmlns:xlink="http://www.w3.org/1999/xlink"
	 x="0px" y="0px" viewBox="0 0 512 512" overflow="visible" xml:space="preserve">
<g>
	<path fill="#D7E5E5" d="M444,511.8c-117,0-279.8-0.3-396.9,0.2c-21.6,0.2-42.1-20.2-42-42.1c0.5-111.4,0.3-222.7,0.3-334.2
		c2.8,0,5.6,0.2,8.5,0.2c140.5,0,281.1,0,421.6,0c2.8,0,5.6,0.2,8.5,0.2c0,28.4,0,56.8,0,85.2c0,23.3,0.2,46.8,0.3,70.2
		c-1.2,0.9,7.3,5.9,5.9,6.6 M228.4,398.5c0,13.1,0,26.1,0,39.2c0,12.7,5.2,22.3,16.2,28.4c11.1,6.1,22.3,5.4,32.6-1.7
		c2.8-1.9,4.4-1.4,6.8,0.2c21.4,13.6,47.9,0.2,48.6-25.2c0.9-27.5,0.3-55.2,0.2-82.9c0-7-4.7-11.7-10.6-11.7
		c-6.1,0-10.1,4.7-10.1,11.8c-0.2,13.1,0,26.1,0,39.2c0,13.8,0.2,27.3,0,41.1c-0.2,8.5-6.3,13.9-13.2,11.8
		c-5.9-1.7-7.7-6.3-7.7-12.2c0.2-25.9,0-51.7,0-77.7c0-9.1-4-14.3-10.6-14.3c-6.6,0.2-10.1,4.9-10.1,13.9c0,25.2,0,50.5,0,75.7
		c0,2.8,0.2,5.7-1,8.4c-2.1,4.4-5.4,6.8-10.3,6.4c-4.9-0.3-8-3.1-9.2-7.8c-0.5-2.1-0.3-4.4-0.3-6.4c0-25.4,0-50.8,0-76.3
		c0-8.5-4.2-13.8-10.6-13.6c-6.4,0.2-10.1,4.9-10.1,13.2C228.4,371.5,228.4,384.9,228.4,398.5z M40.3,240c0,16.9,0,34,0,50.8
		c0,8.4,3.7,12,11.8,12.2c8.2,0.2,16.5,0.2,24.7,0c14.6-0.5,25.9-7.3,32.4-20.5c6.4-12.9,5.2-25.8-3.5-37.4c-2.6-3.7-2.6-5.6,0-9.2
		c15.8-21.6,4.4-51.4-21.9-57.1c-10.3-2.3-20.7-0.7-31.2-0.9c-9.1-0.2-12.5,3.7-12.5,12.7C40.3,206.9,40.3,223.4,40.3,240z
		 M92.6,412.6c-0.3,0.2-0.9,0.2-1.2,0.3c-1-1.9-2.1-3.7-3-5.6c-9.1-18.1-18.1-36-27.2-54.2c-3.5-6.8-7.8-9.6-13.1-8
		c-6.3,1.9-7.8,6.4-7.8,12.5c0.2,33.1,0,66.2,0,99.1c0,2.6-0.3,5.2,1.2,7.7c2.4,4.2,6.3,6.3,11,5.2c5.9-1.2,8.7-5.6,8.7-11.5
		c0-16.5,0-33.1,0-49.6c0-1.9,0.2-4,0.3-7.7c1.9,3.5,3,5.2,3.8,7.1c8.9,17.9,17.9,35.7,26.8,53.6c2.6,5.4,6.1,9.1,12.7,8
		c5.4-0.9,8.5-5.6,8.5-12.9c0-33.1,0-66.2,0-99.1c0-8-4.4-13.1-10.6-12.9c-6.4,0.2-10.1,4.9-10.1,13.2
		C92.6,376.2,92.6,394.4,92.6,412.6z M322.4,240.3L322.4,240.3c0,17.2,0,34.3,0,51.5c0,6.4,4,10.6,9.8,11c5.4,0.3,10.1-3.8,11-9.9
		c0.2-1.7,0.2-3.5,0.2-5.2c0-10.8,0-21.8,0-32.6c0-1.7-0.9-4,2.3-4.4c16.5-1.7,28.2,5.4,28.9,21.8c0.3,6.1,0,12.2,0,18.3
		c0.2,7.3,3.8,11.8,9.9,12s10.6-4.7,10.8-12c0.2-6.4,0.2-13.1,0-19.5c-0.3-8-1.6-16-7-21.9c-5.9-6.4-5.9-10.6-0.3-17.8
		c10.4-13.6,7.7-30.1,6.6-46c-0.3-5.4-5-8.2-10.4-7.8c-5.6,0.3-9.2,3.8-9.6,9.6c-0.2,5.4-0.2,10.8-0.2,16.4
		c0,18.6-8.4,26.6-26.8,26.1c-3.7-0.2-4.9-1.2-4.7-4.9c0.2-11.3,0.2-22.6,0-34c0-8.5-4.2-13.8-10.6-13.6
		c-6.4,0.2-10.1,4.9-10.1,13.2C322.3,207.4,322.4,224,322.4,240.3z M134.4,239.8c0,8.5,0,16.9,0,25.4c0.2,20.7,15,36.7,34.7,37.6
		c20.2,0.9,37.1-13.9,38.1-34.8c0.9-18.5,0.9-36.9,0-55.4c-0.9-20.9-17.8-35.7-38-35c-19.7,0.7-34.7,16.7-34.8,37.4
		C134.4,223.3,134.4,231.6,134.4,239.8z M301.4,242.9c0-11.5,0.3-20.4,0-29.3c-0.9-20.9-16.9-36.4-37.1-36
		c-20,0.2-35.7,16.4-35.9,37.1c-0.2,17.6-0.2,35.2,0,52.8c0.3,18.6,15.1,34,33.6,35.3c18.8,1.4,35.7-11.8,38.7-30.5
		C302.4,261.8,300.8,251.1,301.4,242.9z M207.3,407.9L207.3,407.9c0-8.9,0.3-17.8,0-26.8c-0.7-21.1-16.9-36.7-37.4-36.4
		c-20,0.3-35.3,16.4-35.5,37.3c-0.2,16.9,0,34,0,50.8c0,3,0.2,6.1,0.9,9.1c4.4,17.8,21.1,29.6,38.8,27.9
		c18.5-1.7,32.4-16.7,33.3-35.9C207.7,425.3,207.3,416.6,207.3,407.9z"/>
	<path fill="#ED1C24" d="M444,136c-2.8,0-5.6-0.2-8.5-0.2c-140.5,0-281.1,0-421.6,0c-2.8,0-5.6,0-8.5-0.2c0-15-0.2-30,0-44.9
		C5.7,71.4,24.5,52.6,44,52.3c11.5-0.2,23,0,34.5,0c1.2,29.1,22.8,51.5,49.8,52.2c7.7,0.2,12.5-3.7,12.7-9.9c0.3-6.3-4-10.3-11.8-11
		c-17.2-1.4-28.9-13.6-29.8-31.2c20.9-0.2,41.8-0.2,62.5-0.3c7,0,13.9,0,20.9,0c31.2,0,62.2,0.2,93.3,0.2c3.7,0,7.3,0,11.1,0.2
		c1.2,28.9,22.8,51.5,50,52.1c7.7,0.2,12.5-3.7,12.7-9.9c0.3-6.3-4-10.3-11.8-11c-17.2-1.4-28.9-13.6-29.8-31.2
		c20.9-0.2,41.8-0.2,62.5-0.3c7,0,13.9,0,20.9,0c23.5,0,47,0,70.4,0.2c27.2,0,44.6,17.4,44.8,44.4c0,13.1-0.2,26.1-0.2,39.2
		C485.8,135.9,464.9,136,444,136z"/>
	<path fill="#AAC3D7" d="M506.7,494.4c0-127.6,0-231.1,0-358.7c-20.9,0.5-41.8,0.5-62.7,0.9c0,74.4,0,148.7,0,222.9
		c0.2,61.1,0.2,91.2,0.3,152.4"/>
	<path fill="#D7E5E5" d="M99.5,52.4c0.9,17.6,12.7,29.8,29.8,31.2c7.8,0.7,12.2,4.7,11.8,11c-0.3,6.3-5,10.1-12.7,9.9
		c-27-0.5-48.8-23.2-50-52.1C79.2,21.8,103.2-1,133.5,0c1.2,0,2.4,0.5,3.7,0.9c5.9,9.9,5.6,13.4-2.4,20
		C113.8,18.7,98.5,37.3,99.5,52.4z"/>
	<path fill="#D7E5E5" d="M308.3,52.4c0.9,17.6,12.7,29.8,29.8,31.2c7.8,0.7,12.2,4.7,11.8,11c-0.3,6.3-5,10.1-12.7,9.9
		c-27-0.5-48.8-23.2-50-52.1C288,22,312-1,342.5,0.2c1.2,0,2.4,0.5,3.7,0.9c5.9,9.9,5.4,13.4-2.6,20
		C322.6,18.7,307.3,37.3,308.3,52.4z"/>
	<path fill="#AAC3D7" d="M134.7,20.9c8-6.6,8.5-10.1,2.6-20c25.6,2.4,45.3,24.4,45.6,51c-7,0-13.9,0-20.9,0
		C162.4,39.4,152.5,24.1,134.7,20.9z"/>
	<path fill="#AAC3D7" d="M343.5,20.9c8-6.6,8.5-10.1,2.6-20c25.6,2.4,45.3,24.4,45.6,51c-7,0-13.9,0-20.9,0
		C371.4,39.4,361.4,24.1,343.5,20.9z"/>
	<path fill="#F15722" d="M228.4,398.5c0-13.4,0-27,0-40.4c0-8.4,3.7-13.1,10.1-13.2c6.4-0.2,10.6,5,10.6,13.6c0,25.4,0,50.8,0,76.3
		c0,2.1-0.2,4.4,0.3,6.4c1,4.7,4.4,7.5,9.2,7.8c4.9,0.3,8.4-2.1,10.3-6.4c1.2-2.6,1-5.6,1-8.4c0-25.2,0-50.5,0-75.7
		c0-9.1,3.5-13.8,10.1-13.9c6.6-0.2,10.6,5,10.6,14.3c0,25.9,0,51.7,0,77.7c0,5.9,1.7,10.3,7.7,12.2c7,2.1,13.1-3.3,13.2-11.8
		c0.2-13.8,0-27.3,0-41.1c0-13.1,0-26.1,0-39.2c0-7.3,4-11.8,10.1-11.8c5.9,0,10.6,4.5,10.6,11.7c0.2,27.7,0.7,55.2-0.2,82.9
		c-0.9,25.4-27.2,38.8-48.6,25.2c-2.4-1.6-4-2.1-6.8-0.2c-10.4,7.1-21.6,7.8-32.6,1.7s-16.2-15.8-16.2-28.4
		C228.4,424.6,228.4,411.5,228.4,398.5z"/>
	<path d="M40.3,240c0-16.5,0-33.1,0-49.6c0-9.1,3.5-12.9,12.5-12.7c10.4,0.2,20.9-1.4,31.2,0.9c26.3,5.7,37.8,35.3,21.9,57.1
		c-2.6,3.7-2.8,5.6,0,9.2c8.5,11.7,9.8,24.6,3.5,37.4c-6.4,13.2-17.8,20-32.4,20.5c-8.2,0.3-16.5,0.2-24.7,0
		c-8.2-0.2-11.8-3.8-11.8-12.2C40.3,273.8,40.3,256.9,40.3,240z M61.2,214.2c0,17.6,0,17.6,17.2,15.5c0.2,0,0.3,0,0.7,0
		c9.8-1.6,15.8-11.8,12.4-21.1c-3.3-8.7-14.3-13.4-27.5-9.8c-6.3,1.7-1.2,8.7-2.6,12.9C61.1,212.5,61.2,213.5,61.2,214.2z
		 M61.2,265.8c0,17.6,0,17.6,16.5,16.2c8.2-0.7,14.6-7.3,14.8-15.3c0.2-8.2-6.4-15.1-15-15.8C61.2,249.6,61.2,249.6,61.2,265.8z"/>
	<path fill="#F15722" d="M92.6,412.6c0-18.3,0-36.4,0-54.7c0-8.4,3.7-13.1,10.1-13.2c6.3-0.2,10.6,5,10.6,12.9c0,33.1,0,66.2,0,99.1
		c0,7.3-3,12-8.5,12.9c-6.4,1.2-9.9-2.6-12.7-8c-8.9-17.9-17.8-35.7-26.8-53.6c-0.9-1.9-1.9-3.7-3.8-7.1c-0.2,3.7-0.3,5.7-0.3,7.7
		c0,16.5,0,33.1,0,49.6c0,5.9-2.8,10.1-8.7,11.5c-4.7,1-8.4-1.2-11-5.2c-1.4-2.4-1.2-5-1.2-7.7c0-33.1,0-66.2,0-99.1
		c0-6.1,1.6-10.8,7.8-12.5c5.2-1.6,9.8,1.2,13.1,8c9.1,18.1,18.1,36,27.2,54.2c0.9,1.9,1.9,3.8,3,5.6
		C91.9,412.9,92.2,412.7,92.6,412.6z"/>
	<path d="M322.4,240.3c0-16.5,0-33.1,0-49.6c0-8.4,3.7-13.1,10.1-13.2s10.6,5,10.6,13.6c0,11.3,0.2,22.6,0,34c0,3.7,1,4.7,4.7,4.9
		c18.5,0.5,26.6-7.5,26.8-26.1c0-5.4-0.2-10.8,0.2-16.4c0.3-5.9,3.8-9.2,9.6-9.6c5.4-0.3,10.1,2.4,10.4,7.8c1,15.7,4,32.4-6.6,46
		c-5.6,7.1-5.6,11.3,0.3,17.8c5.4,5.9,6.6,14.1,7,21.9c0.2,6.4,0.2,13.1,0,19.5c-0.2,7.5-4.7,12.4-10.8,12c-6.1-0.2-9.8-4.7-9.9-12
		c-0.2-6.1,0.2-12.2,0-18.3c-0.9-16.4-12.4-23.7-28.9-21.8c-3.1,0.3-2.3,2.6-2.3,4.4c0,10.8,0,21.8,0,32.6c0,1.7,0,3.5-0.2,5.2
		c-0.9,6.1-5.4,10.3-11,9.9s-9.6-4.5-9.8-11C322.3,274.8,322.4,257.6,322.4,240.3L322.4,240.3z"/>
	<path d="M134.4,239.8c0-8.2,0-16.5,0-24.7c0.2-20.7,15.1-36.7,34.8-37.4c20.2-0.7,36.9,14.1,38,35c0.9,18.5,0.9,36.9,0,55.4
		c-1,20.9-17.9,35.7-38.1,34.8c-19.7-0.9-34.5-16.9-34.7-37.6C134.4,256.9,134.4,248.3,134.4,239.8z M155.3,240L155.3,240
		c0,8,0,16,0,24.2c0,0.3,0,0.9,0,1.2c0.3,9.9,6.6,16.5,15.5,16.5c8.5,0,15.7-6.4,15.8-15.7c0.3-17.4,0.3-34.8,0-52.1
		c-0.2-9.2-7.3-15.7-15.8-15.7c-8.7,0.2-15,6.6-15.3,16C155.1,223.1,155.3,231.5,155.3,240z"/>
	<path d="M301.4,242.9c-0.5,8.2,1,18.8-0.7,29.4c-3,18.6-19.9,31.9-38.7,30.5c-18.5-1.4-33.3-16.7-33.6-35.3
		c-0.3-17.6-0.2-35.2,0-52.8c0.2-20.7,15.8-36.7,35.9-37.1c20.2-0.2,36,15.1,37.1,36C301.7,222.6,301.4,231.5,301.4,242.9z
		 M249.1,240.3c0,8.5-0.2,16.9,0,25.4c0.2,9.6,6.3,16,15,16.4c8.9,0.2,16-6.4,16.2-16c0.3-17.2,0.3-34.3,0-51.5
		c-0.2-9.6-7.3-16.2-16.2-16c-8.7,0.2-14.8,6.8-15,16.4C249.1,223.3,249.1,231.8,249.1,240.3z"/>
	<path fill="#F15722" d="M207.3,407.9c0,8.7,0.3,17.4,0,26.1c-0.9,19.3-14.6,34.1-33.3,35.9c-17.8,1.7-34.5-10.1-38.8-27.9
		c-0.7-3-0.9-6.1-0.9-9.1c0-16.9-0.2-34,0-50.8c0.2-20.9,15.7-36.9,35.5-37.3c20.4-0.3,36.6,15.3,37.4,36.4
		C207.7,390.1,207.3,399,207.3,407.9L207.3,407.9z M155.3,407c0,8.7-0.2,17.4,0,26.1c0.2,9.2,6.3,15.7,14.6,16
		c8.5,0.3,16.2-5.9,16.4-15c0.5-17.8,0.5-35.7,0-53.5c-0.2-9.2-7.8-15.5-16.4-15c-8.4,0.3-14.5,6.8-14.6,16
		C155.1,390.1,155.3,398.6,155.3,407z"/>
	<path fill="#FFFFFF" d="M134.7,20.9c17.9,3.1,27.7,18.5,27.3,31.2c-20.9,0.2-41.8,0.2-62.5,0.3C98.5,37.3,113.8,18.7,134.7,20.9z"
		/>
	<path fill="#FFFFFF" d="M343.5,20.9c17.9,3.1,27.7,18.5,27.3,31.2c-20.9,0.2-41.8,0.2-62.5,0.3C307.3,37.3,322.6,18.7,343.5,20.9z"
		/>
	<path fill="#D7E5E5" d="M61.2,214.2c0-0.9-0.2-1.7,0-2.6c1.4-4.4-3.7-11.1,2.6-12.9c13.2-3.7,24.2,1,27.5,9.8
		c3.5,9.2-2.4,19.5-12.4,21.1c-0.2,0-0.3,0-0.7,0C61.2,231.8,61.2,231.8,61.2,214.2z"/>
	<path fill="#D7E5E5" d="M61.2,265.8c0-16.4,0-16.4,16.4-15c8.5,0.7,15.1,7.7,15,15.8c-0.2,8-6.6,14.6-14.8,15.3
		C61.2,283.3,61.2,283.3,61.2,265.8z"/>
	<path fill="#D7E5E5" d="M155.3,240c0-8.5-0.2-16.9,0-25.4c0.2-9.6,6.6-16,15.3-16c8.5-0.2,15.7,6.3,15.8,15.7
		c0.3,17.4,0.3,34.8,0,52.1c-0.2,9.2-7.1,15.8-15.8,15.7c-8.9,0-15.1-6.6-15.5-16.5c0-0.3,0-0.9,0-1.2
		C155.3,256,155.3,248,155.3,240L155.3,240z"/>
	<path fill="#D7E5E5" d="M249.1,240.3c0-8.5-0.2-16.9,0-25.4c0.2-9.6,6.3-16,15-16.4c8.9-0.2,16,6.4,16.2,16
		c0.3,17.2,0.3,34.3,0,51.5c-0.2,9.6-7.3,16.2-16.2,16c-8.7-0.2-14.8-6.8-15-16.4C249.1,257.2,249.1,248.7,249.1,240.3z"/>
	<path fill="#D7E5E5" d="M155.3,407c0-8.5-0.2-16.9,0-25.4c0.2-9.2,6.3-15.7,14.6-16c8.5-0.3,16.2,5.9,16.4,15
		c0.5,17.8,0.5,35.7,0,53.5c-0.2,9.2-7.8,15.5-16.4,15c-8.5-0.3-14.5-6.8-14.6-16C155.1,424.4,155.3,415.7,155.3,407z"/>
</g>
</svg>
