<svg id="Layer_1" data-name="Layer 1" xmlns="http://www.w3.org/2000/svg" viewBox="0 0 500 500"><title>Burger</title><path d="M466.88,217S549,299.72,454.61,376.39c-92.38,75-242.81,100.93-337.89,68.81C20.56,412.7,5.79,337.8,68.56,260.73,126.55,189.52,327.36,90.14,466.88,217Z" fill="#f9a75c"/><path d="M466.88,217c-26.16-23.78-54.47-39.61-83.6-49.16a236.08,236.08,0,0,1,49,34.48S514.4,285,420,361.71c-91.4,74.24-239.59,100.34-334.81,69.77a192.16,192.16,0,0,0,31.53,13.71c95.08,32.13,245.5,6.23,337.89-68.81C549,299.72,466.88,217,466.88,217Z" fill="#ea8c47"/><path d="M484.49,240.46s23.41,47.58,1.08,63.41-5.34,46.79-45,47.51c-30.4.55-59.87,7.57-73.64,34.44-12.26,23.91-29.21,19.57-53.85,14.86s-35.24,13.27-46.2,30-38.56,7.83-56.2-9.51-36.86-2.38-48.51,2.68-32.67,18.13-43.76-1.6c-14.64-26-16.55-29.18-32.66-24.5s-25.54,3.58-31.55-10.5-29-13.21-13.91-43.54S391,214.63,484.49,240.46Z" fill="#1b8413"/><path d="M482.39,230.39s23.34,44.63,1,60.47-15.78,44-46,47.07-59.51,4.54-75.35,26.25-26.36,31.13-51,26.42-39.17,7.52-50.14,24.27-34.62,13.58-52.27-3.76-36.86-2.38-48.51,2.68-24.31,9.46-38.51-8.17S99.79,383,83.68,387.69s-25.54,3.58-31.55-10.5-29-13.21-13.91-43.54S388.93,204.56,482.39,230.39Z" fill="#98bf0e"/><ellipse cx="259.64" cy="298.75" rx="238.03" ry="79.63" transform="translate(-55.59 59.38) rotate(-11.8)" fill="#a5412d"/><polygon points="485.8 217.35 492.64 250.09 469.89 254.47 469.3 232.74 485.8 217.35" fill="#a5412d"/><polygon points="42.88 348.07 26.64 347.41 19.8 314.66 50.61 319.02 42.88 348.07" fill="#a5412d"/><ellipse cx="252.8" cy="266" rx="238.03" ry="79.63" transform="translate(-49.04 57.29) rotate(-11.8)" fill="#bc593b"/><ellipse cx="181.22" cy="341.71" rx="48.25" ry="28.73" fill="#d30000"/><ellipse cx="180.58" cy="332.87" rx="48.25" ry="28.73" fill="#fd4f54"/><ellipse cx="95.02" cy="320.16" rx="48.25" ry="28.73" fill="#d30000"/><ellipse cx="94.37" cy="311.32" rx="48.25" ry="28.73" fill="#fd4f54"/><ellipse cx="277.07" cy="321.45" rx="48.25" ry="28.73" fill="#d30000"/><ellipse cx="276.43" cy="312.6" rx="48.25" ry="28.73" fill="#fd4f54"/><ellipse cx="377.53" cy="290.82" rx="48.25" ry="28.73" transform="translate(-54.51 89.7) rotate(-12.65)" fill="#d30000"/><ellipse cx="374.97" cy="282.33" rx="48.25" ry="28.73" transform="translate(-52.71 88.93) rotate(-12.65)" fill="#fd4f54"/><path d="M460.93,179s36.1,27,12.46,40.77c-24,14,.2,58.12-44,60.35-30.37,1.53-60.68-6.07-73.07,17.78-13.28,25.56-26.9,36.94-51.54,32.23s-37.45,1-48.55,17.7c-14.51,21.76-41.22,16.64-57.3-2.16-24.79-29-36.79-4.15-48.44.92s-29.42,11.89-40.13-8.05c-12.37-23-24.07-22.41-40.18-17.73s-26.65-1-32.11-15.31c-6.52-17-28.17-11.37-13.67-46.6C37.26,227.55,367.47,153.18,460.93,179Z" fill="#1b8413"/><path d="M458.84,171.12s34.78,24.94,12.46,40.77-15.78,44-46,47.07-59.51,4.54-75.35,26.25-26.36,31.13-51,26.42-39.17,7.52-50.14,24.27-34.62,13.58-52.27-3.76-36.86-2.38-48.51,2.68-24.31,9.46-38.51-8.17-21.81-22.61-37.92-17.93S46,312.31,40,298.23,11,285,26.12,254.69,365.38,145.29,458.84,171.12Z" fill="#98bf0e"/><path d="M453.33,105.9s73.37,61.79-29.93,121S184.08,314.59,85.51,295.74s-109-81.51-46.26-158.58C97.24,66,313.8-20.94,453.33,105.9Z" fill="#f9a75c"/><path d="M365.17,175.68c-2.62-3.46-14.92-6.72-14.92-6.72s-.22,12.73,2.4,16.19a7.85,7.85,0,0,0,12.52-9.47Z" fill="#ea8c47"/><path d="M319.68,156.51c2.87-1.9,6-11.49,6-11.49s-10.07-.79-12.94,1.11a6.23,6.23,0,1,0,6.89,10.38Z" fill="#ea8c47"/><path d="M268.87,138.18c-3-1.81-13.34-.51-13.34-.51s3.73,9.69,6.77,11.51a6.41,6.41,0,0,0,6.57-11Z" fill="#ea8c47"/><path d="M302.69,206c-.75-4.27-10.2-12.79-10.2-12.79s-6,11.22-5.27,15.49a7.85,7.85,0,0,0,15.47-2.7Z" fill="#ea8c47"/><path d="M236.85,177.43c-2-1.69-9.68-2-9.68-2s1.56,7.53,3.56,9.22a4.74,4.74,0,0,0,6.13-7.24Z" fill="#ea8c47"/><path d="M220,231.27c.75-4.27-5.27-15.49-5.27-15.49s-9.46,8.52-10.2,12.79a7.85,7.85,0,1,0,15.47,2.7Z" fill="#ea8c47"/><path d="M109.62,203c-1.19-2.8-9-7.11-9-7.11s-2.32,8.62-1.13,11.42A5.51,5.51,0,0,0,109.62,203Z" fill="#ea8c47"/><path d="M143.74,245.46c-1-4.22-10.94-12.17-10.94-12.17s-5.34,11.55-4.35,15.77a7.85,7.85,0,0,0,15.28-3.6Z" fill="#ea8c47"/><path d="M181.25,169.58c1.3-3.21-1.52-13-1.52-13s-8.8,5.06-10.09,8.27a6.26,6.26,0,0,0,11.61,4.69Z" fill="#ea8c47"/><path d="M338.69,95.59c-2.86-1.27-11.76,1-11.76,1s4.3,8.11,7.16,9.38a5.66,5.66,0,0,0,4.6-10.35Z" fill="#ea8c47"/><path d="M270.81,90.46c-1.2-2.58-8.63-6.36-8.63-6.36s-1.9,8.12-.7,10.7a5.14,5.14,0,0,0,9.33-4.34Z" fill="#ea8c47"/><path d="M206.27,98.89c-3.33-2.11-14.85-.94-14.85-.94s3.88,10.9,7.21,13a7.14,7.14,0,0,0,7.63-12.07Z" fill="#ea8c47"/><path d="M59.34,220.48c1.16-3.69-2.83-14.31-2.83-14.31s-9.36,6.41-10.53,10.1a7,7,0,1,0,13.35,4.21Z" fill="#ea8c47"/><path d="M112.7,158.52c.12-3-5.06-10.22-5.06-10.22s-5.75,6.76-5.88,9.78a5.47,5.47,0,1,0,10.94.45Z" fill="#ea8c47"/><path d="M453.33,105.9c-46.28-42.07-101-60.61-155.68-64C337.19,49.7,375.45,66.35,409,95c0,0,72.42,57.24-31.34,114.27S137.88,294.73,39.79,278.21c-2.51-.42-4.93-.89-7.33-1.37,13.4,8.27,31,14.69,53.05,18.91,98.57,18.85,234.65-9.59,337.89-68.81S453.33,105.9,453.33,105.9Z" fill="#ea8c47"/><path d="M110.44,159.07c.72-2.94-2.93-11-2.93-11s-7,5.48-7.7,8.42a5.47,5.47,0,0,0,10.63,2.61Z" fill="#ffc799"/><path d="M177,169.36c2.26-2.62,2.74-12.76,2.74-12.76s-10,2-12.22,4.58a6.26,6.26,0,0,0,9.48,8.18Z" fill="#ffc799"/><path d="M237,175.77c-2.25-1.34-9.88-.38-9.88-.38s2.76,7.18,5,8.52a4.74,4.74,0,1,0,4.87-8.14Z" fill="#ffc799"/><path d="M110.81,201.21c-1.69-2.53-10.17-5.31-10.17-5.31s-.67,8.9,1,11.43a5.51,5.51,0,1,0,9.16-6.12Z" fill="#ffc799"/><path d="M206.15,95.9c-3.68-1.41-14.74,2-14.74,2s6,9.92,9.65,11.33a7.14,7.14,0,1,0,5.09-13.34Z" fill="#ffc799"/><path d="M144.44,118c2.13-2.82,1.95-13.18,1.95-13.18s-10,2.65-12.14,5.47a6.39,6.39,0,0,0,10.2,7.71Z" fill="#ea8c47"/><path d="M142.46,116.84c2.55-2.45,4-12.7,4-12.7s-10.31,1-12.85,3.49a6.39,6.39,0,0,0,8.86,9.22Z" fill="#ffc799"/><path d="M268.75,91c-.81-2.72-7.61-7.55-7.61-7.55s-3.06,7.76-2.26,10.48A5.14,5.14,0,0,0,268.75,91Z" fill="#ffc799"/><path d="M268,134.53c-3.3-1.28-13.24,1.75-13.24,1.75s5.32,8.92,8.62,10.2a6.41,6.41,0,0,0,4.62-12Z" fill="#ffc799"/><path d="M337.74,91.9c-3.11-.32-10.88,4.56-10.88,4.56s6.6,6.38,9.71,6.7a5.66,5.66,0,0,0,1.17-11.26Z" fill="#ffc799"/><path d="M139.68,246.07c0-4.34-7.94-14.31-7.94-14.31S124,241.83,124,246.16a7.85,7.85,0,0,0,15.7-.1Z" fill="#ffc799"/><path d="M305.35,203.24c-1.7-4-12.86-10.12-12.86-10.12s-3.28,12.3-1.58,16.29a7.85,7.85,0,1,0,14.44-6.17Z" fill="#ffc799"/><path d="M317.24,154c3.26-1.11,8.77-9.58,8.77-9.58s-9.54-3.33-12.79-2.22a6.23,6.23,0,1,0,4,11.79Z" fill="#ffc799"/><path d="M217.28,231.86c1.46-4.08-2.56-16.16-2.56-16.16s-10.77,6.79-12.23,10.87a7.85,7.85,0,0,0,14.78,5.29Z" fill="#ffc799"/><path d="M55.7,219.34c2-3.3.68-14.57.68-14.57s-10.63,4-12.64,7.29a7,7,0,0,0,12,7.28Z" fill="#ffc799"/><path d="M366.11,172.87c-3.16-3-15.84-4.09-15.84-4.09s1.94,12.58,5.1,15.55a7.85,7.85,0,0,0,10.74-11.46Z" fill="#ffc799"/></svg>