<?xml version="1.0" encoding="utf-8"?>
<!-- Generator: Adobe Illustrator 24.3.0, SVG Export Plug-In . SVG Version: 6.00 Build 0)  -->
<svg version="1.1" baseProfile="tiny" id="Layer_1" xmlns="http://www.w3.org/2000/svg" xmlns:xlink="http://www.w3.org/1999/xlink"
	 x="0px" y="0px" viewBox="0 0 512 512" overflow="visible" xml:space="preserve">
<g>
	<rect x="10.5" y="62.6" fill="#F2FF9E" width="429.2" height="316.2"/>
	<circle fill="#C7FEFF" cx="381" cy="131.8" r="116"/>
	<g>
		<path fill="#080815" d="M0,64.1C0,56.5,0,49,1.5,41.5c0-3,0-6,1.5-9c4.5-3,19.6-1.5,25.6-1.5c45.2,0,90.4,0,135.5,0
			c43.7,0,90.4,3,134,0c4.5,0,13.6-9,16.6-12c7.5-4.5,13.6-7.5,21.1-10.5c13.6-4.5,27.1-7.5,40.7-7.5c28.6,0,58.7,7.5,81.3,25.6
			C490.9,50.5,512,91.2,512,133.3c0,48.2-25.6,82.8-61.7,111.4c1.5,25.6,1.5,49.7,1.5,75.3c0,13.6,0,25.6,0,37.6
			c0,7.5,3,24.1-4.5,28.6c-3,1.5-7.5,1.5-12,1.5c-111.4,0-224.4,0-337.3,0c-25.6,0-49.7,0-75.3,0c-3,0-4.5,0-7.5,0
			c-9-1.5-13.6-3-13.6-12c0-57.2,0-112.9,0-168.7c0-28.6,0-57.2,0-84.3C1.5,101.7,0,83.6,0,64.1z M78.3,148.4c0,9,0,19.6,0,28.6
			s3,9,10.5,9s34.6,4.5,34.6-4.5c0-12,0-24.1,0-36.1c0-7.5-10.5-4.5-16.6-4.5c-9,0-19.6-1.5-30.1,0
			C78.3,142.4,78.3,145.4,78.3,148.4z M340.3,264.3c-4.5,0-9,0-13.6,0c0,6,0,10.5,0,15.1c0,1.5,0,4.5,0,6c0,7.5,0,16.6,0,24.1
			c1.5,0,1.5,0,3,0c3,0,4.5,0,7.5,0c7.5,0,15.1,0,21.1,0c4.5,0,9,0,15.1,0c0-4.5,0-9,0-15.1c0-7.5,0-15.1,0-21.1c0-3,0-6,0-9
			c-1.5,0-1.5,0-3,0c-7.5,0-15.1,0-21.1,0C344.8,264.3,343.3,264.3,340.3,264.3z M433.7,357.7c0-24.1-3-103.9,0-103.9
			c-12,3-24.1,6-37.6,9c-3,0-4.5,1.5-7.5,3c-3,3-1.5,16.6,0,21.1c0,10.5,0,19.6,0,30.1c0,1.5,0,4.5-1.5,6s-4.5,1.5-7.5,1.5
			c-100.9,0-201.8,0-301.2,0c-10.5,0-13.6-6-13.6-16.6c0-55.7,0-109.9,0-165.6c0-12,3-18.1,15.1-21.1c7.5,0,16.6,1.5,25.6,1.5
			c45.2,0,90.4,0,135.5,0c1.5,0,4.5,0,6-1.5c3-1.5,3-6,3-9c1.5-12,4.5-24.1,9-36.1c-81.3,0-161.1,0-242.4,0c0,93.4,0,185.2,0,277.1
			c0,3,0,4.5,0,7.5c0,3,0,6,0,9c6,0,12,0,18.1,0c109.9,0,221.4,0,331.3,0c21.1,0,40.7,1.5,60.2,0c1.5,0,3,0,4.5-1.5
			c1.5-1.5,1.5-3,1.5-6C433.7,362.2,433.7,360.7,433.7,357.7z M125,231.2c0-3,0-4.5,0-7.5c0-7.5,0-13.6,0-21.1c-1.5,0-3,0-4.5,0
			c-3,0-4.5,0-7.5,0c-7.5,0-15.1,0-21.1,0c-4.5,0-9,0-13.6,0c0,4.5,0,9,0,12c0,6,0,13.6,0,19.6c0,3,0,6,0,9c0,1.5,0,1.5,0,3
			c7.5,0,13.6,0,21.1,0c3,0,6,0,9,0c4.5,0,10.5,0,16.6,0C125,241.8,125,235.7,125,231.2z M170.2,187.5c9,0,16.6-1.5,16.6-3
			c0-9,6-42.2-4.5-43.7c-3-1.5-40.7,0-40.7,0c0,13.6,0,25.6,0,39.2c0,1.5,0,3,0,4.5C144.6,190.6,164.1,187.5,170.2,187.5z
			 M283.1,264.3c-6,0-12,0-18.1,0c0,6,0,12,0,18.1c0,3,0,6,0,9c0,6,0,12,0,19.6c3,0,4.5,0,6,0c3,0,4.5,0,7.5,0c10.5,0,21.1,0,31.6,0
			c0-10.5,0-21.1,0-31.6c0-3,0-4.5,0-7.5c0-1.5,0-4.5,0-6c-7.5,0-13.6,0-19.6,0C289.1,264.3,286.1,264.3,283.1,264.3z M125,288.4
			c0-3,0-4.5,0-7.5c0-6,0-12,0-18.1c-3,0-4.5,0-7.5,0c-3,0-6,0-9,0c-6,0-13.6,0-19.6,0c-3,0-6,0-10.5,0c0,3,0,6,0,9
			c0,7.5,0,13.6,0,19.6c0,3,0,6,0,9c0,1.5,0,4.5,0,7.5c6,0,12,0,18.1,0c3,0,4.5,0,7.5,0c6,0,13.6,0,19.6,0
			C125,302,125,296,125,288.4z M186.7,226.7c0-3,0-4.5,0-7.5c0-6,0-12,0-18.1c-3,0-6,0-9,0c-3,0-4.5,0-7.5,0c-10.5,0-19.6,0-30.1,0
			c0,10.5,0,21.1,0,30.1c0,3,0,4.5,0,7.5s0,4.5,0,7.5c6,0,12,0,16.6,0c3,0,6,0,9,0c6,0,13.6,0,19.6,0
			C186.7,240.3,186.7,234.2,186.7,226.7z M227.4,186c7.5,0,13.6,0,21.1,0c0-7.5,0-13.6,0-19.6c0-3,0-6,0-9c0-6,0-10.5,0-16.6
			c-3,0-6,0-7.5,0c-3,0-4.5,0-7.5,0c-10.5,0-21.1,0-30.1,0c0,10.5,0,21.1,0,30.1c0,3,0,4.5,0,7.5c0,3,0,6,0,9c6,0,12,0,16.6,0
			C222.9,186,224.4,186,227.4,186z M203.3,286.9c0,3,0,4.5,0,7.5c0,6,0,10.5,0,16.6c3,0,7.5,0,10.5,0c3,0,4.5,0,7.5,0
			c7.5,0,15.1,0,21.1,0c1.5,0,4.5,0,7.5,0c0-3,0-4.5,0-7.5c0-7.5,0-13.6,0-19.6c0-3,0-6,0-9s0-6,0-9c-6,0-10.5,0-15.1,0
			c-3,0-6,0-9,0c-6,0-13.6,0-19.6,0l-1.5,1.5C203.3,271.9,203.3,279.4,203.3,286.9z M186.7,285.4c0-3,0-4.5,0-7.5c0-4.5,0-9,0-13.6
			c-4.5,0-7.5,0-12,0c-3,0-6,0-9,0c-6,0-13.6,0-19.6,0c-1.5,0-3,0-6,0c0,1.5,0,3,0,6c0,7.5,0,15.1,0,21.1c0,3,0,4.5,0,7.5
			c0,4.5,0,7.5,0,12c6,0,9,0,13.6,0c3,0,4.5,0,7.5,0c7.5,0,16.6,0,24.1,0C186.7,300.5,186.7,293,186.7,285.4z M228.9,202.6
			c-9,0-16.6,0-25.6,0c0,9,0,18.1,0,25.6c0,3,0,4.5,0,7.5c0,4.5,0,7.5,0,12c15.1,0,30.1,0,45.2,0c0-15.1,0-30.1,0-45.2
			c-4.5,0-7.5,0-12,0C233.4,202.6,231.9,202.6,228.9,202.6z M292.1,229.7c-1.5-1.5-1.5-3-3-4.5c-7.5-7.5-13.6-15.1-21.1-24.1
			c0,0-1.5,0-3,0c0,15.1,0,30.1,0,46.7c4.5,0,7.5,0,10.5,0c12,0,22.6,0,34.6,0c0-1.5,0-3,0-4.5C304.2,238.7,298.2,234.2,292.1,229.7
			z M381,15.9c-61.7,0-116,46.7-116,116c0,66.3,49.7,116,116,116c69.3,0,116-54.2,116-114.4C496.9,67.1,444.2,15.9,381,15.9z
			 M280.1,47.5c-88.8,0-174.7,0-262,0c0,4.5,0,10.5,0,15.1c84.3,0,167.2,0,251.5,0C272.6,58,275.6,52,280.1,47.5z"/>
		<path fill="#080815" d="M478.9,509.8c-3,0-6,1.5-9,1.5c-7.5,0-15.1,0-21.1,0c-3,0-4.5,0-7.5,0c-7.5,0-15.1,0-21.1,0
			c-3,0-4.5,0-7.5,0c-7.5,0-15.1,0-21.1,0c-3,0-4.5,0-7.5,0c-7.5,0-15.1,0-21.1,0c-3,0-4.5,0-7.5,0c-7.5,0-15.1,0-21.1,0
			c-3,0-4.5,0-7.5,0c-7.5,0-15.1,0-21.1,0c-3,0-4.5,0-7.5,0c-7.5,0-15.1,0-21.1,0c-3,0-4.5,0-7.5,0c-7.5,0-15.1,0-21.1,0
			c-3,0-4.5,0-7.5,0c-7.5,0-15.1,0-21.1,0c-3,0-4.5,0-7.5,0c-7.5,0-15.1,0-21.1,0c-3,0-4.5,0-7.5,0c-7.5,0-15.1,0-21.1,0
			c-3,0-4.5,0-7.5,0c-7.5,0-15.1,0-21.1,0c-3,0-4.5,0-7.5,0c-7.5,0-15.1,0-21.1,0c-3,0-4.5,0-7.5,0c-7.5,0-15.1,0-21.1,0
			c-1.5,0-4.5-1.5-6-1.5c-4.5-3-3-9-3-13.6c0-3,0-6,0-9c0-4.5,0-9,0-13.6c0-7.5,3-10.5,10.5-10.5c13.6,0,28.6,0,42.2,0
			c3,0,4.5,0,7.5,0c7.5,0,15.1,0,21.1,0c3,0,4.5,0,7.5,0c7.5,0,15.1,0,21.1,0c3,0,4.5,0,7.5,0c7.5,0,15.1,0,21.1,0c3,0,4.5,0,7.5,0
			c7.5,0,15.1,0,21.1,0c3,0,4.5,0,7.5,0c7.5,0,15.1,0,21.1,0c3,0,4.5,0,7.5,0c7.5,0,15.1,0,21.1,0c3,0,4.5,0,7.5,0
			c7.5,0,15.1,0,21.1,0c3,0,4.5,0,7.5,0c7.5,0,15.1,0,21.1,0c3,0,4.5,0,7.5,0c7.5,0,15.1,0,21.1,0c3,0,4.5,0,7.5,0
			c7.5,0,15.1,0,21.1,0c3,0,4.5,0,7.5,0c7.5,0,15.1,0,21.1,0c3,0,4.5,0,7.5,0c7.5,0,15.1,0,21.1,0c3,0,4.5,0,7.5,0c6,0,9,3,13.6,4.5
			c1.5,1.5,4.5,1.5,6,3c4.5,3,9,4.5,15.1,7.5c1.5,1.5,3,1.5,4.5,3c3,7.5,1.5,10.5-4.5,13.6C496.9,500.8,487.9,505.3,478.9,509.8z
			 M465.3,481.2c-119,0-236.4,0-353.9,0c0,4.5,0,10.5,0,15.1c119,0,236.4,0,353.9,0C465.3,490.2,465.3,485.7,465.3,481.2z
			 M93.4,481.2c-6,0-10.5,0-15.1,0c0,4.5,0,9,0,15.1c4.5,0,10.5,0,15.1,0C93.4,490.2,93.4,485.7,93.4,481.2z"/>
		<path fill="#080815" d="M76.8,449.6c-3,0-6,0-9,0c-4.5-1.5-4.5-6-4.5-10.5c0-3,0-6,0-9c0-7.5,0-13.6,0-19.6c1.5-1.5,4.5-4.5,6-7.5
			c7.5,0,15.1,0,22.6,0c3,0,4.5,0,7.5,0c7.5,0,15.1,0,21.1,0c3,0,4.5,0,7.5,0c7.5,0,15.1,0,21.1,0c3,0,4.5,0,7.5,0
			c7.5,0,15.1,0,21.1,0c3,0,4.5,0,7.5,0c7.5,0,15.1,0,21.1,0c3,0,4.5,0,7.5,0c7.5,0,15.1,0,21.1,0c3,0,4.5,0,7.5,0
			c7.5,0,15.1,0,21.1,0c3,0,4.5,0,7.5,0c7.5,0,15.1,0,21.1,0c3,0,4.5,0,7.5,0c7.5,0,15.1,0,21.1,0c3,0,4.5,0,7.5,0
			c7.5,0,15.1,0,21.1,0c3,0,4.5,0,7.5,0c7.5,0,15.1,0,21.1,0c3,0,4.5,0,7.5,0c7.5,0,15.1,0,21.1,0c3,0,4.5,0,7.5,0
			c7.5,0,15.1,0,21.1,0c3,0,4.5,0,7.5,0c7.5,0,15.1,0,21.1,0c3,0,4.5,0,7.5,0c4.5,1.5,7.5,4.5,12,6c3,1.5,4.5,3,7.5,3
			c4.5,1.5,9,4.5,12,6c1.5,1.5,3,3,4.5,4.5c1.5,6-1.5,9-6,12c-6,3-10.5,6-16.6,9c-4.5,1.5-9,4.5-15.1,7.5c-7.5,0-13.6,0-21.1,0
			c-3,0-6,0-9,0c-7.5,0-13.6,0-19.6,0c-3,0-6,0-9,0c-7.5,0-13.6,0-19.6,0c-3,0-6,0-9,0c-7.5,0-13.6,0-19.6,0c-3,0-6,0-9,0
			c-7.5,0-13.6,0-19.6,0c-3,0-6,0-9,0c-7.5,0-13.6,0-19.6,0c-3,0-6,0-9,0c-7.5,0-13.6,0-19.6,0c-3,0-6,0-9,0c-7.5,0-13.6,0-19.6,0
			c-3,0-6,0-9,0c-7.5,0-13.6,0-19.6,0c-3,0-6,0-9,0c-6,0-13.6,0-19.6,0c-3,0-6,0-9,0c-6,0-13.6,0-19.6,0c-3,0-6,0-9,0
			c-6,0-13.6,0-19.6,0c-3,0-6,0-9,0C109.9,449.6,93.4,449.6,76.8,449.6z M465.3,417.9c-119,0-236.4,0-353.9,0c0,6,0,10.5,0,15.1
			c119,0,236.4,0,353.9,0C465.3,428.5,465.3,424,465.3,417.9z M93.4,417.9c-6,0-10.5,0-15.1,0c0,4.5,0,9,0,15.1c4.5,0,10.5,0,15.1,0
			C93.4,428.5,93.4,424,93.4,417.9z"/>
		<path fill="#080815" d="M512,296c0,3,0,4.5,0,7.5c0,7.5,0,15.1,0,21.1c0,3,0,4.5,0,7.5c0,7.5,0,15.1,0,21.1c0,3,0,4.5,0,7.5
			c0,7.5,0,15.1-1.5,22.6l-1.5,1.5c-3,0-6,1.5-9,1.5c-4.5,0-9,0-13.6,0c-3,0-4.5,0-7.5,0c-4.5,0-9,0-12-4.5c0-3,0-4.5-1.5-7.5
			c0-7.5,0-15.1,0-21.1c0-3,0-4.5,0-7.5c0-7.5,0-15.1,0-21.1c0-1.5,0-4.5-1.5-6c0-7.5,0-15.1,1.5-22.6c0-1.5,0-4.5-1.5-6
			c3-10.5,3-10.5,12-12c3,0,4.5,0,7.5,0c7.5,0,15.1,0,21.1,0c1.5,0,3,1.5,4.5,1.5C513.5,285.4,510.5,291.5,512,296z M495.4,371.3
			c0-25.6,0-51.2,0-76.8c-4.5,0-9,0-13.6,0c0,25.6,0,51.2,0,76.8C486.4,371.3,490.9,371.3,495.4,371.3z"/>
		<path fill="#4A4A4A" d="M280.1,47.5c-4.5,4.5-7.5,10.5-12,15.1c-84.3,0-167.2,0-251.5,0c0-4.5,0-10.5,0-15.1
			C105.4,47.5,191.2,47.5,280.1,47.5z"/>
		<path fill="#FEFEFE" d="M236.4,202.6c4.5,0,7.5,0,12,0c0,15.1,0,30.1,0,45.2c-15.1,0-30.1,0-45.2,0c0-4.5,0-7.5,0-12
			c1.5,0,3-1.5,4.5-1.5c9-9,18.1-18.1,27.1-27.1C234.9,205.6,234.9,204.1,236.4,202.6z"/>
		<path fill="#FEFEFE" d="M174.7,264.3c3,0,7.5,0,12,0c0,4.5,0,9,0,13.6c-1.5,0-3,1.5-3,1.5c-9,9-16.6,16.6-25.6,25.6
			c-1.5,1.5-1.5,3-1.5,4.5c-4.5,0-9,0-13.6,0c0-3,0-7.5,0-12c1.5,0,3-1.5,4.5-3c9-9,19.6-19.6,28.6-28.6
			C174.7,265.9,174.7,264.3,174.7,264.3z"/>
		<path fill="#FEFEFE" d="M212.3,309.5c-3,0-6,0-10.5,0c0-6,0-10.5,0-16.6c1.5-1.5,4.5-1.5,6-3c7.5-7.5,15.1-15.1,22.6-22.6
			c1.5-1.5,1.5-3,3-4.5c4.5,0,9,0,15.1,0c0,3,0,6,0,9c-1.5,0-1.5,1.5-3,1.5c-10.5,10.5-21.1,19.6-30.1,30.1
			C213.8,306.5,213.8,308,212.3,309.5z"/>
		<path fill="#FEFEFE" d="M219.9,186c-6,0-12,0-16.6,0c0-3,0-6,0-9c1.5-1.5,3-1.5,4.5-3c10.5-10.5,21.1-21.1,30.1-30.1
			c1.5-1.5,1.5-3,3-4.5c3,0,4.5,0,7.5,0c0,6,0,12,0,16.6c-1.5,0-1.5,0-3,1.5c-7.5,7.5-16.6,16.6-24.1,24.1
			C221.4,183,221.4,184.5,219.9,186z"/>
		<path fill="#FEFEFE" d="M177.7,202.6c3,0,4.5,0,9,0c0,6,0,12,0,18.1c-1.5,1.5-4.5,3-6,4.5c-6,6-13.6,13.6-19.6,19.6
			c-1.5,1.5-3,3-3,4.5c-6,0-10.5,0-16.6,0c0-3,0-6,0-7.5c1.5,0,3-1.5,4.5-3c10.5-10.5,21.1-21.1,30.1-30.1
			C176.2,205.6,177.7,204.1,177.7,202.6z"/>
		<path fill="#FEFEFE" d="M271.1,309.5c-1.5,0-4.5,0-6,0c0-7.5,0-13.6,0-19.6c1.5-1.5,3-1.5,4.5-3c6-6,12-12,18.1-18.1
			c1.5-1.5,3-3,3-4.5c6,0,12,0,19.6,0c0,3,0,4.5,0,6c-1.5,1.5-3,1.5-4.5,3c-10.5,10.5-21.1,21.1-31.6,31.6
			C272.6,305,272.6,308,271.1,309.5z"/>
		<path fill="#FEFEFE" d="M117.5,264.3c1.5,0,4.5,0,7.5,0c0,6,0,12,0,18.1c-1.5,0-3,1.5-3,1.5c-7.5,7.5-15.1,15.1-22.6,22.6
			c-1.5,1.5-1.5,3-1.5,4.5c-6,0-12,0-18.1,0c0-3,0-4.5,0-7.5c1.5,0,3-1.5,3-1.5c10.5-10.5,21.1-22.6,33.1-33.1
			C116,265.9,117.5,264.3,117.5,264.3z"/>
		<path fill="#FEFEFE" d="M182.2,139.4c1.5,0,1.5,0,4.5,0c0,7.5,0,15.1,0,21.1c-1.5,0-3,0-3,1.5c-6,6-13.6,13.6-19.6,19.6
			c-1.5,1.5-1.5,1.5-1.5,3c-7.5,0-13.6,0-21.1,0c0-1.5,0-3,0-4.5c1.5-1.5,3-1.5,4.5-3c12-12,22.6-22.6,34.6-34.6
			C180.7,143.9,182.2,142.4,182.2,139.4z"/>
		<path fill="#FEFEFE" d="M99.4,247.8c-6,0-13.6,0-21.1,0c0-1.5,0-3,0-3c1.5,0,3-1.5,3-1.5c12-12,24.1-24.1,36.1-36.1
			c1.5-1.5,1.5-3,1.5-4.5c1.5,0,3,0,4.5,0c0,7.5,0,15.1,0,21.1c-3,1.5-6,3-7.5,6C111.4,235.7,105.4,241.8,99.4,247.8z"/>
		<path fill="#FEFEFE" d="M347.9,264.3c7.5,0,15.1,0,21.1,0c0,3-1.5,4.5-3,6c-10.5,10.5-22.6,22.6-33.1,33.1c-1.5,1.5-3,4.5-4.5,6
			c0,0-1.5,0-3,0c0-7.5,0-16.6,0-24.1C335.8,279.4,341.8,271.9,347.9,264.3z"/>
		<path fill="#FEFEFE" d="M275.6,247.8c-3,0-6,0-10.5,0c0-15.1,0-30.1,0-46.7c1.5,0,3,0,3,0c7.5,7.5,13.6,16.6,21.1,24.1
			c1.5,1.5,1.5,3,3,4.5c-4.5,4.5-10.5,9-15.1,15.1C275.6,244.8,275.6,246.3,275.6,247.8z"/>
		<path fill="#FEFEFE" d="M125,143.9c0,7.5,0,15.1,0,21.1c-1.5,1.5-3,1.5-4.5,3c-4.5,4.5-9,9-13.6,13.6c-1.5,1.5-1.5,3-3,4.5
			c-7.5,0-15.1,0-21.1,0c1.5-1.5,1.5-3,3-4.5c12-12,22.6-24.1,34.6-34.6C120.5,145.4,123.5,145.4,125,143.9z"/>
		<path fill="#FEFEFE" d="M94.9,139.4c7.5,0,15.1,0,21.1,0c0,1.5-1.5,3-1.5,3c-10.5,10.5-21.1,21.1-31.6,31.6
			c-1.5,1.5-3,1.5-4.5,1.5c0-6,0-13.6,0-19.6C85.8,152.9,91.9,146.9,94.9,139.4z"/>
		<path fill="#FEFEFE" d="M372,273.4c0,7.5,0,15.1,0,21.1c-6,3-12,7.5-15.1,15.1c-7.5,0-15.1,0-21.1,0c1.5-1.5,1.5-3,3-4.5
			c9-9,19.6-19.6,28.6-28.6C368.9,274.9,370.4,273.4,372,273.4z"/>
		<path fill="#FEFEFE" d="M310.2,277.9c0,10.5,0,21.1,0,31.6c-10.5,0-21.1,0-31.6,0c0-1.5,1.5-3,1.5-4.5c9-9,16.6-16.6,25.6-25.6
			C307.2,277.9,308.7,277.9,310.2,277.9z"/>
		<path fill="#FEFEFE" d="M141.6,174c0-7.5,0-15.1,0-21.1c6-3,10.5-7.5,13.6-13.6c7.5,0,15.1,0,21.1,0c-1.5,1.5-1.5,3-3,4.5
			c-9,9-18.1,18.1-28.6,28.6C144.6,172.5,141.6,174,141.6,174z"/>
		<path fill="#FEFEFE" d="M78.3,235.7c0-7.5,0-13.6,0-19.6c4.5-3,10.5-7.5,12-13.6c7.5,0,15.1,0,21.1,0c0,1.5-1.5,3-1.5,3
			c-9,9-18.1,18.1-27.1,27.1C82.8,234.2,79.8,234.2,78.3,235.7z"/>
		<path fill="#FEFEFE" d="M203.3,169.5c0-9,0-19.6,0-30.1c10.5,0,19.6,0,30.1,0c0,1.5-1.5,3-1.5,3c-7.5,7.5-16.6,16.6-24.1,24.1
			C206.3,169.5,204.8,169.5,203.3,169.5z"/>
		<path fill="#FEFEFE" d="M141.6,232.7c0-10.5,0-19.6,0-30.1c10.5,0,19.6,0,30.1,0c-1.5,1.5-1.5,3-3,4.5
			c-7.5,7.5-15.1,15.1-24.1,22.6C144.6,231.2,141.6,231.2,141.6,232.7z"/>
		<path fill="#FEFEFE" d="M78.3,293c0-7.5,0-13.6,0-19.6c3-3,6-6,9-9c6,0,13.6,0,19.6,0c-1.5,1.5-1.5,4.5-3,6
			c-7.5,7.5-13.6,15.1-21.1,21.1C82.8,291.5,81.3,293,78.3,293z"/>
		<path fill="#FEFEFE" d="M242.4,309.5c-7.5,0-15.1,0-21.1,0c0-1.5,1.5-3,1.5-3c7.5-7.5,13.6-15.1,21.1-21.1c1.5-1.5,3-1.5,4.5-1.5
			c0,7.5,0,13.6,0,19.6C245.5,303.5,242.4,305,242.4,309.5z"/>
		<path fill="#F3F3F3" d="M275.6,247.8c0-1.5,0-3,1.5-4.5c4.5-4.5,10.5-9,15.1-15.1c6,4.5,12,9,18.1,13.6c0,1.5,0,3,0,4.5
			C298.2,247.8,286.1,247.8,275.6,247.8z"/>
		<path fill="#FEFEFE" d="M146.1,264.3c6,0,13.6,0,19.6,0c-1.5,1.5-1.5,4.5-3,6c-6,6-12,13.6-19.6,19.6c-1.5,1.5-3,1.5-4.5,1.5
			c0-7.5,0-15.1,0-21.1C143.1,267.4,144.6,265.9,146.1,264.3z"/>
		<path fill="#FEFEFE" d="M203.3,228.2c0-9,0-16.6,0-25.6c9,0,18.1,0,25.6,0c0,1.5,0,3-1.5,3c-6,7.5-13.6,13.6-21.1,21.1
			C206.3,226.7,204.8,228.2,203.3,228.2z"/>
		<path fill="#FEFEFE" d="M186.7,285.4c0,7.5,0,16.6,0,24.1c-9,0-16.6,0-24.1,0c0-1.5,0-3,1.5-3c6-7.5,13.6-13.6,21.1-21.1
			C185.2,285.4,185.2,285.4,186.7,285.4z"/>
		<path fill="#EEEEEE" d="M78.3,177c1.5-1.5,3-1.5,4.5-1.5c10.5-10.5,21.1-21.1,31.6-31.6c1.5-1.5,1.5-3,1.5-3c1.5,0,4.5,0,7.5,0
			c0,1.5,0,3,0,4.5c-1.5,1.5-3,1.5-4.5,3c-12,12-24.1,22.6-34.6,34.6c-1.5,1.5-1.5,3-3,4.5c-1.5,0-3,0-4.5,0
			C78.3,183,78.3,180,78.3,177z"/>
		<path fill="#E4E4E3" d="M372,273.4c-1.5,0-3,1.5-4.5,1.5c-9,9-19.6,19.6-28.6,28.6c-1.5,1.5-1.5,3-3,4.5c-3,0-4.5,0-7.5,0
			c1.5-1.5,3-4.5,4.5-6c10.5-10.5,22.6-22.6,33.1-33.1c1.5-1.5,4.5-3,3-6c0,0,1.5,0,3,0C372,267.4,372,270.4,372,273.4z"/>
		<path fill="#FEFEFE" d="M204.8,264.3c6,0,13.6,0,19.6,0c0,1.5,0,3-1.5,4.5c-6,6-10.5,12-16.6,16.6c-1.5,0-1.5,0-3,1.5
			c0-7.5,0-13.6,0-21.1C203.3,264.3,203.3,264.3,204.8,264.3z"/>
		<path fill="#E4E4E3" d="M78.3,235.7c1.5,0,3-1.5,4.5-1.5c9-9,18.1-18.1,27.1-27.1c1.5-1.5,1.5-3,1.5-3c3,0,4.5,0,7.5,0
			c-1.5,1.5-1.5,3-1.5,4.5c-12,9-24.1,21.1-36.1,33.1c-1.5,0-1.5,1.5-3,1.5C78.3,241.8,78.3,238.7,78.3,235.7z"/>
		<path fill="#F3F3F3" d="M141.6,174c1.5-1.5,3-1.5,4.5-3c9-9,18.1-18.1,28.6-28.6c1.5-1.5,1.5-3,3-4.5c3,0,4.5,0,7.5,0
			c-1.5,1.5-1.5,3-3,4.5c-12,12-22.6,22.6-34.6,34.6c-1.5,1.5-3,1.5-4.5,3C141.6,180,141.6,177,141.6,174z"/>
		<path fill="#E4E4E3" d="M78.3,293c1.5,0,4.5-1.5,6-3c7.5-7.5,15.1-15.1,21.1-21.1c1.5-1.5,1.5-3,3-6c3,0,6,0,9,0
			c-1.5,1.5-1.5,3-1.5,3c-10.5,10.5-21.1,22.6-33.1,33.1c-1.5,1.5-3,3-4.5,3C78.3,299,78.3,296,78.3,293z"/>
		<path fill="#FEFEFE" d="M248.5,166.5c0,6,0,13.6,0,19.6c-7.5,0-13.6,0-21.1,0c0-1.5,0-3,1.5-3c4.5-4.5,10.5-10.5,15.1-15.1
			C245.5,166.5,247,166.5,248.5,166.5z"/>
		<path fill="#FEFEFE" d="M186.7,226.7c0,7.5,0,13.6,0,21.1c-7.5,0-13.6,0-19.6,0c1.5-1.5,1.5-4.5,3-6c4.5-4.5,9-9,13.6-13.6
			C183.7,228.2,185.2,226.7,186.7,226.7z"/>
		<path fill="#F3F3F3" d="M310.2,277.9c-1.5,0-3,1.5-4.5,1.5c-9,9-16.6,16.6-25.6,25.6c-1.5,1.5-1.5,3-1.5,4.5c-3,0-4.5,0-7.5,0
			c1.5-1.5,1.5-3,3-4.5c10.5-10.5,21.1-21.1,31.6-31.6c1.5-1.5,3-1.5,4.5-3C310.2,271.9,310.2,274.9,310.2,277.9z"/>
		<path fill="#F3F3F3" d="M141.6,232.7c1.5,0,3-1.5,4.5-1.5c7.5-7.5,15.1-15.1,24.1-24.1c1.5-1.5,1.5-3,3-4.5c3,0,4.5,0,7.5,0
			c-1.5,1.5-1.5,3-3,4.5c-10.5,10.5-21.1,21.1-30.1,30.1c-1.5,1.5-3,1.5-4.5,3C141.6,237.2,141.6,234.2,141.6,232.7z"/>
		<path fill="#F3F3F3" d="M203.3,169.5c1.5-1.5,3-1.5,4.5-1.5c7.5-7.5,16.6-16.6,24.1-24.1c1.5-1.5,1.5-3,1.5-3c3,0,4.5,0,7.5,0
			c0,1.5-1.5,3-3,4.5c-10.5,10.5-21.1,21.1-30.1,30.1c-1.5,1.5-3,1.5-4.5,3C203.3,175.5,203.3,172.5,203.3,169.5z"/>
		<path fill="#E4E4E3" d="M248.5,282.4c-1.5,0-3,1.5-4.5,1.5c-7.5,7.5-15.1,15.1-21.1,21.1c-1.5,1.5-1.5,3-1.5,3c-3,0-4.5,0-7.5,0
			c1.5-1.5,1.5-3,1.5-4.5c10.5-10.5,19.6-21.1,30.1-30.1c0,0,1.5-1.5,3-1.5C248.5,276.4,248.5,279.4,248.5,282.4z"/>
		<path fill="#FEFEFE" d="M125,288.4c0,6,0,13.6,0,21.1c-7.5,0-13.6,0-19.6,0c0-1.5,0-3,0-4.5c4.5-4.5,9-10.5,15.1-15.1
			C122,289.9,123.5,289.9,125,288.4z"/>
		<path fill="#E4E4E3" d="M141.6,289.9c1.5,0,3-1.5,4.5-1.5c6-6,13.6-12,19.6-19.6c1.5-1.5,1.5-3,3-6c3,0,6,0,9,0
			c0,1.5-1.5,1.5-1.5,3c-9,9-19.6,19.6-28.6,28.6c-1.5,1.5-3,1.5-4.5,3C141.6,296,141.6,293,141.6,289.9z"/>
		<path fill="#FEFEFE" d="M265,280.9c0-6,0-12,0-18.1c6,0,12,0,18.1,0v1.5c-6,6-10.5,10.5-16.6,16.6
			C266.5,282.4,265,280.9,265,280.9z"/>
		<path fill="#F3F3F3" d="M203.3,228.2c1.5,0,3,0,3-1.5c7.5-6,13.6-13.6,21.1-21.1c1.5-1.5,1.5-3,1.5-3c3,0,4.5,0,7.5,0
			c0,1.5-1.5,3-1.5,4.5c-9,9-18.1,18.1-27.1,27.1c-1.5,1.5-3,1.5-4.5,1.5C203.3,232.7,203.3,231.2,203.3,228.2z"/>
		<path fill="#F3F3F3" d="M186.7,285.4c-1.5,0-1.5,0-3,1.5c-7.5,7.5-13.6,13.6-21.1,21.1c-1.5,0-1.5,1.5-1.5,3c-3,0-4.5,0-7.5,0
			c1.5-1.5,1.5-3,1.5-4.5c9-9,16.6-16.6,25.6-25.6c1.5-1.5,3-1.5,3-1.5C186.7,279.4,186.7,282.4,186.7,285.4z"/>
		<path fill="#E4E4E3" d="M203.3,286.9c1.5,0,3,0,3-1.5c6-6,12-10.5,16.6-16.6c1.5-1.5,1.5-3,1.5-4.5c3,0,6,0,9,0
			c-1.5,1.5-1.5,3-3,4.5c-7.5,7.5-15.1,15.1-22.6,22.6c-1.5,1.5-3,1.5-6,3C203.3,291.5,203.3,288.4,203.3,286.9z"/>
		<path fill="#E4E4E3" d="M186.7,226.7c-1.5,0-3,1.5-4.5,1.5c-4.5,4.5-9,9-13.6,13.6c-1.5,1.5-1.5,3-3,6c-3,0-6,0-9,0
			c1.5-1.5,1.5-3,3-4.5c6-6,13.6-13.6,19.6-19.6c1.5-1.5,3-3,6-4.5C186.7,222.2,186.7,223.7,186.7,226.7z"/>
		<path fill="#E4E4E3" d="M248.5,166.5c-1.5,0-3,0-4.5,1.5c-6,4.5-10.5,10.5-15.1,15.1c0,1.5-1.5,1.5-1.5,3c-3,0-4.5,0-7.5,0
			c0-1.5,1.5-3,1.5-3c7.5-7.5,16.6-16.6,24.1-24.1c0,0,1.5-1.5,3-1.5C248.5,160.4,248.5,163.5,248.5,166.5z"/>
		<path fill="#E4E4E3" d="M265,280.9h1.5c6-6,10.5-10.5,16.6-16.6v-1.5c3,0,6,0,9,0c-1.5,1.5-1.5,3-3,4.5c-6,6-12,12-18.1,18.1
			c-1.5,1.5-3,3-4.5,3C265,286.9,265,285.4,265,280.9z"/>
		<path fill="#F3F3F3" d="M125,288.4c-1.5,0-3,0-3,1.5c-4.5,4.5-10.5,9-15.1,15.1c-1.5,1.5-1.5,3-3,4.5c-3,0-4.5,0-7.5,0
			c0-1.5,1.5-3,1.5-3c7.5-7.5,15.1-15.1,22.6-22.6c1.5-1.5,3-1.5,3-1.5C125,283.9,125,286.9,125,288.4z"/>
		<path fill="#FEFEFE" d="M186.7,168c0,6,0,10.5,0,16.6c-6,0-12,0-16.6,0C173.2,178.5,179.2,172.5,186.7,168z"/>
		<path fill="#FEFEFE" d="M125,231.2c0,6,0,10.5,0,16.6c-6,0-10.5,0-16.6,0C109.9,243.3,119,234.2,125,231.2z"/>
		<path fill="#E4E4E3" d="M125,231.2c-6,3-15.1,12-16.6,16.6c-3,0-6,0-9,0c6-6,12-12,18.1-18.1c1.5-1.5,4.5-4.5,7.5-6
			C125,226.7,125,228.2,125,231.2z"/>
		<path fill="#F3F3F3" d="M186.7,168c-7.5,4.5-13.6,9-16.6,16.6c-3,0-4.5,0-7.5,0c0-1.5,0-3,1.5-3c6-6,13.6-13.6,19.6-19.6
			c1.5-1.5,1.5-1.5,3-1.5C186.7,163.5,186.7,166.5,186.7,168z"/>
		<path fill="#FEFEFE" d="M326.8,279.4c0-4.5,0-9,0-15.1c4.5,0,9,0,13.6,0C338.8,271.9,332.8,274.9,326.8,279.4z"/>
		<path fill="#F3F3F3" d="M103.9,186c1.5-1.5,1.5-3,1.5-3c4.5-4.5,9-9,13.6-13.6c1.5-3,4.5-3,6-3c0,3,0,4.5,0,7.5
			c-6,3-10.5,7.5-13.6,13.6C108.4,186,106.9,186,103.9,186z"/>
		<path fill="#F3F3F3" d="M358.4,309.5c3-6,7.5-10.5,15.1-15.1c0,4.5,0,9,0,15.1C367.4,309.5,362.9,309.5,358.4,309.5z"/>
		<path fill="#E4E4E3" d="M326.8,279.4c6-3,12-7.5,13.6-15.1c3,0,4.5,0,7.5,0c-6,7.5-13.6,15.1-21.1,21.1
			C326.8,282.4,326.8,280.9,326.8,279.4z"/>
		<path fill="#EEEEEE" d="M94.9,139.4c-4.5,7.5-10.5,12-16.6,16.6c0-3,0-6,0-9c4.5,0,7.5-3,9-9C90.4,139.4,93.4,139.4,94.9,139.4z"
			/>
		<path fill="#FEFEFE" d="M111.4,186c3-6,7.5-10.5,13.6-13.6c0,4.5,0,7.5,0,13.6C120.5,186,116,186,111.4,186z"/>
		<path fill="#F3F3F3" d="M153.6,139.4c-3,6-7.5,10.5-13.6,13.6c0-4.5,0-9,0-13.6C144.6,139.4,149.1,139.4,153.6,139.4z"/>
		<path fill="#E4E4E3" d="M91.9,202.6c-3,6-7.5,9-12,13.6c0-4.5,0-7.5,0-12C82.8,202.6,87.3,202.6,91.9,202.6z"/>
		<path fill="#E4E4E3" d="M88.8,264.3c-3,3-6,6-9,9c0-3,0-6,0-9C81.3,264.3,85.8,264.3,88.8,264.3z"/>
		<path fill="#FEFEFE" d="M88.8,139.4c-1.5,4.5-4.5,7.5-9,9c0-3,0-4.5,0-9C81.3,139.4,85.8,139.4,88.8,139.4z"/>
		<path fill="#E4E4E3" d="M242.4,309.5c0-4.5,3-6,6-7.5c0,1.5,0,4.5,0,7.5C247,309.5,244,309.5,242.4,309.5z"/>
		<path fill="#E4E4E3" d="M146.1,264.3c-1.5,1.5-3,3-6,4.5c0-1.5,0-3,0-6C143.1,262.8,144.6,264.3,146.1,264.3z"/>
		<path fill="#E4E4E3" d="M63.2,229.7c-1.5,0-1.5,0-3,0c1.5-1.5,1.5-1.5,3-3C63.2,228.2,63.2,228.2,63.2,229.7z"/>
		<path fill="#E4E4E3" d="M63.2,171c-1.5,0-1.5,0-3,0c1.5-1.5,1.5-1.5,3-3C63.2,169.5,63.2,171,63.2,171z"/>
		<path fill="#E4E4E3" d="M204.8,264.3l-1.5,1.5C203.3,264.3,203.3,264.3,204.8,264.3z"/>
		<path fill="#FFFF00" d="M465.3,481.2c0,4.5,0,9,0,15.1c-119,0-236.4,0-353.9,0c0-4.5,0-9,0-15.1
			C228.9,481.2,346.4,481.2,465.3,481.2z"/>
		<path fill="#FFFF00" d="M93.4,481.2c0,4.5,0,9,0,15.1c-4.5,0-10.5,0-15.1,0c0-4.5,0-9,0-15.1C84.3,481.2,88.8,481.2,93.4,481.2z"
			/>
		<path fill="#FFFF00" d="M465.3,417.9c0,6,0,10.5,0,15.1c-119,0-236.4,0-353.9,0c0-4.5,0-9,0-15.1
			C228.9,417.9,346.4,417.9,465.3,417.9z"/>
		<path fill="#FFFF00" d="M93.4,417.9c0,4.5,0,9,0,15.1c-4.5,0-9,0-15.1,0c0-4.5,0-9,0-15.1C84.3,417.9,88.8,417.9,93.4,417.9z"/>
		<path fill="#FF0000" d="M495.4,371.3c-4.5,0-9,0-13.6,0c0-25.6,0-51.2,0-76.8c4.5,0,9,0,13.6,0
			C495.4,320.1,495.4,345.7,495.4,371.3z"/>
		<path fill="#080815" d="M388.5,71.6c0,3,0,4.5,0,7.5c0,7.5,0,15.1,0,21.1c0,3,0,4.5,0,7.5c0,6,0,10.5,0,16.6c3,0,7.5,0,10.5,0
			c3,0,4.5,0,7.5,0c7.5,0,15.1,0,21.1,0c3,0,4.5,0,7.5,0c1.5,0,3,0,4.5,0c6,0,9,1.5,9,6c1.5,4.5,0,6-6,10.5c-3,0-4.5,0-7.5,0
			c-7.5,0-15.1,0-21.1,0c-3,0-4.5,0-7.5,0c-7.5,0-15.1,0-21.1,0c-3,0-4.5,0-7.5,0c-6-1.5-6-6-6-12c0-3,0-4.5,0-7.5
			c0-7.5,0-15.1,0-21.1c0-3,0-4.5,0-7.5c0-7.5,0-15.1,0-21.1c0-4.5,4.5-7.5,9-7.5C385.5,64.1,388.5,67.1,388.5,71.6z"/>
	</g>
</g>
</svg>
