<svg xmlns="http://www.w3.org/2000/svg" viewBox="0 0 512 512"><title>Cup_cake</title><g id="Cup_cake"><path d="M378.63,293H127.93a11.5,11.5,0,0,1-11.5-11.5h0a11.5,11.5,0,0,1,11.5-11.5h250.7a11.5,11.5,0,0,1,11.5,11.5h0A11.5,11.5,0,0,1,378.63,293Z" style="fill:#fcc352"/><path d="M370.78,293.9,345.85,449.17A14.85,14.85,0,0,1,331,462.54H174.18a14.82,14.82,0,0,1-14.88-13.33L134.25,314.56l-3.7-20.66Z" style="fill:#ffc67b"/><path d="M370.78,293.9,345.85,449.17A14.85,14.85,0,0,1,331,462.54H194.46a14.83,14.83,0,0,1-14.89-13.33l-25-134.65-3.7-20.66Z" style="fill:#fae4c8"/><path d="M353,144.75a39.82,39.82,0,0,1-39,30.1,39.18,39.18,0,0,1-9.34-1.21,39.81,39.81,0,0,1,19.43-77.21,39.09,39.09,0,0,1,8.8,3.36A39.8,39.8,0,0,1,353,144.75Z" style="fill:#fff"/><path d="M353,144.75a39.82,39.82,0,0,1-39,30.1,39.81,39.81,0,0,1,18.89-75.06A39.8,39.8,0,0,1,353,144.75Z" style="fill:#af3354"/><path d="M381.08,271.21a15.57,15.57,0,0,0-6.61-1.47H138.88a15.64,15.64,0,0,0-9.75,3.4,58.67,58.67,0,0,1,61.18-98.7l163,70.62.41.19A59.57,59.57,0,0,1,381.08,271.21Z" style="fill:#734f3f"/><path d="M381.08,271.21a15.57,15.57,0,0,0-6.61-1.47H261.38l-96.27-41.4s-.05,0-.07,0a58.56,58.56,0,0,1-33.1-47.17,59.1,59.1,0,0,1,58.37-6.69l163,70.62.41.19A59.57,59.57,0,0,1,381.08,271.21Z" style="fill:#ffc67b"/><path d="M403.75,222.47a45.68,45.68,0,0,1-3.81,18.3,46.9,46.9,0,0,1-30.72,26.47,50.56,50.56,0,0,1-33.61-2.34l-58.75-25L187.1,199.79C136.43,164.3,141.68,80.57,213,53.7c0,0-.08.43-.14,1.22-.6,8,.14,53.75,89.89,90.71,51.66,21.28,70.79,32,70.79,32C392.37,185.73,403.75,203.77,403.75,222.47Z" style="fill:#734f3f"/><path d="M403.75,224a46.15,46.15,0,0,1-3.87,18.53,47.64,47.64,0,0,1-31.22,26.81l-5.85-.39c9.86-23.71.13-47.34-23.61-57.77l-29.12-13.54-21-8.51-24.79-10.89-20.95-8.87-13.89-6.44c-55.27-33-27.71-93.52-19.66-108.61-.61,8.08.14,54.43,91.33,91.87C353.57,167.72,373,178.56,373,178.56,392.19,186.78,403.75,205.05,403.75,224Z" style="fill:#ffc67b"/><path d="M403.76,224.6a46.32,46.32,0,0,1-3.87,18.53,47.62,47.62,0,0,1-31.22,26.8l-5.85-.38a46.89,46.89,0,0,0,3.71-21.1,46.64,46.64,0,0,0,16.57-35.58,49.22,49.22,0,0,0-18.37-38c5.73,2.83,8.28,4.25,8.28,4.25C392.2,187.39,403.76,205.66,403.76,224.6Z" style="fill:#fff"/><path d="M286.4,182.48l-13.34-5.91a6,6,0,0,0-7.91,3.05h0a6,6,0,0,0,3.05,7.91l13.34,5.91a6,6,0,0,0,7.91-3h0A6,6,0,0,0,286.4,182.48Z" style="fill:#191010"/><path d="M185.3,397h0a6,6,0,0,0-5.32,6.6l.33,3.11a6,6,0,0,0,6.6,5.33h0a6,6,0,0,0,5.33-6.61l-.33-3.1A6,6,0,0,0,185.3,397Z" style="fill:#191010"/><path d="M102.75,220.86a64.64,64.64,0,0,0,13.15,47.75,17.41,17.41,0,0,0-5.67,13.66c.41,9.43,8.5,16.72,17.94,16.72h40.6l8.47,79.08a6,6,0,0,0,6.61,5.33h0a6,6,0,0,0,5.33-6.61L180.84,299h27.08l6.47,120.32A6,6,0,0,0,220.7,425h0a6,6,0,0,0,5.67-6.31L219.94,299H247.3l-.24,156.64H228.3l-.66-12.92a6,6,0,0,0-6.29-5.69h0a6,6,0,0,0-5.69,6.3l.63,12.31h-19l-2.68-27.42a6,6,0,0,0-6.56-5.39h0a6,6,0,0,0-5.38,6.56l2.56,26.25H174.93a8.8,8.8,0,0,1-8.92-7.88l0-.28-24-129a6,6,0,0,0-7-4.8h0a6,6,0,0,0-4.81,7l23.9,128.5a20.74,20.74,0,0,0,20.84,18.48H331.7A20.72,20.72,0,0,0,352.54,449l24.1-150h1.3c9.57,0,17.73-7.49,18-17.06A17.5,17.5,0,0,0,386.56,266a52.16,52.16,0,0,0,18.91-22.67c11.68-27-1.42-58.82-29.21-71-1.57-.87-9.38-5.08-25.92-12.67a45.92,45.92,0,0,0,3.17-5.11A44.13,44.13,0,0,0,343,100c.81-.71,1.62-1.43,2.46-2.11a84.94,84.94,0,0,1,21.35-12.79,6,6,0,0,0,3.32-7.45h0a6,6,0,0,0-8-3.61,97.25,97.25,0,0,0-24.3,14.57c-1.87,1.53-3.65,3.14-5.39,4.79a44.32,44.32,0,0,0-61.14,29.9c-24.9-14.93-37.58-29.71-44-40.75-9.38-16.09-7.75-27.74-7.74-27.79l1.8-10.36-9.84,3.72c-38.09,14.43-62.24,46.88-63,84.71a87.54,87.54,0,0,0,5.39,32.27A65,65,0,0,0,102.75,220.86ZM259.3,299h27.33l-10,156.64H259.06Zm81.36,148.32-.05.42a8.79,8.79,0,0,1-8.91,7.9H318.12l14.7-110.94a6,6,0,0,0-5.16-6.74h0a6,6,0,0,0-6.74,5.16L306,455.63H288.67l10-156.64H325.8l-2.29,21.37a6,6,0,0,0,5.32,6.61h0a6,6,0,0,0,6.61-5.33L337.86,299h26.62ZM378.41,287H127.71a5.5,5.5,0,1,1,0-11h250.7a5.5,5.5,0,1,1,0,11ZM285.76,118.71a32.34,32.34,0,0,1,37.88-15.85,99.6,99.6,0,0,0-7.49,10.67,6,6,0,0,0,2.38,8.42h0a6,6,0,0,0,7.87-2.17,85.75,85.75,0,0,1,8.11-11.21,32.23,32.23,0,0,1,4.55,46c-9.23-4.1-20.39-8.9-33.72-14.42-8.52-3.52-16.16-7.12-23.05-10.74A31.89,31.89,0,0,1,285.76,118.71ZM160.44,133.05c.58-27.59,15.65-51.94,40.27-66.52-5.9,14.55-12.12,37.08-6.67,59.38,4.45,18.18,15.84,32.89,33.84,43.72l8.73,4.11a6,6,0,0,0,8-2.89h0a6,6,0,0,0-2.89-8l-7.9-3.7c-15-9.09-24.44-21.23-28.08-36.07-4.27-17.36,0-35.51,4.76-48.42,6.77,20.16,27.71,50.68,90.28,76.57,50.39,20.85,69.72,31.59,69.9,31.7l.56.27c21.91,9.47,32.33,34.3,23.23,55.35a40.7,40.7,0,0,1-23.82,22.13c4.38-22.66-6.75-43.9-29.5-54l-23.06-10.8a6,6,0,0,0-8,2.88v0a6,6,0,0,0,2.89,8l23.12,10.82.11.06c19.17,8.49,27.45,26.47,21.43,45.57a44.54,44.54,0,0,1-19.44-3.64L205.36,202.83C177,190.71,159.8,164,160.44,133.05Zm.74,47.13a85.27,85.27,0,0,0,39.47,33.68L317.94,264H257.3l-63.41-27.4a6,6,0,0,0-7.89,3.13h0a6,6,0,0,0,3.12,7.88L227.05,264h-99.4a53.16,53.16,0,0,1,.21-70.76,43.74,43.74,0,0,0,1.31,6.54c2.79,9.94,10.46,23.58,30.91,34.32a6,6,0,0,0,8.21-2.89h0a6,6,0,0,0-2.63-7.72c-27.56-14.45-26.83-34-25.81-40.17a52.76,52.76,0,0,1,19.11-7C159.67,177.62,160.4,178.91,161.18,180.18Z" style="fill:#191010"/></g></svg>