<?xml version="1.0" encoding="utf-8"?>
<!-- Generator: Adobe Illustrator 24.3.0, SVG Export Plug-In . SVG Version: 6.00 Build 0)  -->
<svg version="1.1" baseProfile="tiny" id="Capa_1" xmlns="http://www.w3.org/2000/svg" xmlns:xlink="http://www.w3.org/1999/xlink"
	 x="0px" y="0px" viewBox="0 0 512 512" overflow="visible" xml:space="preserve">
<g>
	<path fill="#FFFFFF" d="M196.5,443.9c-57.7,0-107.9-39.1-121.9-95L33.9,188.4L9,193.7l40.7,160.5c17,67.3,85.4,108.1,152.7,91.1
		c0.1,0,0.2,0,0.4-0.1c2.6-0.6,5-1.4,7.4-2.2C205.5,443.6,201.1,443.8,196.5,443.9z"/>
	<path fill="#F79959" d="M258.6,326.6l-24.6,6.2c5.2,22.6-9.9,46.3-34.8,56.7c5.1-0.1,10.1-0.8,15-2
		C245.3,379.8,265.1,352.4,258.6,326.6L258.6,326.6z"/>
	<g>
		<path fill="#F79959" d="M293.9,292.4l-40.8-160.6l-244,61.8l40.7,160.5c15.7,67.7,83.4,109.9,151.2,94.2s109.9-83.4,94.2-151.2
			C294.7,295.6,294.2,293.9,293.9,292.4L293.9,292.4z M189.4,392.6c-5.5,1.4-11.2,2.1-17,2.1c-25.4,0-45.5-13.9-51.1-34.7
			l112.5-28.5c6.5,26.2-13.4,53.5-44.5,61.4V392.6z"/>
		<path fill="#6AC9EA" d="M260.3,111.9l-6.4,22.9l39.9,157.6c1.3,5.1,2.2,10.3,2.8,15.4l1.1,9.1l9.1-1.3c3.1-0.5,6-0.6,9.1-0.6
			c6.1,0,12.3,0.8,18.3,2.5c30.9,8.6,50.2,36.4,43,61.9l-83.7-23.1l-2.8,8c-4.5,12.7-11.1,24.6-19.3,35.4l-6.2,8.4l9.1,5.3
			c60,35.1,137.1,15.1,172.3-44.9c5.5-9.4,9.8-19.6,12.7-30.2L502.7,179L260.3,111.9z"/>
		<g>
			<path fill="#FFFFFF" d="M296.7,307.9l1.1,9.1l9.1-1.3c3.1-0.5,6-0.6,9.1-0.6h5.3v-0.8c-0.7-5.2-1.8-10.4-3.2-15.4l-39.7-156.9
				l6.4-23l218.6,60.3l-243-67.2l-6.4,22.9l39.9,157.6C295,297.5,296,302.7,296.7,307.9L296.7,307.9z"/>
			<path fill="#FFFFFF" d="M298.1,420.5l-9.1-5.3l6.2-8.3c8.4-10.6,15-22.6,19.5-35.4l2.8-8l-24.3-6.8l-2.8,8
				c-4.5,12.7-11.1,24.6-19.3,35.4l-6,7.9l9.1,5.3c9.3,5.5,19.3,9.9,29.8,13c4.1,1.1,8.3,2,12.4,2.7
				C310.1,426.7,304,423.9,298.1,420.5L298.1,420.5z"/>
		</g>
		<g>
			<path fill="#203D4C" d="M139.2,267.3c1.4-4.8-1.3-9.9-6.1-11.3c-39.7-11.8-70.4,16.7-71.6,18.3c-4.2,2.7-5.5,8.3-2.9,12.5
				c2.7,4.2,8.3,5.5,12.5,2.9c1.1-0.7,2-1.5,2.6-2.5c14.6-13.1,34.8-18.3,53.9-13.8c4.8,1.5,9.9-1.1,11.4-5.8
				C139.2,267.5,139.2,267.4,139.2,267.3z"/>
			<path fill="#203D4C" d="M245.5,227.6c-39.7-11.8-70.4,16.7-71.6,18.3c-3.7,3.4-3.8,9.2-0.4,12.9c3.4,3.7,9.2,3.8,12.9,0.4l0,0
				c14.5-13.2,34.8-18.4,53.9-13.8c4.8,1.4,9.9-1.3,11.3-6.1c1.4-4.8-1.3-9.9-6.1-11.3V227.6z"/>
			<path fill="#203D4C" d="M238.6,324.2c-2.1-1.3-4.6-1.7-7-0.9l-112.3,28.4c-5,1.2-8,6-6.8,11l0,0c6.2,24.8,30.4,41.5,59.9,41.5
				c6.5,0,13-0.8,19.2-2.5c35.8-9.1,58.7-41.4,51.1-72C242,327.2,240.6,325.3,238.6,324.2L238.6,324.2z M187.3,384.1
				c-4.8,1.2-9.7,1.8-14.6,1.8c-15.3,0.7-29.9-6.6-38.7-19.2l92.1-23.3C225.1,361.3,209.5,378.5,187.3,384.1z"/>
			<path fill="#203D4C" d="M505.4,170.1l-242.8-67c-4.8-1.3-9.9,1.5-11.2,6.4l0,0l-4,14.3l-240.5,61c-4.8,1.3-7.8,6.1-6.6,11
				l40.7,160.6c18.2,72.2,91.4,115.9,163.5,97.7c23.2-5.9,44.6-17.8,61.7-34.7c63.2,39.6,146.4,20.3,185.8-42.9
				c6.8-11,12.1-22.9,15.6-35.4l44.1-159.7C513.1,176.6,510.2,171.6,505.4,170.1L505.4,170.1L505.4,170.1z M200.5,436.5
				c-62.4,15.9-125.9-21.8-141.7-84.3c0-0.1,0-0.2-0.1-0.4L20.2,200.2l226.7-57.3l38.4,151.8C301,357.3,263,420.7,200.5,436.5
				L200.5,436.5z M281.2,205.5l-17.9-70.7l3.3-11.9l225.1,62.3l-41.6,151.2c-17.2,62.1-81.6,98.6-143.7,81.5
				c-9.8-2.7-19.2-6.7-27.9-11.8c8.8-11.4,15.8-24.3,20.6-37.8l75.3,20.9c0.8,0.1,1.7,0.1,2.5,0c4.2,0.1,8-2.6,9.1-6.6
				c8.4-30.4-13.8-63.2-49.5-72.9c-10-2.8-20.4-3.5-30.7-2.1c-0.6-5.8-1.7-11.4-2.9-17l-15.3-59.7 M304.3,350.3
				c1.7-8.1,2.6-16.5,2.7-24.9c8.3-1.4,16.7-0.9,24.9,1.4c22.3,6.1,37.5,23.6,37.8,41.5L304.3,350.3z"/>
			<path fill="#203D4C" d="M398.3,230.3c-6.1,0-12.3,0.8-18.3,2.5c-4.8,1.3-7.7,6.4-6.4,11.2c1.3,4.8,6.4,7.7,11.2,6.4l0,0
				c19.2-4.2,39.3,1.4,53.5,15c3.5,3.5,9.3,3.5,12.9,0s3.5-9.3,0-12.9C436.9,238.8,418,231,398.3,230.3z"/>
		</g>
		<g>
			<path fill="#203D4C" d="M335.9,217.7c-14.4-13.4-33.3-21.3-53.1-22c-3.5,0-7.1,0.2-10.5,0.8l6,18c16.4-1.1,32.7,4.7,44.7,16.2
				c3.5,3.5,9.3,3.5,12.9,0C339.5,227,339.5,221.2,335.9,217.7z"/>
		</g>
	</g>
</g>
</svg>
