<?xml version="1.0" encoding="utf-8"?>
<!-- Generator: Adobe Illustrator 24.3.0, SVG Export Plug-In . SVG Version: 6.00 Build 0)  -->
<svg version="1.1" baseProfile="tiny" id="Layer_1" xmlns="http://www.w3.org/2000/svg" xmlns:xlink="http://www.w3.org/1999/xlink"
	 x="0px" y="0px" viewBox="0 0 512 512" overflow="visible" xml:space="preserve">
<g id="line">
	<g id="color">
		<g>
			<g>
				<rect x="69.3" y="227.5" fill="#FFC600" width="373.7" height="284.5"/>
			</g>
			<g>
				<rect x="69.3" y="317" fill="#F28907" width="373.7" height="97.6"/>
			</g>
			<g>
				<rect x="207.3" y="227.5" fill="#F28907" width="97.6" height="284.5"/>
			</g>
			<g>
				<rect x="69.3" y="227.5" fill="#F28907" width="373.7" height="24.4"/>
			</g>
		</g>
		<g>
			<g>
				<rect x="69.3" y="333.3" fill="#F20F4B" width="373.7" height="65.1"/>
			</g>
			<g>
				<rect x="69.3" y="365.5" fill="#B50B38" width="373.7" height="32.5"/>
			</g>
			<g>
				<rect x="207.3" y="333.3" fill="#B50B38" width="97.6" height="65.1"/>
			</g>
		</g>
		<g>
			<g>
				<rect x="223.6" y="227.5" fill="#F20F4B" width="65.1" height="284.5"/>
			</g>
			<g>
				<rect x="223.6" y="227.5" fill="#B50B38" width="32.5" height="284.5"/>
			</g>
			<g>
				<rect x="223.6" y="227.5" fill="#B50B38" width="65.1" height="24.4"/>
			</g>
		</g>
		<g>
			<g>
				<g>
					<rect x="53" y="162.4" fill="#FFC600" width="406.2" height="65.1"/>
				</g>
				<g>
					<rect x="199.2" y="162.4" fill="#F28907" width="113.6" height="65.1"/>
				</g>
			</g>
			<g>
				<g>
					<rect x="215.5" y="162.4" fill="#F20F4B" width="81.4" height="65.1"/>
				</g>
				<g>
					<rect x="215.5" y="162.4" fill="#B50B38" width="40.7" height="65.1"/>
				</g>
			</g>
		</g>
		<g>
			<g>
				<g>
					<g>
						<path fill="#F20F4B" d="M166.6,162.4c-46.2,0-88-14.5-117.7-38.1c-27.9-21.8-44.7-51.4-44.7-84c31.4,0,48.8-8.1,57-16.3
							c0,7,0.9,14.2,2.3,21.2C73.4,94.7,117,141.2,166.6,162.4z"/>
					</g>
					<g>
						<path fill="#B50B38" d="M166.6,162.4c-46.2,0-88-14.5-117.7-38.1c-2.9-5.8-4.4-12.2-4.4-18.9c0-22.1,6.7-42.7,18.3-60.1
							C73.4,94.7,117,141.2,166.6,162.4z"/>
					</g>
				</g>
				<g>
					<g>
						<path fill="#273640" d="M61.2,105.8c0,40.7,87.2,57,195,57c-76.1,0-138-36.3-138-81.4v-8.1H77.4L61.2,105.8z"/>
					</g>
					<g>
						<path fill="#202D35" d="M118.1,81.4v-8.1H77.4l-16.3,32.5c0,39.8,83.4,56.1,187.7,56.7C175.9,160.4,118.1,124.7,118.1,81.4z
							 M78.6,110.7c6.4-5.8,14.8-10.8,24.7-14.2c3.2,13.9,11.3,27,22.7,38.1C98.4,128.1,83,119.4,78.6,110.7z"/>
					</g>
				</g>
				<g>
					<g>
						<path fill="#F20F4B" d="M61.2,105.8c18.6-22.7,51.7-32.5,89.5-32.5c58.4,0,105.5,36.3,105.5,81.4
							c0-80.8-43.6-146.2-97.6-146.2h8.1C108.5,8.1,61.2,51.7,61.2,105.8z"/>
					</g>
					<g>
						<path fill="#B50B38" d="M162.6,8.4c-56.4,1.7-101.4,44.7-101.4,97.3c18.6-23,51.7-32.5,89.5-32.5
							c58.4,0,105.5,36.3,105.5,81.4C256.1,75.6,214.6,11.3,162.6,8.4z M150.4,57c-23.8,0-45,3.5-62.8,10.8
							c14.2-24.4,42.1-41.6,74.1-43c24.4,1.7,46.5,21.8,61,51.7C202.7,64.2,177.7,57,150.4,57z M158.5,8.1c1.2,0,2.6,0,3.8,0.3
							c1.5-0.3,2.9-0.3,4.4-0.3H158.5z"/>
					</g>
				</g>
			</g>
			<g>
				<g>
					<g>
						<path fill="#F20F4B" d="M345.4,162.4c46.2,0,88-14.5,117.7-38.1c27.9-21.8,44.7-51.4,44.7-84c-31.4,0-48.8-8.1-57-16.3
							c0,7-0.9,14.2-2.3,21.2C438.9,94.7,395.3,141.2,345.4,162.4z"/>
					</g>
					<g>
						<path fill="#B50B38" d="M345.4,162.4c46.2,0,88-14.5,117.7-38.1c2.9-5.8,4.4-12.2,4.4-18.9c0-22.1-6.7-42.7-18.3-60.1
							C438.9,94.7,395.3,141.2,345.4,162.4z"/>
					</g>
				</g>
				<g>
					<g>
						<path fill="#273640" d="M451.1,105.8c0,40.7-87.2,57-195,57c76.1,0,138-36.3,138-81.4v-8.1h40.7L451.1,105.8z"/>
					</g>
					<g>
						<path fill="#202D35" d="M263.1,162.4c104.3-0.6,187.7-17.1,187.7-56.7l-16.3-32.5h-40.7v8.1
							C394.2,124.7,336.1,160.4,263.1,162.4z M386,134.5c11.6-11.3,19.5-24.1,22.7-38.1c9.9,3.5,18.3,8.4,24.7,14.2
							C429,119.4,413.6,128.1,386,134.5z"/>
					</g>
				</g>
				<g>
					<g>
						<path fill="#F20F4B" d="M451.1,105.8c-18.6-22.7-51.7-32.5-89.5-32.5c-58.4,0-105.5,36.3-105.5,81.4
							c0-80.8,43.6-146.2,97.6-146.2h-8.1C403.8,8.1,451.1,51.7,451.1,105.8z"/>
					</g>
					<g>
						<path fill="#B50B38" d="M256.1,154.3c0-44.7,47.4-81.4,105.5-81.4c37.5,0,70.6,9.6,89.5,32.5c0-52.6-45-95.3-101.4-97.3
							C297.7,11.3,256.1,75.6,256.1,154.3z M289.3,76.1c14.2-29.9,36.6-50,61-51.7c32,1.5,59.9,18.6,74.1,43
							c-17.4-7-38.6-10.8-62.8-10.8C334.6,57,309.6,64.2,289.3,76.1z M345.4,8.1c1.5,0,2.9,0,4.4,0.3c1.2-0.3,2.6-0.3,3.8-0.3H345.4
							z"/>
					</g>
				</g>
			</g>
		</g>
	</g>
	<g id="line_00000049220002953008059720000000390671284912821128_">
		<g>
			<g>
				<g>
					<path fill="#222325" d="M256.1,170.6c-92.7,0-203.1-11.3-203.1-65.1c0-4.4,3.8-8.1,8.1-8.1s8.1,3.8,8.1,8.1
						c0,20.3,32.8,35.5,90.1,43.3c-30.5-16.3-49.4-40.4-49.4-67.7c0-4.4,3.8-8.1,8.1-8.1s8.1,3.8,8.1,8.1
						c0,39.5,59.6,73.2,129.9,73.2c4.4,0,8.1,3.8,8.1,8.1C264.3,166.8,260.5,170.6,256.1,170.6z"/>
				</g>
			</g>
			<g>
				<g>
					<path fill="#222325" d="M256.1,162.4c-4.4,0-8.1-3.8-8.1-8.1c0-79,41-144.7,93.6-153.4c1.2-0.6,2.6-0.9,3.8-0.9h8.1
						c0.9,0,2,0.3,2.6,0.6C413.6,5.8,459,50.9,459,105.8c0,3.5-2,6.4-5.5,7.6c-3.2,1.2-7,0.3-9-2.6c-20-24.4-56.4-29.6-83.1-29.6
						c-53.8,0-97.6,32.8-97.6,73.2C264.3,158.9,260.5,162.4,256.1,162.4z M350,16.3c-35.5,2-65.4,36-78.7,83.7
						c20.9-21.2,53.5-35.2,90.4-35.2c32.5,0,59.3,7,78.7,20C430.5,47.1,394.2,18.3,350,16.3z"/>
				</g>
				<g>
					<path fill="#222325" d="M256.1,170.6c-4.4,0-8.1-3.8-8.1-8.1s3.8-8.1,8.1-8.1c70.3,0,129.9-33.4,129.9-73.2
						c0-4.4,3.8-8.1,8.1-8.1c4.4,0,8.1,3.8,8.1,8.1c0,27.3-18.9,51.4-49.4,67.7c57.2-7.6,90.1-22.7,90.1-43.3c0-4.4,3.8-8.1,8.1-8.1
						s8.1,3.8,8.1,8.1C459.3,159.5,348.8,170.6,256.1,170.6z"/>
				</g>
			</g>
		</g>
	</g>
</g>
</svg>
