<?xml version="1.0" encoding="utf-8"?>
<!-- Generator: Adobe Illustrator 24.3.0, SVG Export Plug-In . SVG Version: 6.00 Build 0)  -->
<svg version="1.1" baseProfile="tiny" id="Layer_1" xmlns="http://www.w3.org/2000/svg" xmlns:xlink="http://www.w3.org/1999/xlink"
	 x="0px" y="0px" viewBox="0 0 512 512" overflow="visible" xml:space="preserve">
<g>
	<path fill="#E83F45" d="M106.7,429.9c0.3,9,0.3,17.7-2,26.4c-3.1,12.9-11.2,12.3-19.4,5.9c-5.1-3.6-7.9-9.3-10.1-14.9
		c-5.9-13.5-8.4-27.5-10.1-42.1c-0.6-3.6-1.7-5.6-5.3-7.3c-13.5-6.2-25.5-14.6-35.4-25.8c-4.8-5.6-6.2-10.7-3.9-18.2
		c11.5-36.5,20.2-73.5,26.9-110.8c3.4-18.8,2.8-38.2,2-57.5c-0.6-9-1.4-17.7-2.8-26.4c-0.3-2-1.1-3.9-2.2-5.6
		c-9.5-14-18.8-28.1-25.3-44.1C9.4,85.6,2.3,60.9,0.1,34.8c0-5.9,0.3-11.8,2.2-17.7C4.9,9.3,11.6,6.2,19.5,9
		c2.2,0.8,3.6,2.8,5.1,4.8c4.8,7.9,8.1,16.3,11.8,24.7c6.7,15.4,13.2,31.1,21.3,46c9.3,16.6,22.7,28.3,38.2,38.7
		c21.3,14.3,45.2,22.2,70.1,26.7c17.1,3.1,34,5.6,51.3,6.2c7.3,0.3,6.5-0.8,9,7c2.2,5.9,2.5,12.3,2.5,18.5c0,2.5-1.1,3.6-3.4,4.8
		c-11.5,4.8-23.6,7-35.9,8.7c-11.8,1.7-23.9,2.5-35.9,3.1c-1.4,0-2.8,0-2.8,2.2c-0.3,18-1.1,35.6,3.4,53.3
		c3.4,13.5,8.1,26.9,13.2,39.8c0.6,1.7,1.1,2.8-0.8,4.2c-5.9,4.2-7.6,13.2-4.2,21.3c3.4,8.7,9.8,14.9,16.6,20.8
		c7.9,7,16.8,12.6,26.1,17.7c0.6,0.3,1.4,0.8,2,1.1c3.4,2.5,3.6,3.6,1.1,7.3c-9.3,13.5-20.5,25-34.8,32.8c-2,1.1-2.2,2.2-2,4.2
		c2.2,19.6,4.2,39.3,4.5,58.9c0,5.6-1.1,10.7-3.9,15.4c-4.5,7.9-14.3,8.4-19.6,1.1c-5.6-7.9-8.7-17.1-12.1-26.1
		c-4.2-12.3-8.1-24.7-11.2-37.3c-0.6-2.5-1.7-3.4-4.2-3.4c-4.8,0.3-9.5,0.3-14.6-0.3c-3.1-0.3-3.1,0.8-3.1,3.4
		C106.7,420,106.7,424.8,106.7,429.9z"/>
	<path fill="#62AFB8" d="M417.3,363.4c-1.7,8.1-1.7,15.7-2.2,23.3c-1.1,17.4,0,34.5-0.8,51.9c-0.3,8.1-0.6,16.3-2.8,24.4
		c-3.1,12.1-13.7,16.8-23.6,10.4c-3.1-2.2-4.8-5.1-5.9-8.7c-3.4-11.8-4.8-23.9-5.9-36.2c-3.4-31.1-5.3-62.6-7-94
		c-1.1-19.4-2-39-2.5-58.4c0-2.2-1.1-3.4-2.8-4.5c-25-19.1-46.3-41.2-61.2-69.3c-2.8-5.1-4.5-10.4-5.3-16.3
		c-1.1-7.9,2-14.6,8.7-18.2c3.6-2,7.3-2,10.7,0.3c6.2,3.9,10.4,9.5,14.9,15.2c7.6,9.3,15.2,19.1,23.9,27.5
		c10.1,9.5,21,17.7,34.8,20.8c24.4,5.3,45.5-2,63.1-19.1c12.1-11.5,19.9-25.8,27.5-40.4c3.4-6.7,6.5-13.5,10.9-19.6
		c2-2.8,4.2-5.9,7.9-5.3c4.8,0.8,8.7,2.8,10.7,7.6c1.7,4.2,1.7,8.7,1.4,13.2c-2.5,35.4-17.7,64.5-42.7,89.2
		c-2.8,2.8-5.3,5.6-8.1,8.4c-1.7,1.7-2,3.4-2,5.3c1.4,37.3,1.7,74.6,0.8,112c-0.3,18.5-1.4,37-5.1,55.3c-1.1,6.2-2.8,12.3-5.9,18.2
		c-1.4,2.8-3.4,5.1-6.2,6.5c-6.7,3.6-12.6,1.7-15.7-5.6c-2.5-5.9-2.8-12.3-3.1-18.8c-2-23.9-3.6-47.7-5.6-71.3
		C418.2,366.2,418.2,365.1,417.3,363.4z"/>
	<path fill="#FABA50" d="M350.6,194.7c-6.5-7.9-12.9-15.7-19.4-23.6c-2-2.5-4.5-4.8-7-7c-10.7-9.5-21.3-5.6-29.2,3.6
		c-5.3,6.5-5.6,14.3-4.2,22.2c2.2,12.1,8.4,22.4,15.4,32.3c12.6,18,27.2,34,44.1,48c1.4,1.1,2,2.2,2,3.9c0,5.3,0,10.7,0,16.8
		c-1.7-4.2-3.9-7-7.3-9c-4.8-2.5-9.8-2.8-14.9,0c-7.3,3.9-13.5,9.5-20.2,14c-7,4.8-14,9-22.4,12.6c10.1-18.2,10.4-35.6-2.8-51.3
		c-13.2-15.7-30-18.8-49.7-12.3c1.4-8.4,1.7-16.8,1.7-25c0-10.4-0.3-20.8-1.7-31.1c-0.3-2.8-0.3-5.9,0-8.7c0.3-9-1.4-17.7-5.6-26.1
		c-1.7-3.1-3.9-4.2-7-4.5c-7.3-0.3-14.6-0.6-21.9-1.4c-20.8-2.2-41.5-5.6-61.5-12.1c-0.6-0.3-0.8-0.3-2-0.8c6.7-4.2,13.5-7,20.5-9.5
		c19.6-7,39.8-10.9,60.3-14.9c25.5-4.8,51.3-8.7,76.9-14.9c37.6-9.3,69.6-28.1,96-56.7c5.9-6.5,11.5-13.5,18.8-18.5
		c5.1-3.4,10.1-5.6,16.3-5.3c9,0.6,17.7,14.3,14.9,23.6s-7.6,17.4-12.9,25.5C414.5,84.5,398,101,380,116.7
		c-7.3,6.2-14.3,12.3-21,19.4c-5.6,5.9-8.7,12.3-8.1,20.8c0.6,11.8,0,23.3,0,35.1c0,0.8,0,2,0,2.8
		C351.1,194.7,350.8,194.7,350.6,194.7z"/>
	<path fill="#4DB84D" d="M345.8,297.1c-0.6,6.2-3.4,12.1-6.7,17.7c-6.7,11.2-15.7,20.2-26.7,27.8c-3.4,2.2-6.5,4.8-9.8,7
		c-1.7,1.1-2.2,2.5-2.2,4.5c0.3,12.9,0.3,25.5,0.8,38.4c1.4,25.5-0.8,50.8-1.4,76.3c-0.3,9.8-0.8,19.6-3.6,28.9
		c-1.4,5.3-3.9,10.4-10.1,12.1c-5.6,1.7-10.1-0.3-13.2-5.3c-3.9-7.3-4.5-15.2-5.1-23c-0.6-9.8-0.6-19.4-0.8-29.2
		c0-3.6-0.6-7.3-0.8-10.9c0-0.8,0-2-1.4-2c-1.1,0-1.7,0.8-2,1.7c-0.6,1.7-0.8,3.4-1.1,5.3c-0.8,10.7-1.4,21.3-2,32
		c-0.6,7.9-1.1,15.4-4.2,22.7c-2,4.8-4.5,8.4-9.5,10.1c-4.5,1.7-8.1,0.6-10.9-3.4c-4.2-5.6-5.3-12.3-6.5-19.4
		c-2-12.3-2.5-25-2.8-37.6c-0.6-19.9-0.8-39.6-1.4-59.5c-0.3-10.1-1.1-20.2-3.1-30.3c-0.3-2.2-1.4-3.4-3.4-4.2
		c-16-7.6-30.9-16.6-42.9-29.5c-4.2-4.5-8.1-9.5-8.1-16.6c0-6.7,2.8-9,9.3-7.3c7.9,2,14.6,6.2,21.9,9.5c18,8.7,37,12.9,57,11.5
		c17.4-1.4,33.4-7,48.3-16c9-5.3,17.1-11.8,25.8-17.7c0.8-0.6,1.7-1.1,2.5-1.7c3.1-2,6.2-2.5,9.5-0.6
		C345.2,290.4,345.8,293.5,345.8,297.1z"/>
	<path fill="#FABA50" d="M353.4,296c1.4,14,2.2,27.2,3.1,40.7c1.1,25,2,49.7,1.1,74.6c-0.6,18.8-1.7,37.3-5.3,55.8
		c-1.7,7.9-3.9,15.7-8.4,22.4c-3.6,5.1-8.7,7.6-14.9,8.4c-6.5,0.6-11.8-3.4-13.7-10.1c-1.7-5.9-2.2-12.1-2.5-18.2
		c-0.8-13.7-1.1-27.2-1.7-41c-0.6-16.8,0-33.7-1.1-50.5c-0.3-6.5-1.1-12.9-1.4-19.4c0-2.8,0.8-4.2,2.8-5.9c5.9-4.8,12.3-9,17.7-14.3
		C341.3,326.9,350.8,314,353.4,296z"/>
	<path fill="#FABA50" d="M219,43.8C219,19.6,238.6,0,263,0c24.1,0,43.8,19.9,43.8,44.3c0,24.1-19.9,43.8-44.1,43.8
		C238.3,87.8,219,68.2,219,43.8z"/>
	<path fill="#E83F45" d="M129.4,118.4c-22.4,0-40.7-18.2-40.7-40.7s18.2-40.4,40.7-40.4s40.4,18.2,40.4,40.4
		C169.9,100.2,151.6,118.4,129.4,118.4z"/>
	<path fill="#62AFB8" d="M437.5,189.7c0,19.6-15.7,35.4-35.6,35.1c-19.1,0-35.1-16-35.1-35.4c0-19.6,16-35.6,35.9-35.4
		C422.1,154,437.5,170,437.5,189.7z"/>
	<path fill="#4DB84D" d="M251.8,319.6c-18.5-0.3-34.8-14.6-35.1-35.4c0-20.2,16.3-35.9,36.5-35.4c18.8,0.3,34.2,15.4,34.2,34.8
		C287.7,304.2,271.7,319.9,251.8,319.6z"/>
</g>
</svg>
