<svg xmlns="http://www.w3.org/2000/svg" xmlns:xlink="http://www.w3.org/1999/xlink" viewBox="0 0 188.88 256"><defs><style>.cls-1{mask:url(#mask);filter:url(#luminosity-noclip-8);}.cls-10,.cls-12,.cls-14,.cls-19,.cls-2,.cls-30,.cls-31,.cls-4,.cls-40,.cls-6,.cls-65,.cls-71,.cls-8{mix-blend-mode:multiply;}.cls-2{fill:url(#linear-gradient);}.cls-3{mask:url(#mask-2);filter:url(#luminosity-noclip-13);}.cls-4{fill:url(#linear-gradient-2);}.cls-5{mask:url(#mask-3);filter:url(#luminosity-noclip-14);}.cls-6{fill:url(#linear-gradient-3);}.cls-7{mask:url(#mask-4);filter:url(#luminosity-noclip-9);}.cls-8{fill:url(#linear-gradient-4);}.cls-9{mask:url(#mask-5);filter:url(#luminosity-noclip-10);}.cls-10{fill:url(#linear-gradient-5);}.cls-11{mask:url(#mask-6);filter:url(#luminosity-noclip-11);}.cls-12{fill:url(#linear-gradient-6);}.cls-13{mask:url(#mask-7);filter:url(#luminosity-noclip-12);}.cls-14{fill:url(#linear-gradient-7);}.cls-15{fill:none;}.cls-16{isolation:isolate;}.cls-17{fill:url(#linear-gradient-8);}.cls-18{mask:url(#mask-8);}.cls-19{opacity:0.05;fill:url(#linear-gradient-9);}.cls-20{fill:#2b3443;}.cls-21{fill:url(#linear-gradient-10);}.cls-22{mask:url(#mask-9);}.cls-23,.cls-55,.cls-66{opacity:0.2;}.cls-23{fill:url(#linear-gradient-11);}.cls-24{fill:url(#linear-gradient-12);}.cls-25{fill:#c7cfe4;}.cls-26{fill:#e993b5;}.cls-27{fill:url(#linear-gradient-13);}.cls-28{fill:url(#linear-gradient-14);}.cls-29{fill:#c05668;}.cls-30{fill:#e1a3ca;}.cls-30,.cls-31,.cls-45,.cls-52,.cls-60,.cls-65,.cls-69{opacity:0.3;}.cls-31{fill:#955668;}.cls-32{opacity:0.9;}.cls-33{mask:url(#mask-10);}.cls-34{fill:url(#linear-gradient-15);}.cls-35{fill:url(#linear-gradient-16);}.cls-36{fill:#aba5cc;}.cls-37{clip-path:url(#clip-path);}.cls-38{fill:#e96599;}.cls-39{fill:url(#linear-gradient-17);}.cls-40,.cls-57{fill:#4b2c45;}.cls-40{opacity:0.15;}.cls-41{fill:#6fb41d;}.cls-42{fill:url(#linear-gradient-18);}.cls-43{fill:url(#linear-gradient-19);}.cls-44{fill:url(#linear-gradient-20);}.cls-45{fill:url(#linear-gradient-21);}.cls-46{fill:#283142;}.cls-47{fill:#132236;}.cls-48{fill:#5c7a9e;}.cls-49{fill:#a9bfd9;}.cls-50{fill:url(#linear-gradient-22);}.cls-51{mask:url(#mask-11);}.cls-52{fill:url(#linear-gradient-23);}.cls-53{fill:url(#linear-gradient-24);}.cls-54{mask:url(#mask-12);}.cls-55{fill:url(#linear-gradient-25);}.cls-56{fill:#6d7a8f;}.cls-58{fill:url(#linear-gradient-26);}.cls-59{mask:url(#mask-13);}.cls-60{fill:url(#linear-gradient-27);}.cls-61{fill:#98abc7;}.cls-62{fill:url(#linear-gradient-28);}.cls-63{fill:#cb245e;}.cls-63,.cls-71{opacity:0.1;}.cls-64{fill:#ff6e7d;}.cls-65{fill:#c7005b;}.cls-66{fill:#e8efff;}.cls-67{fill:#ebf0ff;}.cls-68{mask:url(#mask-14);}.cls-69{fill:url(#linear-gradient-29);}.cls-70{fill:#fff;opacity:0.5;}.cls-71{fill:#a54d5e;}.cls-72{filter:url(#luminosity-noclip-7);}.cls-73{filter:url(#luminosity-noclip-6);}.cls-74{filter:url(#luminosity-noclip-5);}.cls-75{filter:url(#luminosity-noclip-4);}.cls-76{filter:url(#luminosity-noclip-3);}.cls-77{filter:url(#luminosity-noclip-2);}.cls-78{filter:url(#luminosity-noclip);}</style><filter id="luminosity-noclip" x="100.73" y="-8189" width="27.77" height="32766" filterUnits="userSpaceOnUse" color-interpolation-filters="sRGB"><feFlood flood-color="#fff" result="bg"/><feBlend in="SourceGraphic" in2="bg"/></filter><mask id="mask" x="100.73" y="-8189" width="27.77" height="32766" maskUnits="userSpaceOnUse"><g class="cls-78"/></mask><linearGradient id="linear-gradient" x1="179.23" y1="225.99" x2="192.09" y2="245.56" gradientTransform="translate(-71.54)" gradientUnits="userSpaceOnUse"><stop offset="0" stop-color="gray"/><stop offset="1" stop-color="#fff"/></linearGradient><filter id="luminosity-noclip-2" x="37.1" y="-8189" width="21.74" height="32766" filterUnits="userSpaceOnUse" color-interpolation-filters="sRGB"><feFlood flood-color="#fff" result="bg"/><feBlend in="SourceGraphic" in2="bg"/></filter><mask id="mask-2" x="37.1" y="-8189" width="21.74" height="32766" maskUnits="userSpaceOnUse"><g class="cls-77"/></mask><linearGradient id="linear-gradient-2" x1="112.02" y1="78.76" x2="126.66" y2="92.57" gradientTransform="translate(-71.54)" gradientUnits="userSpaceOnUse"><stop offset="0" stop-color="#fff"/><stop offset="1"/></linearGradient><filter id="luminosity-noclip-3" x="48.97" y="-8189" width="72.72" height="32766" filterUnits="userSpaceOnUse" color-interpolation-filters="sRGB"><feFlood flood-color="#fff" result="bg"/><feBlend in="SourceGraphic" in2="bg"/></filter><mask id="mask-3" x="48.97" y="-8189" width="72.72" height="32766" maskUnits="userSpaceOnUse"><g class="cls-76"/></mask><linearGradient id="linear-gradient-3" x1="145.85" y1="80.3" x2="167.57" y2="118.6" gradientTransform="translate(-71.54)" gradientUnits="userSpaceOnUse"><stop offset="0.02" stop-color="#999"/><stop offset="1"/></linearGradient><filter id="luminosity-noclip-4" x="76.96" y="-8189" width="19" height="32766" filterUnits="userSpaceOnUse" color-interpolation-filters="sRGB"><feFlood flood-color="#fff" result="bg"/><feBlend in="SourceGraphic" in2="bg"/></filter><mask id="mask-4" x="76.96" y="-8189" width="19" height="32766" maskUnits="userSpaceOnUse"><g class="cls-75"/></mask><linearGradient id="linear-gradient-4" x1="149.78" y1="-197.08" x2="159.84" y2="-187.58" gradientTransform="translate(-103.31 196.02) rotate(10.69)" xlink:href="#linear-gradient-2"/><filter id="luminosity-noclip-5" x="18.61" y="-8189" width="148.46" height="32766" filterUnits="userSpaceOnUse" color-interpolation-filters="sRGB"><feFlood flood-color="#fff" result="bg"/><feBlend in="SourceGraphic" in2="bg"/></filter><mask id="mask-5" x="18.61" y="-8189" width="148.46" height="32766" maskUnits="userSpaceOnUse"><g class="cls-74"/></mask><linearGradient id="linear-gradient-5" x1="90.16" y1="144.37" x2="238.61" y2="144.37" gradientTransform="translate(-71.54)" gradientUnits="userSpaceOnUse"><stop offset="0" stop-color="gray"/><stop offset="1" stop-color="#333"/></linearGradient><filter id="luminosity-noclip-6" x="33.01" y="-8189" width="90.25" height="32766" filterUnits="userSpaceOnUse" color-interpolation-filters="sRGB"><feFlood flood-color="#fff" result="bg"/><feBlend in="SourceGraphic" in2="bg"/></filter><mask id="mask-6" x="33.01" y="-8189" width="90.25" height="32766" maskUnits="userSpaceOnUse"><g class="cls-73"/></mask><linearGradient id="linear-gradient-6" x1="178.49" y1="155.06" x2="122.36" y2="87.56" gradientTransform="translate(-71.54)" gradientUnits="userSpaceOnUse"><stop offset="0" stop-color="gray"/><stop offset="1" stop-color="#4d4d4d"/></linearGradient><filter id="luminosity-noclip-7" x="54.99" y="-8189" width="21.89" height="32766" filterUnits="userSpaceOnUse" color-interpolation-filters="sRGB"><feFlood flood-color="#fff" result="bg"/><feBlend in="SourceGraphic" in2="bg"/></filter><mask id="mask-7" x="54.99" y="-8189" width="21.89" height="32766" maskUnits="userSpaceOnUse"><g class="cls-72"/></mask><linearGradient id="linear-gradient-7" x1="129.54" y1="59.49" x2="142.11" y2="71.35" xlink:href="#linear-gradient-2"/><linearGradient id="linear-gradient-8" x1="133.24" y1="237.75" x2="200.05" y2="237.75" gradientTransform="translate(-71.54)" gradientUnits="userSpaceOnUse"><stop offset="0" stop-color="#dfe8ff"/><stop offset="1" stop-color="#c7cfe4"/></linearGradient><filter id="luminosity-noclip-8" x="100.73" y="222.29" width="27.77" height="29.03" filterUnits="userSpaceOnUse" color-interpolation-filters="sRGB"><feFlood flood-color="#fff" result="bg"/><feBlend in="SourceGraphic" in2="bg"/></filter><mask id="mask-8" x="100.73" y="222.29" width="27.77" height="29.03" maskUnits="userSpaceOnUse"><g class="cls-1"><path class="cls-2" d="M102.26,223.64c7.82,7.18,11.85,17.35,13.2,27.68a57.59,57.59,0,0,0,13-4.61,35.4,35.4,0,0,0-27.78-24.42Q101.51,223,102.26,223.64Z"/></g></mask><linearGradient id="linear-gradient-9" x1="179.23" y1="225.99" x2="192.09" y2="245.56" gradientTransform="translate(-71.54)" gradientUnits="userSpaceOnUse"><stop offset="0" stop-color="#a54d5e"/><stop offset="1" stop-color="#a54d5e"/></linearGradient><linearGradient id="linear-gradient-10" x1="-267.91" y1="162.24" x2="-261.13" y2="190.02" gradientTransform="translate(308.64 -186.53) rotate(-13.92)" gradientUnits="userSpaceOnUse"><stop offset="0" stop-color="#704760"/><stop offset="1" stop-color="#514c65"/></linearGradient><filter id="luminosity-noclip-9" x="76.96" y="28.11" width="19" height="20.1" filterUnits="userSpaceOnUse" color-interpolation-filters="sRGB"><feFlood flood-color="#fff" result="bg"/><feBlend in="SourceGraphic" in2="bg"/></filter><mask id="mask-9" x="76.96" y="28.11" width="19" height="20.1" maskUnits="userSpaceOnUse"><g class="cls-7"><path class="cls-8" d="M92.66,29.09c-4.07-2.6-9.84.43-12.63,3.78-3.26,3.94-4.34,10.66-1.17,13.66,3.65,3.46,12.27,1.33,15.51-4.22C96.74,38.27,96.69,31.66,92.66,29.09Z"/></g></mask><linearGradient id="linear-gradient-11" x1="149.78" y1="-197.08" x2="159.84" y2="-187.58" gradientTransform="translate(-103.31 196.02) rotate(10.69)" gradientUnits="userSpaceOnUse"><stop offset="0" stop-color="#a9bfd9"/><stop offset="1" stop-color="#a9bfd9"/></linearGradient><linearGradient id="linear-gradient-12" x1="165.61" y1="227.15" x2="165.61" y2="197.2" xlink:href="#linear-gradient-8"/><linearGradient id="linear-gradient-13" x1="90.12" y1="149.64" x2="211.88" y2="131.21" xlink:href="#linear-gradient-8"/><linearGradient id="linear-gradient-14" x1="255.14" y1="144.83" x2="31.41" y2="144.83" gradientTransform="translate(-71.54)" gradientUnits="userSpaceOnUse"><stop offset="0.16" stop-color="#e96599"/><stop offset="1" stop-color="#ffb1d3"/></linearGradient><filter id="luminosity-noclip-10" x="18.61" y="113.25" width="148.46" height="62.23" filterUnits="userSpaceOnUse" color-interpolation-filters="sRGB"><feFlood flood-color="#fff" result="bg"/><feBlend in="SourceGraphic" in2="bg"/></filter><mask id="mask-10" x="18.61" y="113.25" width="148.46" height="62.23" maskUnits="userSpaceOnUse"><g class="cls-9"><path class="cls-10" d="M18.76,113.25s-3.54,24.26,24.18,47.22c28.1,23.28,80.78,16,100.58,1.56,13.75-10.05,23.17-31.6,23.55-48.42Z"/></g></mask><linearGradient id="linear-gradient-15" x1="90.16" y1="144.37" x2="238.61" y2="144.37" gradientTransform="translate(-71.54)" gradientUnits="userSpaceOnUse"><stop offset="0" stop-color="#e8efff"/><stop offset="1" stop-color="#e8efff"/></linearGradient><linearGradient id="linear-gradient-16" x1="134.13" y1="153.95" x2="159.58" y2="119.2" gradientTransform="translate(-71.54)" gradientUnits="userSpaceOnUse"><stop offset="0" stop-color="#e8efff"/><stop offset="1" stop-color="#dfe8ff"/></linearGradient><clipPath id="clip-path"><path class="cls-15" d="M178.23,110.34c0,16.88-38.28,28.61-85.5,28.61s-85.5-11.73-85.5-28.61S-30.42,11.87,92.73,11.2C200.21,10.62,194.32,91.8,178.23,110.34Z"/></clipPath><linearGradient id="linear-gradient-17" x1="195.11" y1="82.81" x2="226.15" y2="39.48" gradientTransform="translate(-71.54)" gradientUnits="userSpaceOnUse"><stop offset="0.16" stop-color="#e96599"/><stop offset="0.27" stop-color="#ec6fa0"/><stop offset="1" stop-color="#ffb1d3"/></linearGradient><linearGradient id="linear-gradient-18" x1="329.19" y1="-64.19" x2="359.64" y2="-64.19" gradientTransform="translate(-205.43 105.46) rotate(8.91)" gradientUnits="userSpaceOnUse"><stop offset="0" stop-color="#6fb41d"/><stop offset="0.19" stop-color="#6bae1e"/><stop offset="0.46" stop-color="#619c21"/><stop offset="0.78" stop-color="#507e27"/><stop offset="1" stop-color="#42652b"/></linearGradient><linearGradient id="linear-gradient-19" x1="504.05" y1="-1489.22" x2="539.76" y2="-1489.22" gradientTransform="translate(-1394.71 -111.73) rotate(78.56)" xlink:href="#linear-gradient-18"/><linearGradient id="linear-gradient-20" x1="217.69" y1="94.52" x2="226.09" y2="120.47" gradientTransform="translate(-71.54)" gradientUnits="userSpaceOnUse"><stop offset="0" stop-color="#616b8e"/><stop offset="0.65" stop-color="#404d68"/><stop offset="1" stop-color="#2e3d54"/></linearGradient><linearGradient id="linear-gradient-21" x1="214.42" y1="108.36" x2="228.32" y2="120.6" gradientTransform="translate(-71.54)" gradientUnits="userSpaceOnUse"><stop offset="0" stop-color="#87a0bd"/><stop offset="1" stop-color="#2e3d54"/></linearGradient><linearGradient id="linear-gradient-22" x1="157.25" y1="125.38" x2="103.11" y2="48.55" gradientTransform="translate(-72.45)" gradientUnits="userSpaceOnUse"><stop offset="0.18" stop-color="#e96599"/><stop offset="1" stop-color="#ffb1d3"/></linearGradient><filter id="luminosity-noclip-11" x="33.01" y="74.21" width="90.25" height="92.41" filterUnits="userSpaceOnUse" color-interpolation-filters="sRGB"><feFlood flood-color="#fff" result="bg"/><feBlend in="SourceGraphic" in2="bg"/></filter><mask id="mask-11" x="33.01" y="74.21" width="90.25" height="92.41" maskUnits="userSpaceOnUse"><g class="cls-11"><ellipse class="cls-12" cx="78.14" cy="120.42" rx="45.13" ry="46.21"/></g></mask><linearGradient id="linear-gradient-23" x1="178.49" y1="155.06" x2="122.36" y2="87.56" gradientTransform="translate(-71.54)" gradientUnits="userSpaceOnUse"><stop offset="0" stop-color="#4b2c45"/><stop offset="1" stop-color="#4b2c45"/></linearGradient><linearGradient id="linear-gradient-24" x1="130.74" y1="54.22" x2="146.06" y2="80.54" gradientTransform="translate(-71.54)" gradientUnits="userSpaceOnUse"><stop offset="0" stop-color="#4b2c45"/><stop offset="1" stop-color="#2b3443"/></linearGradient><filter id="luminosity-noclip-12" x="54.99" y="56.37" width="21.89" height="21.02" filterUnits="userSpaceOnUse" color-interpolation-filters="sRGB"><feFlood flood-color="#fff" result="bg"/><feBlend in="SourceGraphic" in2="bg"/></filter><mask id="mask-12" x="54.99" y="56.37" width="21.89" height="21.02" maskUnits="userSpaceOnUse"><g class="cls-13"><path class="cls-14" d="M61.38,58.67C55.81,62.33,53,71,56.55,75.05c3.32,3.82,11.56,2.74,16-1.6,3.79-3.67,6-10.79,2.57-14.69C71.92,55.1,65.28,56.11,61.38,58.67Z"/></g></mask><linearGradient id="linear-gradient-25" x1="129.54" y1="59.49" x2="142.11" y2="71.35" gradientTransform="translate(-71.54)" xlink:href="#linear-gradient-11"/><linearGradient id="linear-gradient-26" x1="110.75" y1="80.07" x2="141.46" y2="104.83" xlink:href="#linear-gradient-20"/><filter id="luminosity-noclip-13" x="37.1" y="75.26" width="21.74" height="21.12" filterUnits="userSpaceOnUse" color-interpolation-filters="sRGB"><feFlood flood-color="#fff" result="bg"/><feBlend in="SourceGraphic" in2="bg"/></filter><mask id="mask-13" x="37.1" y="75.26" width="21.74" height="21.12" maskUnits="userSpaceOnUse"><g class="cls-3"><path class="cls-4" d="M43.18,78.37c-5.08,3.85-8,12-4.68,15.84,3.12,3.62,11,2.47,15.51-1.54S60.57,80.55,57,77C53.81,73.83,47.08,75.41,43.18,78.37Z"/></g></mask><linearGradient id="linear-gradient-27" x1="112.02" y1="78.76" x2="126.66" y2="92.57" gradientTransform="translate(-71.54)" xlink:href="#linear-gradient-11"/><linearGradient id="linear-gradient-28" x1="198.1" y1="161.66" x2="134.79" y2="85.52" gradientTransform="translate(-72.45)" gradientUnits="userSpaceOnUse"><stop offset="0.16" stop-color="#e96599"/><stop offset="1" stop-color="#ffc2dc"/></linearGradient><filter id="luminosity-noclip-14" x="48.97" y="75.53" width="72.72" height="49.61" filterUnits="userSpaceOnUse" color-interpolation-filters="sRGB"><feFlood flood-color="#fff" result="bg"/><feBlend in="SourceGraphic" in2="bg"/></filter><mask id="mask-14" x="48.97" y="75.53" width="72.72" height="49.61" maskUnits="userSpaceOnUse"><g class="cls-5"><path id="_Path_" data-name="&lt;Path&gt;" class="cls-6" d="M64.68,84.42c-8.16,5.9-18.36,18.13-15.08,27.87,4.08,12.08,27.53,16.2,44.28,10,17-6.32,31.3-24.85,27.06-35.49C115.91,74.11,83.85,70.56,64.68,84.42Z"/></g></mask><linearGradient id="linear-gradient-29" x1="145.85" y1="80.3" x2="167.57" y2="118.6" gradientTransform="translate(-71.54)" gradientUnits="userSpaceOnUse"><stop offset="0.02" stop-color="#fff"/><stop offset="1" stop-color="#fff"/></linearGradient></defs><title>Artboard 11</title><g class="cls-16"><g id="Layer_1" data-name="Layer 1"><path class="cls-17" d="M61.7,246.71a34.86,34.86,0,0,1,66.81,0c-6.44,3.37-18.6,7-34.1,7C82,253.7,68.83,251.07,61.7,246.71Z"/><g class="cls-18"><path class="cls-19" d="M102.26,223.64c7.82,7.18,11.85,17.35,13.2,27.68a57.59,57.59,0,0,0,13-4.61,35.4,35.4,0,0,0-27.78-24.42Q101.51,223,102.26,223.64Z"/></g><path class="cls-20" d="M99.05,26.78s.67-4.07-1-4.72c-1.44-.57-3.31,3.39-3.31,3.39-1.23-1.66-3.12-2.74-4.06-2s0,3.31.75,4.06c-1.56,1.15-2.09,2.74-1.53,3.65.66,1.08,2.35,1.38,4,.83.22,1.61,1.58,3.35,2.86,3.14,2.13-.36,1.94-3.64,1.94-3.64s5.32-2.52,5-4.37C103.34,24.47,99.05,26.78,99.05,26.78Z"/><path class="cls-21" d="M99.13,28.23c-5.84-3.3-13.82-3.54-19.65,1.38-4.14,3.48-5.64,9.16-4.82,14.36,1.62,10.34,14,15,23.49,10.13,6.06-3.11,8-6.89,8.77-11.75C107.83,36.48,104.13,31.06,99.13,28.23Z"/><g class="cls-22"><path class="cls-23" d="M92.66,29.09c-4.07-2.6-9.84.43-12.63,3.78-3.26,3.94-4.34,10.66-1.17,13.66,3.65,3.46,12.27,1.33,15.51-4.22C96.74,38.27,96.69,31.66,92.66,29.09Z"/></g><path class="cls-24" d="M88.62,195.53s1.95,14.53,2.51,31.86l6.71.28s-.28-22.36,1.68-32.42Z"/><path class="cls-25" d="M45.29,157.51a48,48,0,0,0,95.6.56Z"/><path class="cls-26" d="M52.51,166.93s10.22,30.31,41.65,29.73c30.29-.55,40.26-29.73,40.26-29.73Z"/><path class="cls-27" d="M2,112.73s-4.33,24.67,29.66,48c34.48,23.67,99.1,16.3,123.39,1.58,16.87-10.22,28.41-32.12,28.88-49.22Z"/><path class="cls-28" d="M8.05,119.43S14.64,172,95,171.36c80.13-.66,81.63-53.06,81.63-53.06Z"/><path id="_Path_2" data-name="&lt;Path&gt;" class="cls-29" d="M38.53,142.73a5.85,5.85,0,0,0-3.15-.07,1.24,1.24,0,0,0,0,2.3,9.78,9.78,0,0,0,2.83.29A1.27,1.27,0,0,0,38.53,142.73Z"/><path id="_Path_3" data-name="&lt;Path&gt;" class="cls-30" d="M63.93,150.94c.8-2.08,5.34.74,4.35,2.41S63.26,152.69,63.93,150.94Z"/><path id="_Path_4" data-name="&lt;Path&gt;" class="cls-30" d="M51,154.8c-2,1.69,1.35,6.16,3.84,4.48S53.13,153,51,154.8Z"/><path id="_Path_5" data-name="&lt;Path&gt;" class="cls-30" d="M95.51,149.88a3.2,3.2,0,0,0-1.59-.84,1.9,1.9,0,0,0-2.28,1.3c-.31,1.14,2.47,3,3.11,3a1.6,1.6,0,0,0,1.57-1.2A2.33,2.33,0,0,0,95.51,149.88Z"/><path id="_Path_6" data-name="&lt;Path&gt;" class="cls-29" d="M100.1,161.71a1.2,1.2,0,0,0-1.31-.53,4.39,4.39,0,0,0-1.86,1.11,1.27,1.27,0,0,0-.2,1.55,1.29,1.29,0,0,0,1.76.46,5.49,5.49,0,0,0,1.61-1.42A1.17,1.17,0,0,0,100.1,161.71Z"/><path id="_Path_7" data-name="&lt;Path&gt;" class="cls-31" d="M142.39,151.48a3.5,3.5,0,0,0-.75-.58,2.14,2.14,0,0,0-1.59-.14,1.55,1.55,0,0,0-1.08,1.08c-.47,1.73,2.18,3.25,3.43,2A1.68,1.68,0,0,0,142.39,151.48Z"/><path id="_Path_8" data-name="&lt;Path&gt;" class="cls-30" d="M125,149.25a1.48,1.48,0,0,0-2.27-.18c-.38.41-.83,2.46,0,3.26a1.06,1.06,0,0,0,.84.22C124.78,152.38,125.4,150,125,149.25Z"/><path id="_Path_9" data-name="&lt;Path&gt;" class="cls-29" d="M131.47,158.38a3.74,3.74,0,0,0-3.09-.13c-1,.55-1.11,2.31-.08,2.76a6.58,6.58,0,0,0,2.33.51A1.69,1.69,0,0,0,131.47,158.38Z"/><g class="cls-32"><g class="cls-33"><path class="cls-34" d="M18.76,113.25s-3.54,24.26,24.18,47.22c28.1,23.28,80.78,16,100.58,1.56,13.75-10.05,23.17-31.6,23.55-48.42Z"/></g></g><path class="cls-35" d="M184.1,112.73c0,19.69-40.13,31.52-91.37,31.52s-91-11.83-91-31.52,39.78-35.64,91-35.64S184.1,93.05,184.1,112.73Z"/><path class="cls-36" d="M178.23,110.34c0,16.88-38.28,28.61-85.5,28.61s-85.5-11.73-85.5-28.61,38.28-30.57,85.5-30.57S178.23,93.45,178.23,110.34Z"/><g class="cls-37"><ellipse class="cls-38" cx="93.36" cy="117.91" rx="82.12" ry="27.28"/><path class="cls-39" d="M119.22,30.27c-24.64,2.81-46,24.6-46,50.16C73.12,110.74,103,135.14,132.49,131c24.73-3.49,46.24-26.7,44.48-53.74C175.08,47.92,146.67,27.14,119.22,30.27Z"/><path class="cls-40" d="M147.57,114c-.44-27.26-22.29-45.61-47.21-45.61S55.24,89,55.24,114.56s20.2,46.2,45.12,46.2S148,139.48,147.57,114Z"/><path class="cls-41" d="M140.09,64.8s-20.1,31,4.08,56.53l13-6.57S155.28,81.8,140.09,64.8Z"/><path class="cls-42" d="M143.44,69.09c2.57,11.52,5.31,28.18-7.73,40.85a75.62,75.62,0,0,0,8.46,11.39l13-6.57S155.56,86.78,143.44,69.09Z"/><path class="cls-41" d="M187.31,84.21s-44.51-3.85-37.64,35.69L161.08,124a88.89,88.89,0,0,0,14.15-18.82C181.09,94.65,187.31,84.21,187.31,84.21Z"/><path class="cls-43" d="M175.23,105.22c4.6-8.3,9.43-16.52,11.29-19.67-8.32,8.93-22.75,24.67-36.28,22.72-1,4.21-1.63,5.52-.57,11.63L161.08,124A88.89,88.89,0,0,0,175.23,105.22Z"/><path class="cls-44" d="M140.94,108.87c-5,6.44-3.23,16.17,2.81,21.4,6.5,5.63,17.29,5.44,22.9-1.53,5.27-6.55,3.57-16.12-2.12-21.66C157.53,100.27,147.35,100.6,140.94,108.87Z"/><path class="cls-45" d="M141.08,120.93c2.59,2.52,9.19.66,12.63-3.23,3.19-3.61,4.55-10,1.76-12.41-2.62-2.27-8.09-.3-11.13,2.46C140.33,111.38,138.39,118.33,141.08,120.93Z"/><path class="cls-46" d="M164.56,114s1.38-3.26-.67-5-3.51,1.81-3.51,1.81c-1-2.2-3.32-3.11-4.28-2.44s-1.17,3.08.28,4.88a3.5,3.5,0,0,0-1.83,3.88,3.33,3.33,0,0,0,3.75,1.9c0,1.92,1.14,4.25,2.38,4.29,2,.08,2.22-3.77,2.22-3.77s3.89,2.47,4.61-.52S164.56,114,164.56,114Z"/><path class="cls-47" d="M159.09,115.24a.82.82,0,0,0,.86,1.33.74.74,0,0,0,.15-.92C159.91,115.28,159.39,115,159.09,115.24Z"/><path class="cls-48" d="M158.16,119.15c0,1.92,1.28,4.06,2.52,4.1a1.43,1.43,0,0,0,.56-.09c-2.49-.31-2.68-4.53-2.68-4.53s-2.64.32-3.66-1.55c-1.1-2,1.72-3.89,1.72-3.89-1.38-2.18-1.2-3.5-.88-4.46a3.93,3.93,0,0,0,.39,4.35,3.52,3.52,0,0,0-1.87,4.07A3.59,3.59,0,0,0,158.16,119.15Z"/><path class="cls-49" d="M140.24,114.69c-1.33-.25,1-5.08,2.08-4.55S141.55,114.93,140.24,114.69Z"/><path class="cls-50" d="M53,38.56C28.34,41.36,7,63.15,6.94,88.71,6.88,119,36.8,143.43,66.26,139.27c24.73-3.49,46.23-26.7,44.48-53.74C108.84,56.21,80.44,35.43,53,38.56Z"/><g class="cls-51"><ellipse class="cls-52" cx="78.14" cy="120.42" rx="45.13" ry="46.21"/></g><path class="cls-53" d="M67.24,54.1A17.27,17.27,0,0,0,52.57,74c1.35,7.54,9.08,13.13,17.28,12.51a16.38,16.38,0,0,0,6.07-31.05A16.32,16.32,0,0,0,67.24,54.1Z"/><g class="cls-54"><path class="cls-55" d="M61.38,58.67C55.81,62.33,53,71,56.55,75.05c3.32,3.82,11.56,2.74,16-1.6,3.79-3.67,6-10.79,2.57-14.69C71.92,55.1,65.28,56.11,61.38,58.67Z"/></g><path class="cls-56" d="M58.63,61.12c-1.21-.86,3.35-4.57,4.15-3.56S59.82,62,58.63,61.12Z"/><path class="cls-56" d="M57.83,63.72a1,1,0,1,1-1-1.09A1.06,1.06,0,0,1,57.83,63.72Z"/><path class="cls-57" d="M39.31,77.05s-3.82-2.3-5.13-.9c-1.15,1.22,2.09,4.67,2.09,4.67-2.16.58-4,2.05-3.6,3.29S36,85.44,37,85c.54,2,1.92,3.19,3.06,3,1.35-.24,2.32-1.81,2.45-3.74,1.71.42,4-.25,4.29-1.63.49-2.28-2.88-3.39-2.88-3.39s-.42-6.36-2.4-6.78C38.7,71.81,39.31,77.05,39.31,77.05Z"/><path class="cls-58" d="M50.22,73.18C40.72,74.29,33.61,84.52,35,93.81c1.22,7.91,8.46,13.8,17.88,12.94,10-.92,15.65-11.39,15.34-18.27C67.91,80.8,61.4,71.89,50.22,73.18Z"/><g class="cls-59"><path class="cls-60" d="M43.18,78.37c-5.08,3.85-8,12-4.68,15.84,3.12,3.62,11,2.47,15.51-1.54S60.57,80.55,57,77C53.81,73.83,47.08,75.41,43.18,78.37Z"/></g><path class="cls-61" d="M41.68,79.89C40.53,79,44.52,76,45.27,77S42.81,80.73,41.68,79.89Z"/><path class="cls-61" d="M40.69,82.53a1,1,0,0,1-1,1,1.07,1.07,0,0,1,.18-2.12A1,1,0,0,1,40.69,82.53Z"/><path class="cls-62" d="M86.71,72.07c-25.14,2.82-46.92,24.6-47,50.16-.06,30.31,30.45,54.71,60.51,50.56,25.23-3.49,48.25-24.49,45.38-53.75S116.75,68.7,86.71,72.07Z"/><path class="cls-63" d="M142.13,104.61c-6.27,10.07-26,29.62-57.7,30.82-16.8.51-38.19-6.35-44.59-16.15-.06,1-.1,2-.1,3-.06,30.31,30.45,54.71,60.51,50.56,25.23-3.49,48.25-24.49,45.38-53.75A52.83,52.83,0,0,0,142.13,104.61Z"/></g><path id="_Path_10" data-name="&lt;Path&gt;" class="cls-64" d="M18,65.49c5.51-9.41,20.84-21.3,33.31-23.34L43.47,27.62c-4.57,2.26-9.31,4.87-13.78,7.49C16.54,13.22,9-.6,4.43,2.82.33,5.91,8.1,17.88,20.11,40.91,12.82,45.47,7.68,49,7.68,49S16.53,64,18,65.49Z"/><path id="_Path_11" data-name="&lt;Path&gt;" class="cls-65" d="M51.26,42.15,43.47,27.62c-4.57,2.26-9.31,4.87-13.78,7.49C17,14,9.48.35,4.9,2.54,17.78,16.91,34,43.67,24.91,51.42c-4.24,3.65-11.85,2.63-15.17,1.06,2.71,4.52,7.23,12,8.21,13C23.46,56.08,38.79,44.19,51.26,42.15Z"/><path class="cls-66" d="M62.11,175.88s6.71,17.39,31.21,18c0,0-17.87-3-24.76-16.85C68.56,177,63.72,176.34,62.11,175.88Z"/><path class="cls-67" d="M65.37,245.46s5.4-15.88,17.81-19.21c0,0-8.78,4.54-14.33,20.78C68.85,247,66.7,246.18,65.37,245.46Z"/><g class="cls-68"><path id="_Path_12" data-name="&lt;Path&gt;" class="cls-69" d="M64.68,84.42c-8.16,5.9-18.36,18.13-15.08,27.87,4.08,12.08,27.53,16.2,44.28,10,17-6.32,31.3-24.85,27.06-35.49C115.91,74.11,83.85,70.56,64.68,84.42Z"/></g><path id="_Path_13" data-name="&lt;Path&gt;" class="cls-29" d="M45.26,61.16a5.85,5.85,0,0,0-3.15-.07,1.24,1.24,0,0,0,0,2.3,9.78,9.78,0,0,0,2.83.29A1.27,1.27,0,0,0,45.26,61.16Z"/><path id="_Path_14" data-name="&lt;Path&gt;" class="cls-31" d="M60.52,47.36a1.33,1.33,0,0,0-1-1.39,4.22,4.22,0,0,0-3.76,2.2,1.41,1.41,0,0,0,.87,1.66C57.86,50.2,60.25,48.6,60.52,47.36Z"/><path id="_Path_15" data-name="&lt;Path&gt;" class="cls-29" d="M13.33,95.89a1.38,1.38,0,0,0,1.54.62,5.18,5.18,0,0,0,2.19-1.3,1.48,1.48,0,0,0,.23-1.83,1.51,1.51,0,0,0-2.07-.54,6.52,6.52,0,0,0-1.9,1.68A1.35,1.35,0,0,0,13.33,95.89Z"/><path id="_Path_16" data-name="&lt;Path&gt;" class="cls-31" d="M26.42,109.56a4.66,4.66,0,0,0,1,.75,2.83,2.83,0,0,0,2.06.18,2,2,0,0,0,1.39-1.4c.61-2.24-2.81-4.19-4.43-2.56A2.15,2.15,0,0,0,26.42,109.56Z"/><path id="_Path_17" data-name="&lt;Path&gt;" class="cls-30" d="M14.73,76.16c.8-2.08,5.34.74,4.35,2.42S14.06,77.91,14.73,76.16Z"/><path id="_Path_18" data-name="&lt;Path&gt;" class="cls-30" d="M27.93,64.66c-2,1.69,1.35,6.16,3.84,4.49S30.08,62.83,27.93,64.66Z"/><path id="_Path_19" data-name="&lt;Path&gt;" class="cls-30" d="M97,111.2a3.14,3.14,0,0,0-1.59-.83,1.88,1.88,0,0,0-2.27,1.3c-.31,1.13,2.47,3,3.11,3a1.62,1.62,0,0,0,1.57-1.21A2.35,2.35,0,0,0,97,111.2Z"/><path id="_Path_20" data-name="&lt;Path&gt;" class="cls-30" d="M82.75,120.8a3.94,3.94,0,0,0-1-1.71,2.25,2.25,0,0,0-2.34-.59c-2.68.75-1.25,5.11,1.14,5.22a2.38,2.38,0,0,0,1.63-.68A2.29,2.29,0,0,0,82.75,120.8Z"/><path id="_Path_21" data-name="&lt;Path&gt;" class="cls-29" d="M134.82,125.9a4,4,0,0,0-2.32-.66,1.78,1.78,0,0,0-1.68,1.16,1.54,1.54,0,0,0,.81,1.78,11.76,11.76,0,0,0,1.81.7,1.9,1.9,0,0,0,2-.76A1.56,1.56,0,0,0,134.82,125.9Z"/><path id="_Path_22" data-name="&lt;Path&gt;" class="cls-29" d="M118.5,110.8a1.2,1.2,0,0,0-1.31-.53,4.45,4.45,0,0,0-1.86,1.11,1.27,1.27,0,0,0-.2,1.55,1.29,1.29,0,0,0,1.76.46A5.49,5.49,0,0,0,118.5,112,1.17,1.17,0,0,0,118.5,110.8Z"/><path id="_Path_23" data-name="&lt;Path&gt;" class="cls-31" d="M102.67,128.91a3.23,3.23,0,0,0-.75-.57,2.14,2.14,0,0,0-1.59-.14,1.53,1.53,0,0,0-1.08,1.08c-.47,1.73,2.18,3.24,3.43,2A1.68,1.68,0,0,0,102.67,128.91Z"/><path id="_Path_24" data-name="&lt;Path&gt;" class="cls-29" d="M54.81,118a1.55,1.55,0,0,0-1.3,1.29,5.63,5.63,0,0,0,.37,2.8,1.63,1.63,0,0,0,1.75,1,1.66,1.66,0,0,0,1.44-1.86,6.9,6.9,0,0,0-.87-2.66A1.49,1.49,0,0,0,54.81,118Z"/><path id="_Path_25" data-name="&lt;Path&gt;" class="cls-31" d="M121.92,92.49a1.41,1.41,0,0,0-2,1.58c.35,1.2,1.46,3.81,3.13,2.83S123.18,93.13,121.92,92.49Z"/><g id="_Group_" data-name="&lt;Group&gt;"><path id="_Path_26" data-name="&lt;Path&gt;" class="cls-30" d="M115.08,56a4.26,4.26,0,0,0-1.58,1.28,1.63,1.63,0,0,0,1.71,2.45,5.89,5.89,0,0,0,1.46-.62c.65-.37,1.37-.7,1.53-1.52a1.58,1.58,0,0,0-.64-1.78A2.39,2.39,0,0,0,115.08,56Z"/><path id="_Path_27" data-name="&lt;Path&gt;" class="cls-30" d="M140.33,50.83a1.47,1.47,0,0,0-2.27-.18c-.38.41-.82,2.46,0,3.25a1,1,0,0,0,.83.23C140.12,54,140.75,51.54,140.33,50.83Z"/><path id="_Path_28" data-name="&lt;Path&gt;" class="cls-30" d="M130.21,35.13a1.68,1.68,0,0,0-1.5,1.58,3.5,3.5,0,0,0,1.73,2.47c1,.35,2.36-.13,2.28-1.34C132.66,36.84,131.77,35.12,130.21,35.13Z"/><path id="_Path_29" data-name="&lt;Path&gt;" class="cls-30" d="M153.82,70.31a1.63,1.63,0,0,0-1.2-1.07,2.36,2.36,0,0,0-1.29.09,1.46,1.46,0,0,0-1,1.82C150.86,72.68,154.51,72.05,153.82,70.31Z"/><path id="_Path_30" data-name="&lt;Path&gt;" class="cls-29" d="M133.56,62.81a3.74,3.74,0,0,0-3.09-.13c-1,.55-1.11,2.31-.08,2.76a6.58,6.58,0,0,0,2.33.51A1.69,1.69,0,0,0,133.56,62.81Z"/><path id="_Path_31" data-name="&lt;Path&gt;" class="cls-29" d="M169.81,76.12A2.42,2.42,0,0,0,167.13,75a4.09,4.09,0,0,0-2,1.07,2.25,2.25,0,0,0,1,3.73,3.43,3.43,0,0,0,3.3-.85A2.37,2.37,0,0,0,169.81,76.12Z"/><path id="_Path_32" data-name="&lt;Path&gt;" class="cls-31" d="M116.71,44a2.47,2.47,0,0,0-3.37-1.81c-2.92,1-1.89,4,.74,4.32C116.25,46.78,117,45.3,116.71,44Z"/><path id="_Path_33" data-name="&lt;Path&gt;" class="cls-31" d="M162.55,56.18a1.31,1.31,0,0,0-1-1.39A4.2,4.2,0,0,0,157.84,57a1.42,1.42,0,0,0,.86,1.67C159.9,59,162.29,57.42,162.55,56.18Z"/></g><path id="_Path_34" data-name="&lt;Path&gt;" class="cls-70" d="M65.84,93.6c-1.12-1.58-4.07-1.17-6.51,1.24-2.28,2.26-3.16,5.35-2.44,7,.9,2,4.26,1.73,6.87-.93C66.06,98.55,67,95.19,65.84,93.6Z"/><path class="cls-70" d="M73.86,88.25a2.48,2.48,0,1,1-2.48-2.47A2.47,2.47,0,0,1,73.86,88.25Z"/><path class="cls-71" d="M84.34,253.14a91.44,91.44,0,0,0,10.07.56c15.5,0,27.66-3.62,34.1-7a35.62,35.62,0,0,0-4.31-9.08C118.41,244.15,106,251.16,84.34,253.14Z"/></g></g></svg>