<svg xmlns="http://www.w3.org/2000/svg" width="600" height="600" viewBox="0 0 600 600">
  <title>Icon 10</title>
  <g>
    <path d="M525.27,90.7H230.13a.22.22,0,0,1,.01.08H167.51l.08-.08h-2.22a7.828,7.828,0,0,0-7.8,8.51l4.11,47.98,1.72,20.02.35,4.14.35,4.11.48,5.57.35,4.1.35,4.11,34.24,399.47a7.827,7.827,0,0,0,7.8,7.17H483.31a7.827,7.827,0,0,0,7.8-7.17l41.96-489.5A7.834,7.834,0,0,0,525.27,90.7Z" fill="#dae7f4"/>
    <path d="M397.328,595.877H207.317a7.831,7.831,0,0,1-7.8-7.162L157.57,99.209a7.825,7.825,0,0,1,7.8-8.505H266.877C257.559,216.267,254.155,497.62,397.328,595.877Z" fill="#c6d2db"/>
    <path d="M496.881,309.541,473.945,577.218H216.529L190.814,277.2s28.6-6.561,75.062-3.31c11.827.836,24.809,2.3,38.78,4.677,8.376,1.425,17.093,3.169,26.128,5.313q13.553,3.18,28,7.6C409.45,307.055,459.88,310.177,496.881,309.541Z" fill="#fbd255"/>
    <path d="M374.11,577.218H216.529L190.814,277.2s28.6-6.561,75.062-3.31C273.8,386.064,300.839,508.964,374.11,577.218Z" fill="#e0a000"/>
    <path d="M496.883,309.543c-33.415.574-77.789-1.918-123.4-13.882q-6.946-1.823-13.93-3.947c-.258-.077-.517-.153-.775-.234a429.83,429.83,0,0,0-54.124-12.907,527.645,527.645,0,0,1,56.783-5.855q7.492-.337,14.461-.392C473.974,271.478,496.883,309.543,496.883,309.543Z" fill="#e0a000"/>
    <path d="M157.56,4.12A90.66,90.66,0,0,0,66.9,94.78v.12a90.664,90.664,0,0,0,90.66,90.53q3.72,0,7.37-.3l-1.18-13.78c-2.04.17-4.11.25-6.19.25A76.837,76.837,0,0,1,80.73,94.9v-.12A76.824,76.824,0,0,1,234.27,90.7h13.84A90.642,90.642,0,0,0,157.56,4.12Z" fill="#e0a000"/>
    <path d="M157.57,99.21l6.18,72.14c-2.04.17-4.11.25-6.19.25A76.837,76.837,0,0,1,80.73,94.9v-.12A76.824,76.824,0,0,1,234.27,90.7h-68.9A7.828,7.828,0,0,0,157.57,99.21Z" fill="#fbd255"/>
    <path d="M327.12,429.32,314.7,467.145a9.058,9.058,0,0,1-11.4,5.772L265.475,460.49A9.024,9.024,0,0,1,259.7,449.1l12.428-37.837a9.035,9.035,0,0,1,11.4-5.76l8.482,2.78,29.344,9.636A9.04,9.04,0,0,1,327.12,429.32Z" fill="#fff"/>
    <path d="M419.652,484.474l-1.779.471L381.2,494.8a9.044,9.044,0,0,1-11.073-6.373L359.8,449.97a9.029,9.029,0,0,1,6.385-11.062l6.432-1.732,32.018-8.6a9.034,9.034,0,0,1,11.073,6.373l10.331,38.462A9.029,9.029,0,0,1,419.652,484.474Z" fill="#fff"/>
    <path d="M359.385,515.149l-7.044,39.18a9.025,9.025,0,0,1-10.484,7.292l-7.622-1.367-31.57-5.666a9.037,9.037,0,0,1-7.292-10.5l7.044-39.18a9.042,9.042,0,0,1,10.484-7.3l8.246,1.484,30.946,5.56A9.037,9.037,0,0,1,359.385,515.149Z" fill="#fff"/>
    <path d="M308.142,473.13a8.947,8.947,0,0,1-4.841-.212L265.475,460.49A9.024,9.024,0,0,1,259.7,449.1l12.428-37.837a9.035,9.035,0,0,1,11.4-5.76l8.482,2.78C289.742,425.5,288.564,457.863,308.142,473.13Z" fill="#dae7f4"/>
    <path d="M417.873,484.945,381.2,494.8a9.044,9.044,0,0,1-11.073-6.373L359.8,449.97a9.029,9.029,0,0,1,6.385-11.062l6.432-1.732C376.431,452.691,387.315,478.442,417.873,484.945Z" fill="#dae7f4"/>
    <path d="M334.235,560.254l-31.57-5.666a9.037,9.037,0,0,1-7.292-10.5l7.044-39.18a9.042,9.042,0,0,1,10.484-7.3l8.246,1.484C317.6,515.29,314.268,545.683,334.235,560.254Z" fill="#dae7f4"/>
    <path d="M530.2,16.52a7.182,7.182,0,0,0-8.47-5.6L389.81,37.75a7.181,7.181,0,0,0-5.71,6.33l-22.25,224.5-.41,4.14-.41,4.15-1.06,10.66-.41,4.18q6.975,2.13,13.93,3.95a7.448,7.448,0,0,0,.22-1.18l.29-2.95,1.49-15.07.41-4.13.41-4.13L397.86,50.76,524.6,24.99A7.187,7.187,0,0,0,530.2,16.52Z" fill="#fff"/>
    <path d="M527.127,172.713c-.118,0-.237,0-.357-.015a4.123,4.123,0,0,1-3.756-4.46l1.168-13.628a4.123,4.123,0,0,1,8.216.7l-1.168,13.628A4.123,4.123,0,0,1,527.127,172.713ZM113.5,90.776h-7.573a4.123,4.123,0,0,0,0,8.246H113.5a4.123,4.123,0,0,0,0-8.246ZM233.692,53.237c1.123,2.3,2.153,4.681,3.062,7.066a4.123,4.123,0,0,0,7.707-2.936c-1-2.614-2.125-5.22-3.356-7.744a4.123,4.123,0,0,0-7.412,3.614ZM319.828,374.23a4,4,0,1,0-4,4A4,4,0,0,0,319.828,374.23Zm-61.4,161.862a4,4,0,1,0-4-4A4,4,0,0,0,258.425,536.093Zm14.659-45.624a2.077,2.077,0,1,0,2.077-2.077A2.077,2.077,0,0,0,273.084,490.469Zm146.241,12.314a2.631,2.631,0,1,0,2.631-2.631A2.631,2.631,0,0,0,419.325,502.782Zm14.29-68.891a4,4,0,1,0-4,4A4,4,0,0,0,433.615,433.891Zm-28.532-29.284a1.88,1.88,0,1,0-1.88-1.88A1.88,1.88,0,0,0,405.082,404.608Zm-107-55.7a2.043,2.043,0,1,0-2.043,2.043A2.043,2.043,0,0,0,298.082,348.9Zm33.706-34.435a4.647,4.647,0,1,0,4.647,4.647A4.647,4.647,0,0,0,331.788,314.468ZM199.979,384.133a4.123,4.123,0,0,0,3.756-4.46l-1.1-12.866a4.123,4.123,0,0,0-8.216.7l1.1,12.866a4.123,4.123,0,0,0,4.1,3.771C199.741,384.148,199.86,384.144,199.979,384.133Zm337.2-284.575L533.7,140.121a4.123,4.123,0,1,1-8.216-.7l3.476-40.56a3.709,3.709,0,0,0-3.689-4.03H397.635L380.455,268.2c95.445.348,118.99,37.61,119.965,39.222a4.056,4.056,0,0,1,.336.728c.011.029.021.058.031.088a4.09,4.09,0,0,1,.182.781c0,.013,0,.026,0,.039a4.118,4.118,0,0,1,.015.785c0,.017,0,.034,0,.052l-.008.1v.017L478.054,577.57a4.123,4.123,0,0,1-4.108,3.771H216.529a4.123,4.123,0,0,1-4.108-3.771L196.487,391.675a4.123,4.123,0,1,1,8.216-.7l15.611,182.123H470.161l22.224-259.374c-1.314.01-2.658.014-4.016.014-.2,0-.407,0-.609,0-.348,0-.693-.007-1.04-.008-1.516,0-3.052-.015-4.619-.033A458.135,458.135,0,0,1,382.025,302.02c-.434-.1-.867-.2-1.3-.3q-1.6-.383-3.191-.778c-.388-.1-.776-.187-1.164-.284l-.007.024-3.77-.99-.152-.038-.581-.156c-.285-.075-.571-.154-.856-.229l-1.028-.276q-1.01-.272-2.012-.548-.976-.268-1.953-.543c-.685-.193-1.364-.387-2.043-.582l-.1-.028c-.67-.193-1.339-.382-2.009-.579q-1.773-.52-3.51-1.049c-.076-.025-.161-.051-.244-.077-.177-.054-.355-.1-.532-.16-4.578-1.407-9.165-2.733-13.73-3.974-.809-.219-1.619-.426-2.429-.641-1.433-.381-2.867-.763-4.293-1.126-.912-.232-1.824-.45-2.736-.675-1.43-.353-2.863-.711-4.283-1.045-1.08-.255-2.16-.5-3.239-.745-1-.229-2-.464-3-.686q-3.123-.69-6.244-1.329l-.268-.057q-6.7-1.369-13.38-2.505c-.011,0-.022-.007-.033-.009-12.748-2.17-25.651-3.726-38.352-4.624-36.081-2.527-61.442.99-70.348,2.544l6.28,73.254a4.123,4.123,0,1,1-8.216.7l-6.6-76.953a4.125,4.125,0,0,1,3.187-4.371c1.191-.273,29.736-6.661,76.272-3.4,12.766.9,25.725,2.459,38.536,4.619,18.607-2.855,36.4-4.73,52.985-5.612L374.927,94.827H165.369a3.7,3.7,0,0,0-3.692,4.022l41.95,489.514a3.69,3.69,0,0,0,3.69,3.391H483.311a3.679,3.679,0,0,0,3.69-3.387l34.718-405.03a4.123,4.123,0,1,1,8.216.7L495.218,589.067A11.874,11.874,0,0,1,483.311,600H207.318a11.891,11.891,0,0,1-11.905-10.927l-34.245-399.6c-1.58.059-3.165.084-4.758.063A94.751,94.751,0,0,1,62.79,93.75v-.12A94.778,94.778,0,0,1,235.91,41.45a4.12,4.12,0,0,1-6.81,4.64A86.537,86.537,0,0,0,71.03,93.73v.12a86.539,86.539,0,0,0,85.48,87.45q1.984.022,3.953-.044l-.479-5.585c-.808.024-1.615.049-2.425.049a80.387,80.387,0,0,1-57.17-23.65h-.01A80.427,80.427,0,0,1,76.61,94.91v-.13A80.349,80.349,0,0,1,94.86,43.56q2.535-3.09,5.4-5.96a80.937,80.937,0,0,1,114.6.01c.95.95,1.88,1.93,2.78,2.92a80.426,80.426,0,0,1,20.438,46.051H243.7A85.582,85.582,0,0,0,240.21,69.07a4.121,4.121,0,1,1,7.87-2.45,93.626,93.626,0,0,1,3.892,19.961H375.745L380,43.671a11.244,11.244,0,0,1,8.994-9.958L520.914,6.881a11.3,11.3,0,0,1,4.507,22.144h0L401.662,54.194l-3.209,32.387H525.271a11.955,11.955,0,0,1,11.905,12.978ZM211.85,46.44,171.709,86.581H229.78c-.027-.247-.05-.494-.08-.741-.06-.45-.11-.91-.17-1.37-.09-.62-.2-1.24-.3-1.85l-.24-1.41c-.12-.61-.24-1.22-.37-1.82-.1-.47-.21-.93-.32-1.4-.14-.6-.29-1.2-.44-1.8-.12-.46-.25-.91-.38-1.36-.17-.6-.34-1.2-.53-1.8-.13-.43-.28-.85-.42-1.27-.2-.62-.4-1.23-.62-1.84-.11-.29-.22-.57-.33-.85-.5-1.32-1.04-2.63-1.61-3.92-.15-.33-.29-.66-.44-.99-.28-.6-.58-1.18-.87-1.77-.19-.39-.38-.78-.58-1.16q-.45-.855-.93-1.71c-.21-.38-.43-.76-.65-1.14-.32-.57-.66-1.13-1-1.68-.23-.37-.46-.73-.69-1.09-.36-.56-.72-1.12-1.1-1.67-.22-.33-.45-.65-.68-.97-.41-.58-.82-1.16-1.24-1.72-.12-.16-.25-.32-.37-.48q-1.575-2.055-3.3-4.02C212.03,46.65,211.94,46.54,211.85,46.44Zm-50.17,38.5L206.02,40.6l-.01-.01q-2.265-2.025-4.65-3.83a1.068,1.068,0,0,1-.11-.09c-.63-.48-1.27-.93-1.91-1.38-.26-.18-.51-.37-.77-.55q-.9-.615-1.83-1.2c-.3-.2-.61-.4-.92-.59-.6-.37-1.21-.74-1.82-1.09-.32-.19-.65-.38-.98-.56-.61-.35-1.23-.69-1.85-1.01-.32-.17-.65-.33-.97-.49-.65-.33-1.29-.65-1.95-.96-.18-.08-.37-.16-.55-.24-1.43-.66-2.89-1.26-4.37-1.82-.27-.11-.53-.21-.8-.31-.62-.23-1.25-.44-1.87-.64-.42-.14-.84-.29-1.25-.42-.6-.19-1.21-.36-1.81-.53-.45-.13-.91-.26-1.37-.38-.59-.16-1.19-.31-1.78-.45-.48-.11-.96-.22-1.44-.32-.59-.13-1.19-.25-1.78-.37-.5-.09-.99-.17-1.49-.25-.59-.1-1.18-.21-1.78-.29-.52-.08-1.04-.13-1.56-.19-1.06-.13-2.13-.24-3.2-.32-.51-.04-1.01-.08-1.52-.11ZM109.09,40.6l44.34,44.34V22.2c-.43.02-.87.06-1.3.1-1.24.09-2.46.21-3.68.36-.43.05-.85.09-1.27.15-.64.1-1.28.21-1.92.32-.44.07-.89.14-1.34.23q-.945.18-1.89.39c-.44.09-.87.19-1.31.29-.63.15-1.26.31-1.89.47-.42.11-.83.23-1.25.35-.64.18-1.28.37-1.91.56-.37.12-.74.25-1.11.37-.67.22-1.34.44-2,.69-.17.06-.33.13-.5.19-1.64.61-3.26,1.29-4.86,2.02-.1.05-.21.09-.32.14-.68.32-1.34.65-2.01.99-.3.15-.61.3-.91.46-.63.33-1.25.67-1.87,1.02-.33.18-.66.37-.98.56-.61.35-1.21.71-1.81,1.08-.32.2-.64.41-.95.61-.6.39-1.2.78-1.79,1.18-.28.2-.57.4-.85.6-.61.43-1.22.87-1.82,1.32-.13.1-.26.21-.4.31q-2.04,1.56-3.99,3.29C109.36,40.37,109.22,40.48,109.09,40.6Zm-5.71,102.64L147.6,99.02H124.86a4.12,4.12,0,1,1,0-8.24H147.6L103.27,46.44c-.09.1-.18.21-.27.31a71.981,71.981,0,0,0-7.54,10.2c-.03.05-.07.1-.1.15-.47.77-.92,1.56-1.36,2.35-.11.2-.23.4-.33.59-.4.74-.78,1.48-1.15,2.22-.14.27-.28.53-.41.8-.34.71-.67,1.43-.99,2.15-.14.31-.28.63-.42.94-.29.7-.58,1.4-.86,2.11-.13.35-.27.69-.4,1.04-.26.69-.5,1.39-.74,2.09-.13.38-.25.75-.37,1.12-.22.69-.43,1.39-.63,2.09-.12.39-.22.78-.33,1.17-.18.69-.36,1.39-.53,2.09-.1.4-.18.81-.27,1.22-.16.69-.31,1.39-.44,2.09-.08.42-.14.84-.21,1.26-.12.7-.24,1.4-.34,2.11-.06.41-.11.83-.16,1.25-.08.72-.17,1.43-.24,2.16-.04.39-.06.78-.09,1.17-.04.55-.08,1.1-.11,1.66h9.21a4.12,4.12,0,1,1,0,8.24h-9.2c.03.45.06.91.1,1.36s.06.92.1,1.38c.06.66.15,1.31.23,1.95.06.5.11.99.18,1.48.09.64.2,1.27.31,1.9.08.5.16.99.26,1.49.12.63.26,1.25.39,1.88.11.48.21.97.33,1.45.15.63.32,1.25.48,1.88.13.46.26.93.39,1.39.19.63.38,1.26.58,1.89.14.44.29.88.44,1.32.22.64.44,1.28.68,1.91l.48,1.23c.26.65.52,1.3.79,1.94.16.37.33.74.5,1.12.3.66.6,1.33.92,1.99.16.32.33.64.49.96.35.69.71,1.39,1.08,2.07.14.24.28.48.42.73.42.75.84,1.5,1.29,2.23l.18.27a72.733,72.733,0,0,0,7.65,10.26A1.74,1.74,0,0,0,103.38,143.24Zm50.05-38.39-44.21,44.22c.07.05.13.11.2.17,1.46,1.29,2.97,2.53,4.52,3.7a.139.139,0,0,0,.04.03c.64.48,1.29.94,1.94,1.39.24.17.48.35.72.51.62.43,1.24.83,1.87,1.23.28.19.57.37.85.54q.945.585,1.89,1.14l.87.48c.65.37,1.31.73,1.97,1.08.25.13.5.25.75.37a72.568,72.568,0,0,0,7.73,3.37h.02c.72.27,1.45.51,2.19.75l.9.3c.68.21,1.36.41,2.05.6.36.1.72.21,1.08.3.67.18,1.35.35,2.02.51.38.09.77.17,1.15.25.68.15,1.35.29,2.03.42.38.07.76.13,1.13.2.7.12,1.4.24,2.11.34l.77.09q2.265.3,4.56.45c.29.02.57.05.85.06ZM389.348,94.832h-6.134L364,288.725c.581.171,1.156.344,1.741.513q1.372.4,2.759.787c.486.136.98.267,1.469.4Zm-5.316-8.251h6.134l3.89-39.255L523.769,20.946a3.055,3.055,0,0,0,1.08-5.542,3.029,3.029,0,0,0-2.289-.443L390.635,41.793a3.037,3.037,0,0,0-2.43,2.691ZM329.67,279.39c.3.068.593.145.889.214.39.091.786.176,1.175.269,1.244.292,2.5.609,3.753.916.737.181,1.474.355,2.211.539q2.95.739,5.921,1.534c.5.132.993.257,1.489.391,1.807.487,3.619,1,5.432,1.51.713.2,1.428.395,2.141.6,1.088.314,2.176.647,3.265.97l.916-9.237Q343.739,277.82,329.67,279.39Zm49.967-2.94-1.6,16.106c.757.191,1.509.387,2.27.573.616.151,1.23.3,1.845.445q2.182.523,4.385,1.023c.543.124,1.086.25,1.629.371q2.952.657,5.94,1.276c.306.063.611.123.917.185q2.75.562,5.529,1.089l1.034.2q6.538,1.224,13.22,2.26l.328.051q6.909,1.064,13.951,1.925l.043.005q3.525.43,7.081.808l.166.017q6.905.733,13.909,1.266l.8.061q3.233.242,6.484.441l1.091.065q3.188.189,6.39.339l.985.043q3.27.145,6.552.249l.644.018q3.434.1,6.88.16l.312,0q3.589.055,7.188.06h.047C476.435,295.4,446.526,276.551,379.637,276.45Zm-94.82,125.132L322.645,414a13.16,13.16,0,0,1,8.391,16.606l-12.415,37.825a13.235,13.235,0,0,1-9.557,8.717,12.921,12.921,0,0,1-2.953.341,13.207,13.207,0,0,1-4.089-.651l-37.835-12.431a13.148,13.148,0,0,1-8.4-16.595l12.428-37.837A13.176,13.176,0,0,1,284.817,401.583Zm35.256,20.251-37.824-12.416a4.917,4.917,0,0,0-6.2,3.129L263.62,450.385a4.9,4.9,0,0,0,3.138,6.186L304.588,469a4.789,4.789,0,0,0,2.613.115,4.952,4.952,0,0,0,3.588-3.261L323.2,428.034h0a4.916,4.916,0,0,0-3.129-6.2Zm45.038,13.093L403.563,424.6a13.157,13.157,0,0,1,16.124,9.285l10.332,38.462a13.17,13.17,0,0,1-9.3,16.113l-.015,0-1.779.471-36.657,9.856a13.156,13.156,0,0,1-16.125-9.282L355.816,451.04A13.17,13.17,0,0,1,365.111,434.927Zm2.143,7.962a4.915,4.915,0,0,0-3.475,6.01l10.332,38.462a4.918,4.918,0,0,0,6.02,3.462l38.459-10.333a4.914,4.914,0,0,0,3.466-6.007l-10.332-38.462a4.916,4.916,0,0,0-4.734-3.632,4.945,4.945,0,0,0-1.286.171Zm-14.432,57.705a13.175,13.175,0,0,1,10.62,15.284l-7.045,39.18a13.143,13.143,0,0,1-15.27,10.62l-39.191-7.032a13.159,13.159,0,0,1-10.62-15.284l7.044-39.18a13.189,13.189,0,0,1,15.262-10.634Zm-1.459,8.116-39.193-7.044a4.877,4.877,0,0,0-.856-.076,4.935,4.935,0,0,0-4.841,4.051l-7.044,39.18a4.914,4.914,0,0,0,3.963,5.709l39.191,7.032a4.9,4.9,0,0,0,5.7-3.964l7.045-39.18A4.92,4.92,0,0,0,351.364,508.711Z"/>
  </g>
</svg>
