<?xml version="1.0" encoding="utf-8"?>
<!-- Generator: Adobe Illustrator 24.3.0, SVG Export Plug-In . SVG Version: 6.00 Build 0)  -->
<svg version="1.1" baseProfile="tiny" id="Layer_1" xmlns="http://www.w3.org/2000/svg" xmlns:xlink="http://www.w3.org/1999/xlink"
	 x="0px" y="0px" viewBox="0 0 512 512" overflow="visible" xml:space="preserve">
<g>
	<g id="Background">
	</g>
	<g id="Objects">
		<g>
			<g>
				<path fill="#FFBD4A" d="M473.4,416.8H38.6c-16.8,0-30.4-13.6-30.4-30.4V125.6c0-16.8,13.6-30.4,30.4-30.4h434.9
					c16.8,0,30.4,13.6,30.4,30.4v260.7C503.8,403,490.2,416.8,473.4,416.8z"/>
				<path fill="#D69F3E" d="M69.2,416.8H38.8c-16.8,0-30.4-13.6-30.4-30.4V125.6c0-16.8,13.6-30.4,30.4-30.4h30.4
					c-16.8,0-30.4,13.6-30.4,30.4v260.5C38.8,403,52.4,416.8,69.2,416.8z"/>
				<path fill="#D69F3E" d="M503.8,125.6v260.5c0,16.8-13.6,30.4-30.4,30.4H443c16.8,0,30.4-13.6,30.4-30.4V125.6
					c0-16.8-13.6-30.4-30.4-30.4h30.4C490.2,95.2,503.8,108.8,503.8,125.6z"/>
				<path fill="#5F266D" d="M473.4,87.1H38.6C17.5,87.1,0,104.3,0,125.6v260.7c0,21.1,17.2,38.6,38.6,38.6h434.9
					c21.1,0,38.6-17.2,38.6-38.6V125.6C512,104.5,494.8,87.1,473.4,87.1L473.4,87.1z M495.8,386.4c0,12.3-9.9,22.2-22.2,22.2H38.6
					c-12.3,0-22.2-9.9-22.2-22.2V125.6c0-12.3,9.9-22.2,22.2-22.2h434.9c12.3,0,22.2,9.9,22.2,22.2v260.7H495.8z"/>
				<path fill="#FFFFFF" d="M463.7,143.1H284.4c-4.5,0-8.2,3.7-8.2,8.2s3.7,8.2,8.2,8.2h179.3c4.5,0,8.2-3.7,8.2-8.2
					S468.3,143.1,463.7,143.1z"/>
				<path fill="#FFFFFF" d="M465.5,234.7H286.2c-4.5,0-8.2,3.7-8.2,8.2s3.7,8.2,8.2,8.2h179.3c4.5,0,8.2-3.7,8.2-8.2
					S470,234.7,465.5,234.7z"/>
				<path fill="#FFFFFF" d="M463.7,189.4H334c-4.5,0-8.2,3.7-8.2,8.2s3.7,8.2,8.2,8.2h129.7c4.5,0,8.2-3.7,8.2-8.2
					S468.3,189.4,463.7,189.4z"/>
			</g>
			<path fill="#FFD300" d="M161,151.9l16.8,34c0.9,1.9,2.8,3.2,5,3.7l37.5,5.4c5.4,0.9,7.5,7.3,3.7,11.2l-27.2,26.5
				c-1.5,1.5-2.2,3.7-1.9,5.8l6.5,37.5c0.9,5.4-4.7,9.5-9.5,6.9l-33.6-17.7c-1.9-1.1-4.1-1.1-6,0l-33.6,17.7
				c-4.7,2.6-10.3-1.5-9.5-6.9l6.5-37.5c0.4-2.2-0.4-4.3-1.9-5.8l-27.4-26.5c-3.9-3.9-1.7-10.3,3.7-11.2l37.7-5.4
				c2.2-0.2,3.9-1.7,5-3.7l16.8-34C151.7,147.2,158.6,147.2,161,151.9L161,151.9z"/>
			<path fill="#F2DC00" d="M196.7,232.7c-1.5,1.5-2.2,3.7-1.9,5.8l6.5,37.5c0.9,5.4-4.7,9.5-9.5,6.9l-10.1-5.4c0-0.4,0-1.1,0-1.5
				l-6.5-37.5c-0.4-2.2,0.4-4.3,1.9-5.8l27.2-26.5c3.9-3.9,1.7-10.3-3.7-11.2l-37.5-5.4c-2.2-0.2-3.9-1.7-5-3.7l-12.9-26.1l3.9-8
				c2.4-5,9.3-5,11.6,0l16.8,34c0.9,1.9,2.8,3.2,5,3.7L220,195c5.4,0.9,7.5,7.3,3.7,11.2L196.7,232.7z"/>
			<path fill="#F9FF7D" d="M164.8,159.9L151.9,186c-0.9,1.9-2.6,3.2-4.7,3.7l-37.7,5.4c-5.4,0.9-7.5,7.3-3.7,11.2l27.2,26.5
				c1.5,1.5,2.2,3.7,1.9,5.8l-6.5,37.5c0,0.6-0.2,1.1,0,1.5l-10.1,5.4c-4.7,2.6-10.3-1.5-9.5-6.9l6.5-37.5c0.4-2.2-0.4-4.3-1.9-5.8
				l-27.2-26.5c-3.9-3.9-1.7-10.3,3.7-11.2l37.7-5.4c2.2-0.2,3.9-1.7,5-3.7l16.8-34c2.4-5,9.3-5,11.6,0L164.8,159.9z"/>
			<path fill="#5F266D" d="M221.1,189.8l-37.7-5.4c-0.4,0-0.9-0.4-1.1-0.6l-16.6-34.3c-4.3-8.8-16.8-8.8-21.1,0l-16.8,34
				c-0.2,0.4-0.6,0.9-1.1,0.9l-37.5,5.4c-9.7,1.5-13.6,13.4-6.5,20l27.2,26.5c0.2,0.2,0.4,0.6,0.4,1.1l-6.5,37.5
				c-1.7,9.7,8.4,17,17,12.5l33.6-17.7c0.4-0.2,0.9-0.2,1.3,0l33.6,17.7c4.1,2.2,8.8,1.7,12.5-0.9c3.7-2.6,5.4-7.1,4.7-11.4
				l-6.5-37.5c0-0.4,0-0.9,0.4-1.1l27.2-26.5C234.7,203.2,230.8,191.4,221.1,189.8L221.1,189.8z M220.2,202.6l-27.2,26.5
				c-2.8,2.8-4.1,6.7-3.4,10.3l6.5,37.5c0.2,1.1-0.9,1.9-1.9,1.3l-33.6-17.7c-3.4-1.7-7.5-1.7-11,0l-33.6,17.7
				c-0.9,0.4-2.2-0.2-1.9-1.3l6.5-37.5c0.6-3.9-0.6-7.8-3.4-10.3l-27.2-26.5c-0.9-0.9-0.4-2.2,0.6-2.2L128,195
				c3.9-0.6,7.1-3,8.8-6.5l16.8-34c0.4-1.1,1.9-1.1,2.4,0l16.8,34c1.7,3.4,5,5.8,8.8,6.5l37.5,5.4
				C220.7,200.4,221.1,201.7,220.2,202.6L220.2,202.6z"/>
			<path fill="#5F266D" d="M158.2,231.6l-2.2,1.9c-2.2,1.9-2.2,5.2-0.2,7.3s5.2,2.2,7.3,0.2l2.2-1.9c2.2-1.9,2.2-5.2,0.2-7.3
				C163.6,229.9,160.3,229.7,158.2,231.6z"/>
			<path fill="#5F266D" d="M185.1,206.9l-12.5,11.4c-5.2,4.7,1.9,12.3,7.1,7.8l12.5-11.4c2.2-1.9,2.2-5.2,0.2-7.3
				C190.5,205.1,187.3,204.9,185.1,206.9L185.1,206.9z"/>
			<g>
				<path d="M118.7,363.1c-0.4,0.4-1.3,0.9-1.9,1.1c-0.9,0.2-1.7,0.4-2.8,0.4c-1.5,0-2.6-0.2-3.7-0.6c-0.9-0.4-1.5-1.1-1.9-1.9
					c-1.1-3.4-2.2-6.5-2.8-8.6c-0.6-2.2-1.3-4.1-1.7-5.8h-0.2c-0.2,2.4-0.2,4.5-0.2,6.5s0,3.9-0.2,5.8c0,1.9,0,3.7-0.2,5.6
					c0,1.9-0.2,4.1-0.2,6.2c-0.4,0.2-1.3,0.4-2.2,0.4c-0.6,0.4-1.5,0.4-2.4,0.4c-1.7,0-3.2-0.2-4.1-0.9c-1.1-0.6-1.5-1.5-1.5-3
					l1.7-30.8c0.4-0.4,1.1-1.1,2.2-1.7c1.1-0.6,2.6-0.9,4.5-0.9c2.2,0,3.9,0.4,5,1.1c1.3,0.6,2.2,1.7,2.6,3.2
					c0.4,0.9,0.6,2.2,1.1,3.2c0.4,1.3,0.9,2.6,1.3,3.9s0.9,2.6,1.3,3.9c0.4,1.3,0.9,2.6,1.1,3.4h0.2c0.9-3.4,1.9-6.7,2.8-9.9
					c0.9-3.2,1.9-5.8,2.6-8c0.6-0.4,1.3-0.6,2.4-0.9c1.1-0.2,1.9-0.4,3.2-0.4c1.9,0,3.7,0.2,4.7,0.9c1.3,0.6,1.9,1.5,2.2,2.6
					c0.2,0.9,0.4,2.2,0.4,3.7c0.2,1.7,0.4,3.7,0.6,5.6c0.2,1.9,0.4,4.3,0.6,6.7c0.2,2.4,0.4,4.5,0.6,6.7c0.2,2.2,0.4,4.1,0.4,5.8
					c0.2,1.7,0.2,3.2,0.2,4.1c-0.6,0.4-1.3,0.6-2.2,0.9s-1.3,0.9-2.4,0.9c-1.5,0-2.8-0.2-3.9-0.9c-1.1-0.4-1.5-1.5-1.7-3
					c-0.2-4.3-0.4-8.4-0.4-11.9c0-3.4-0.2-6.5-0.2-8.8h-0.4c-0.4,1.5-1.1,3.4-1.7,5.8C120.9,356.4,119.8,359.4,118.7,363.1z"/>
				<path d="M141.6,341.1c0-1.7,0.4-3,1.5-4.1c1.1-1.1,2.4-1.5,4.1-1.5h20c0.2,0.4,0.4,1.1,0.9,1.7c0.4,0.6,0.4,1.5,0.4,2.4
					c0,1.5-0.4,2.6-1.1,3.2c-0.6,0.6-1.5,0.9-2.6,0.9h-12.9v5.6h13.6c0.2,0.4,0.4,1.1,0.6,1.7s0.4,1.5,0.4,2.2
					c0,1.5-0.4,2.6-0.9,3.2c-0.6,0.9-1.5,1.3-2.6,1.3h-11.2v6.2h15.5c0.2,0.4,0.4,1.1,0.9,1.7c0.4,0.6,0.4,1.5,0.4,2.4
					c0,1.5-0.4,2.6-1.1,3.2c-0.6,0.6-1.5,1.1-2.6,1.1h-17.9c-1.7,0-3-0.4-4.1-1.5c-1.1-1.1-1.5-2.4-1.5-4.1V341.1z"/>
				<path d="M200.4,363.1c-0.4,0.4-1.3,0.9-1.9,1.1c-0.9,0.2-1.7,0.4-2.8,0.4c-1.5,0-2.6-0.2-3.7-0.6c-0.9-0.4-1.5-1.1-1.9-1.9
					c-1.1-3.4-2.2-6.5-2.8-8.6c-0.6-2.2-1.3-4.1-1.7-5.8h-0.2c-0.2,2.4-0.2,4.5-0.2,6.5s0,3.9-0.2,5.8c0,1.9,0,3.7-0.2,5.6
					c0,1.9-0.2,4.1-0.2,6.2c-0.4,0.2-1.3,0.4-2.2,0.4c-0.9,0.4-1.7,0.4-2.4,0.4c-1.7,0-3.2-0.2-4.1-0.9c-1.1-0.6-1.5-1.5-1.5-3
					l1.7-30.8c0.4-0.4,1.1-1.1,2.2-1.7c1.1-0.6,2.6-0.9,4.5-0.9c2.2,0,3.9,0.4,5,1.1c1.3,0.6,2.2,1.7,2.6,3.2
					c0.4,0.9,0.6,2.2,1.1,3.2c0.4,1.3,0.9,2.6,1.3,3.9s0.9,2.6,1.3,3.9c0.4,1.3,0.9,2.6,1.1,3.4h0.2c0.9-3.4,1.9-6.7,2.8-9.9
					c0.9-3.2,1.9-5.8,2.6-8c0.6-0.4,1.3-0.6,2.4-0.9c1.1-0.2,1.9-0.4,3.2-0.4c1.9,0,3.7,0.2,4.7,0.9c1.3,0.6,1.9,1.5,2.2,2.6
					c0.2,0.9,0.4,2.2,0.4,3.7c0.2,1.7,0.4,3.7,0.6,5.6s0.4,4.3,0.6,6.7c0.2,2.4,0.4,4.5,0.6,6.7c0.2,2.2,0.4,4.1,0.4,5.8
					c0.2,1.7,0.2,3.2,0.2,4.1c-0.6,0.4-1.3,0.6-2.2,0.9s-1.7,0.2-2.8,0.2c-1.5,0-2.8-0.2-3.9-0.9c-1.1-0.4-1.5-1.5-1.7-3
					c-0.2-4.3-0.4-8.4-0.4-11.9s-0.2-6.5-0.2-8.8l0,0c-0.4,1.5-1.1,3.4-1.7,5.8C202.3,356.4,201.5,359.4,200.4,363.1z"/>
				<path d="M237.5,373c-0.6,0-1.5,0-2.4,0c-0.9,0-1.9-0.2-2.8-0.2c-1.1-0.2-1.9-0.2-3-0.4c-1.1-0.2-1.9-0.4-2.6-0.9
					c-2.2-0.9-3.2-2.4-3.2-4.3V339c0-0.9,0.2-1.5,0.6-1.9c0.4-0.4,1.1-0.9,1.9-1.1c1.3-0.4,3-0.9,5.2-1.1c2.2-0.2,4.1-0.4,6.2-0.4
					c5.2,0,9.1,0.9,11.9,2.6c2.8,1.7,4.1,4.3,4.1,8c0,1.7-0.4,3.4-1.5,4.7s-2.4,2.4-4.3,2.8c1.9,0.6,3.7,1.5,5,3
					c1.3,1.5,1.9,3.4,1.9,5.6c0,4.1-1.5,6.9-4.5,8.8C247.2,372.1,242.9,373,237.5,373z M233.4,349.7h4.3c1.7,0,3-0.2,3.9-0.9
					c0.9-0.6,1.1-1.5,1.1-2.8c0-1.1-0.4-1.9-1.3-2.6c-0.9-0.6-2.2-0.9-4.1-0.9c-0.6,0-1.3,0-2.2,0c-0.9,0-1.3,0-1.9,0.2v6.9H233.4z
					 M233.4,364.6c0.6,0.2,1.3,0.2,2.2,0.4c0.9,0,1.7,0,2.6,0c1.5,0,3-0.4,4.1-1.1c1.1-0.6,1.5-1.7,1.5-3s-0.4-2.4-1.3-2.8
					c-0.9-0.6-2.2-0.9-4.1-0.9h-5V364.6z"/>
				<path d="M260.5,341.1c0-1.7,0.4-3,1.5-4.1c1.1-1.1,2.4-1.5,4.1-1.5h20c0.2,0.4,0.4,1.1,0.9,1.7c0.4,0.6,0.4,1.5,0.4,2.4
					c0,1.5-0.4,2.6-1.1,3.2c-0.6,0.6-1.5,0.9-2.6,0.9h-12.7v5.6h13.6c0.2,0.4,0.4,1.1,0.6,1.7c0.2,0.6,0.4,1.5,0.4,2.2
					c0,1.5-0.4,2.6-0.9,3.2c-0.6,0.6-1.5,0.9-2.6,0.9h-11.2v6.2h15.5c0.2,0.4,0.4,1.1,0.9,1.7s0.4,1.5,0.4,2.4
					c0,1.5-0.4,2.6-1.1,3.2s-1.5,1.1-2.6,1.1h-17.7c-1.7,0-3-0.4-4.1-1.5s-1.5-2.4-1.5-4.1v-25.2H260.5z"/>
				<path d="M304.3,360.3v11.6c-0.4,0.2-1.1,0.2-2.2,0.4c-0.9,0.2-1.9,0.2-2.8,0.2c-0.9,0-1.7,0-2.4-0.2c-0.6-0.2-1.3-0.4-1.7-0.9
					c-0.4-0.4-0.9-0.9-1.1-1.5c-0.2-0.6-0.4-1.5-0.4-2.6V339c0-0.9,0.2-1.5,0.6-1.9c0.4-0.4,1.1-0.9,1.9-1.1c1.3-0.4,3-0.9,4.7-1.1
					c1.7-0.2,3.7-0.4,5.8-0.4c5.6,0,9.7,1.1,12.5,3.4c2.8,2.4,4.3,5.6,4.3,9.5c0,2.6-0.6,4.7-1.9,6.5s-2.8,3.2-4.5,4.1
					c1.5,1.9,2.8,3.9,4.3,5.6c1.5,1.7,2.6,3.2,3.2,4.7c-0.4,1.5-1.1,2.6-2.2,3.2c-1.1,0.6-2.2,1.1-3.7,1.1c-0.9,0-1.7,0-2.4-0.2
					c-0.6-0.2-1.3-0.4-1.7-0.9c-0.4-0.4-0.9-0.9-1.3-1.3c-0.4-0.4-0.9-1.1-1.1-1.7l-5.2-8.2C307.3,360.3,304.3,360.3,304.3,360.3z
					 M308.1,352.3c1.5,0,2.8-0.4,3.7-1.1c0.9-0.9,1.3-1.9,1.3-3.4c0-1.5-0.4-2.6-1.5-3.4c-1.1-0.9-2.6-1.1-4.7-1.1
					c-0.6,0-1.1,0-1.5,0c-0.4,0-0.9,0-1.3,0.2v9.1h4.1V352.3z"/>
				<path d="M340.9,357.5c-1.7-0.6-3.4-1.3-4.7-1.9c-1.5-0.6-2.8-1.3-3.7-2.2c-1.1-0.9-1.9-1.9-2.4-3.2c-0.6-1.3-0.9-2.8-0.9-4.5
					c0-3.4,1.3-6.2,3.9-8.2c2.6-1.9,6.2-3,11-3c1.7,0,3.4,0.2,4.7,0.4c1.5,0.2,2.8,0.6,3.9,1.1c1.1,0.4,1.9,1.1,2.6,1.9
					s0.9,1.7,0.9,2.8c0,1.1-0.2,1.9-0.6,2.6c-0.4,0.6-1.1,1.3-1.7,1.9c-0.9-0.6-2.2-1.1-3.7-1.5c-1.5-0.4-3.2-0.6-5-0.6
					s-3.2,0.2-4.1,0.6c-0.9,0.4-1.3,1.1-1.3,1.9c0,0.6,0.2,1.1,0.9,1.5c0.4,0.4,1.3,0.6,2.4,1.1l3.2,1.1c3.9,1.3,6.7,2.8,8.8,4.5
					c1.9,1.9,3,4.5,3,7.5c0,3.4-1.3,6.2-4.1,8.4c-2.8,2.2-6.7,3.2-11.9,3.2c-1.9,0-3.7-0.2-5.2-0.4c-1.5-0.2-3-0.6-4.1-1.3
					c-1.3-0.6-2.2-1.3-2.8-2.2s-1.1-1.9-1.1-3s0.4-2.2,1.1-3c0.6-0.9,1.5-1.5,2.2-1.9c1.1,0.9,2.6,1.7,4.1,2.4
					c1.7,0.6,3.4,0.9,5.4,0.9c1.9,0,3.4-0.2,4.1-0.9c0.9-0.6,1.3-1.3,1.3-2.2s-0.4-1.5-0.9-1.9c-0.4-0.4-1.5-0.9-2.8-1.3
					L340.9,357.5z"/>
				<path d="M396.5,371.9c-0.4,0.2-1.1,0.2-2.2,0.4c-0.9,0.2-1.9,0.2-2.8,0.2s-1.7,0-2.4-0.2c-0.6-0.2-1.3-0.4-1.7-0.9
					c-0.4-0.4-0.9-0.9-1.1-1.5c-0.2-0.6-0.4-1.5-0.4-2.6v-9.5h-11.6v14c-0.4,0.2-1.1,0.2-2.2,0.4c-0.9,0.2-1.9,0.2-2.8,0.2
					c-0.9,0-1.7,0-2.4-0.2s-1.3-0.4-1.7-0.9s-0.9-0.9-1.1-1.5c-0.2-0.6-0.4-1.5-0.4-2.6v-31.9c0.4,0,1.1-0.2,2.2-0.4
					c0.9-0.2,1.9-0.2,2.8-0.2c0.9,0,1.7,0,2.4,0.2c0.6,0.2,1.3,0.4,1.7,0.9c0.4,0.4,0.9,0.9,1.1,1.5c0.2,0.6,0.4,1.5,0.4,2.6v9.7
					h11.6v-14.2c0.4,0,1.1-0.2,2.2-0.4c0.9-0.2,1.9-0.2,2.8-0.2c0.9,0,1.7,0,2.4,0.2c0.6,0.2,1.3,0.4,1.7,0.9s0.9,0.9,1.1,1.5
					c0.2,0.6,0.4,1.5,0.4,2.6V371.9z"/>
				<path d="M415,371.9c-0.4,0.2-1.1,0.2-2.2,0.4c-0.9,0.2-1.9,0.2-2.8,0.2c-0.9,0-1.7,0-2.4-0.2c-0.6-0.2-1.3-0.4-1.7-0.9
					c-0.4-0.4-0.9-0.9-1.1-1.5c-0.2-0.6-0.4-1.5-0.4-2.6v-31.9c0.4,0,1.1-0.2,2.2-0.4c0.9-0.2,1.9-0.2,2.8-0.2c0.9,0,1.7,0,2.4,0.2
					c0.6,0.2,1.3,0.4,1.7,0.9c0.4,0.4,0.9,0.9,1.1,1.5c0.2,0.6,0.4,1.5,0.4,2.6V371.9z"/>
				<path d="M433.6,371.9c-0.4,0.2-1.1,0.2-2.2,0.4c-0.9,0.2-1.9,0.2-2.8,0.2s-1.7,0-2.4-0.2c-0.6-0.2-1.3-0.4-1.7-0.9
					c-0.4-0.4-0.9-0.9-1.1-1.5c-0.2-0.6-0.6-1.5-0.6-2.6V339c0-0.9,0.2-1.5,0.6-1.9c0.4-0.4,1.1-0.9,1.9-1.1c1.3-0.4,3-0.9,4.7-1.1
					s3.4-0.4,5.4-0.4c5.6,0,9.9,1.3,12.7,3.7c3,2.4,4.5,5.6,4.5,9.7c0,1.9-0.2,3.7-0.9,5.4c-0.6,1.5-1.5,3-2.8,4.1
					c-1.3,1.1-2.8,1.9-4.7,2.6c-1.9,0.6-4.1,0.9-6.5,0.9h-4.3V371.9z M436.6,352.5c1.7,0,3-0.4,3.9-1.1c0.9-0.6,1.3-1.9,1.3-3.7
					c0-1.5-0.4-2.8-1.5-3.4c-0.9-0.9-2.4-1.3-4.1-1.3c-0.6,0-1.1,0-1.5,0c-0.4,0-0.9,0-1.3,0.2v9.3
					C433.3,352.5,436.6,352.5,436.6,352.5z"/>
			</g>
		</g>
	</g>
</g>
</svg>
