<svg xmlns="http://www.w3.org/2000/svg" viewBox="0 0 512 512"><title>Muffin</title><g id="Muffin"><path d="M412.24,275.52a46.07,46.07,0,0,1-56,45,127.67,127.67,0,0,1-203.36.35,46.64,46.64,0,0,1-8.16.73,46.06,46.06,0,0,1-17.52-88.65,127.66,127.66,0,0,1,254.38-.81A46.07,46.07,0,0,1,412.24,275.52Z" style="fill:#ffc67b"/><path d="M412.24,275.52a46.07,46.07,0,0,1-56,45A127.55,127.55,0,0,1,269,370.31a127.49,127.49,0,0,1-87.09-49.47,46.72,46.72,0,0,1-8.16.73,46.06,46.06,0,0,1-17.53-88.65,127.69,127.69,0,0,1,112.76-116.3A127.69,127.69,0,0,1,381.59,232.11,46.07,46.07,0,0,1,412.24,275.52Z" style="fill:#bf6a50"/><circle cx="189.9" cy="191.18" r="13.7" transform="translate(-79.57 190.27) rotate(-45)" style="fill:#fff"/><circle cx="287.28" cy="259.37" r="13.7" transform="matrix(0.17, -0.98, 0.98, 0.17, -17.87, 497.47)" style="fill:#ffd4a1"/><path d="M352.41,297.18a19,19,0,0,0-18.92,16.87l-.55,4.25a19.09,19.09,0,0,0-19-21.12h0a19.09,19.09,0,0,0-19,17.47l-.51,3A19.26,19.26,0,1,0,256,316.33,19.31,19.31,0,1,0,217.38,318l-.14-2.67a19.15,19.15,0,1,0-38.15,3.19l-.31-2.78a20.75,20.75,0,0,0-20.63-18.53h0a20.75,20.75,0,0,0-20.38,24.62L162.72,453a14.83,14.83,0,0,0,14.89,13.33H334.38a14.84,14.84,0,0,0,14.89-13.37L371.19,319.3A19,19,0,0,0,352.41,297.18Z" style="fill:#6db1d7"/><path d="M194.59,466.3,179.1,314.4s2.17-18,19-17.22,18.57,14.35,18.57,14.35l8.63,154.77Z" style="fill:#bef0ff"/><path d="M254.82,466.87,256,314.4s2.17-18,19-17.22,18.58,14.35,18.58,14.35l-8.06,155.34Z" style="fill:#bef0ff"/><path d="M313.39,466.87,334.06,314.4s2.17-18,19-17.22,18.57,14.35,18.57,14.35L346,456.53a12.53,12.53,0,0,1-12.34,10.34Z" style="fill:#bef0ff"/><path d="M286.91,78.27c-6.19,9.38-17,13.15-24.13,8.44s-7.91-16.12-1.73-25.49,28.18-14.6,28.18-14.6S293.09,68.9,286.91,78.27Z" style="fill:#5bbc9c"/><path d="M247.21,64.29c7.87,5.19,11,14.26,7.08,20.26S240.75,91.2,232.88,86s-12.26-23.67-12.26-23.67S239.33,59.1,247.21,64.29Z" style="fill:#5bbc9c"/><path d="M209.12,123.81c0-26.38,21.38-33.91,47.76-33.91s47.75,7.53,47.75,33.91c0,17.76-21.67,41.12-35.81,54.48a17.39,17.39,0,0,1-23.88,0C230.79,164.93,209.12,141.57,209.12,123.81Z" style="fill:#ff96b1"/><rect x="273.82" y="117.71" width="10.6" height="10.6" style="fill:#911944"/><rect x="231.38" y="112.41" width="10.6" height="10.6" style="fill:#911944"/><rect x="249.12" y="144.53" width="10.6" height="10.6" style="fill:#911944"/><path d="M205.35,203.43a19.92,19.92,0,0,0,3.26-6,5.94,5.94,0,0,0-6.39-7.68h0a5.94,5.94,0,0,0-5,3.91,7.61,7.61,0,0,1-1.29,2.39,7.8,7.8,0,1,1-12.25-9.65,7.91,7.91,0,0,1,2-1.81,5.94,5.94,0,0,0,2.63-5.78h0a6,6,0,0,0-9-4.38,20.16,20.16,0,0,0-7.21,7.91,18.81,18.81,0,0,0-2,6.74,19.86,19.86,0,0,0,19.69,22,20.89,20.89,0,0,0,2.36-.14A19.66,19.66,0,0,0,205.35,203.43Z" style="fill:#191010"/><path d="M305.24,258.31a18.09,18.09,0,0,0-15.17-16.23,16.09,16.09,0,0,0-4.49-.14,18.06,18.06,0,0,0-12.87,28.61,6,6,0,0,0,10.2-1.15h0a5.81,5.81,0,0,0-.48-5.86,6,6,0,0,1-.64-6.13,6,6,0,0,1,8-2.95,6,6,0,0,1,3.5,5.08,5.78,5.78,0,0,0,3.45,4.76h0A6,6,0,0,0,305.24,258.31Z" style="fill:#191010"/><path d="M195,410.06l-.34-3.11a6,6,0,0,0-6.6-5.32h0a6,6,0,0,0-5.33,6.6l.33,3.11a6,6,0,0,0,6.61,5.33h0A6,6,0,0,0,195,410.06Z" style="fill:#191010"/><path d="M107.55,310.93a51.42,51.42,0,0,0,24.71,13.82l24.55,129.08a20.74,20.74,0,0,0,20.83,18.47H334.41a20.74,20.74,0,0,0,20.85-18.59l21-128.27a51.32,51.32,0,0,0,11.16-98.14A132.54,132.54,0,0,0,349.59,149a134.77,134.77,0,0,0-24.23-19.37c-.74-.46-1.48-.92-2.23-1.36a6,6,0,0,0-8.34,2.33h0a6,6,0,0,0,2.24,8c.66.4,1.32.8,2,1.21a122.8,122.8,0,0,1,22.07,17.64A120.65,120.65,0,0,1,374.87,224a51.32,51.32,0,0,0-38.29,10.24,6,6,0,0,0-.5,9h0a6,6,0,0,0,7.84.52A39.33,39.33,0,1,1,377.27,313a25,25,0,0,0-44-12.83c-.19-.23-.38-.46-.58-.68a25.16,25.16,0,0,0-38,.75c-.3-.37-.62-.74-1-1.09a25.23,25.23,0,0,0-37.7,1c-.45-.52-.9-1-1.39-1.51a25.25,25.25,0,0,0-18-7.46,24.88,24.88,0,0,0-18.43,8c-.28.29-.54.6-.8.9a25.15,25.15,0,0,0-38-.51c-.28.32-.56.65-.83,1a26.79,26.79,0,0,0-25.45-8.92,25.74,25.74,0,0,0-9.9,4.09,26.86,26.86,0,0,0-11.16,16.52,39.33,39.33,0,1,1,36-68.57,6,6,0,0,0,7.84-.52h0a6,6,0,0,0-.53-9,51.42,51.42,0,0,0-41.46-9.68,122.14,122.14,0,0,1,57.88-85.82,6,6,0,0,0,2.26-8h0a6,6,0,0,0-8.39-2.31A134.25,134.25,0,0,0,121.24,228.8a51.3,51.3,0,0,0-13.69,82.13Zm206.8-7.75a13,13,0,0,1,9.28,4.21A13.6,13.6,0,0,1,327,318L326,328.26a5.92,5.92,0,0,0,5.65,6.46h0a5.91,5.91,0,0,0,6.14-5.28l.21-2h0l1.41-12.31a13.34,13.34,0,0,1,11-11.8A13,13,0,0,1,364,310.2a13.38,13.38,0,0,1,1.24,8.4L343.38,452l-.05.44a8.79,8.79,0,0,1-8.92,7.9H320.84l14.69-110.94a6,6,0,0,0-5.16-6.74h0a6,6,0,0,0-6.74,5.16L308.73,460.3H291.38l8.3-130.14,1.24-14.58C301.5,308.8,307.54,303,314.35,303.18Zm-39.11,0a13.28,13.28,0,0,1,13.24,14.11l-9.12,143H261.78L262,330h0v-.08l0-13.25c0-.14,0-.28,0-.42A13.27,13.27,0,0,1,275.24,303.17Zm-128.41,5.34a14.71,14.71,0,0,1,13-5.24,15,15,0,0,1,13,13.49l7.07,66a6,6,0,0,0,6.6,5.33h0a6,6,0,0,0,5.33-6.61l-5.81-54.25h.07l-1-9a13.65,13.65,0,0,1,3.16-10.57,13,13,0,0,1,9.86-4.45,13.15,13.15,0,0,1,13.13,12.44L217.1,424a6,6,0,0,0,6.31,5.67h0a6,6,0,0,0,5.67-6.31L224,328.69h0l-.59-11.05v-.13a13.34,13.34,0,0,1,3.54-10.16,13.12,13.12,0,0,1,11.47-4.06,12.82,12.82,0,0,1,5.44,2,13.36,13.36,0,0,1,6.13,11v13.6l-.2,130.44H231l-.66-12.92a6,6,0,0,0-6.3-5.69h0a6,6,0,0,0-5.68,6.3L219,460.3H200l-2.69-27.42a6,6,0,0,0-6.55-5.39h0a6,6,0,0,0-5.39,6.56L188,460.3H177.64a8.79,8.79,0,0,1-8.91-7.88l0-.29-25-131.46A14.73,14.73,0,0,1,146.83,308.51Z" style="fill:#191010"/><rect x="316.88" y="185.93" width="10.6" height="10.6" style="fill:#191010"/><rect x="244.93" y="215.37" width="10.6" height="10.6" style="fill:#191010"/><rect x="182.72" y="258.01" width="10.6" height="10.6" style="fill:#191010"/><rect x="366.18" y="258.01" width="10.6" height="10.6" style="fill:#191010"/><path d="M286,88.68A31.68,31.68,0,0,0,291.91,82c7.29-11,3.67-33.46,3.23-36l-1.08-6.29-6.21,1.47c-2.49.59-24.53,6.09-31.81,17.13a32.71,32.71,0,0,0-2.2,3.94,28.31,28.31,0,0,0-3.33-2.57c-9.38-6.19-27.4-3.47-30.91-2.86l-6.29,1.09,1.47,6.21c.72,3,4.28,16.74,11.37,24.34C206.86,95.78,202,110.7,202,123.81c0,19.21,20.5,42.6,37.7,58.84a23.4,23.4,0,0,0,32.12,0C289,166.41,309.53,143,309.53,123.81,309.53,110.83,304.78,96.09,286,88.68ZM266.06,64.91c2.55-3.86,10.71-7.7,18.07-10.18.58,7.23.47,16.53-2.23,20.63a18,18,0,0,1-8.68,7.14c-1.59.55-4.63,1.24-7.13-.41C261.79,79.26,261.78,71.39,266.06,64.91ZM243.9,69.68a14.12,14.12,0,0,1,5.62,6.81c.41,1.17.92,3.39-.23,5.14s-3.41,2.16-4.64,2.25a14.22,14.22,0,0,1-8.47-2.49c-2.87-1.9-5.76-7.83-7.77-13.52C234.4,67.49,241.06,67.81,243.9,69.68Zm19.7,104.24a11.39,11.39,0,0,1-15.64,0C226.39,153.56,214,135.29,214,123.81c0-12,4.33-27.91,41.76-27.91s41.75,15.93,41.75,27.91C297.53,135.29,285.16,153.56,263.6,173.92Z" style="fill:#191010"/></g></svg>