<svg id="Capa_1" enable-background="new 0 0 512 512" height="512" viewBox="0 0 512 512" width="512" xmlns="http://www.w3.org/2000/svg"><g><g><g><g><circle cx="256" cy="256" fill="#c38778" r="256"/></g></g></g><path d="m512 256c0-9.338-.5-18.559-1.475-27.638l-120.436-120.436-22.382 54.634-54.633-54.634-10.168 66.847-66.847-66.847-12.008 65.007-65.007-65.007-69.85 304.111 87.413 87.413c24.994 8.146 51.679 12.55 79.393 12.55 141.385 0 256-114.615 256-256z" fill="#a65d4e"/><path d="m89.193 176.057h333.613v235.98h-333.613z" fill="#bcdefa"/><path d="m256.12 176.057h166.686v235.98h-166.686z" fill="#92cbf7"/><path d="m89.193 144.01h333.613v59.698h-333.613z" fill="#ffb600"/><path d="m256.12 144.01h166.686v59.698h-166.686z" fill="#ff9500"/><path d="m121.911 107.926h37.132v64.507h-37.132z" fill="#fff"/><path d="m198.926 107.926h37.132v64.507h-37.132z" fill="#fff"/><path d="m275.941 107.926h37.132v64.507h-37.132z" fill="#e9edf5"/><path d="m352.956 107.926h37.132v64.507h-37.132z" fill="#e9edf5"/><g><g><g><g><g><path d="m311.615 374.639c-.212-4.723 4.171-8.746 8.746-8.746.62 0 1.276.009 1.851.131 15.336-16.273 24.683-38.144 24.683-62.269 0-24.092-9.353-45.969-24.651-62.235-.659.168-1.359.245-2.041.245-4.903 0-8.534-4.008-8.746-8.746-.019-.418-.02-.855.03-1.26-15.357-11.864-34.581-18.9-55.487-18.9-20.884 0-40.114 7.04-55.462 18.88.076.421.129.856.148 1.293.212 4.723-4.171 8.746-8.746 8.746-.754 0-1.498-.082-2.184-.26-15.299 16.266-24.652 38.143-24.652 62.236 0 24.091 9.353 45.968 24.65 62.234.668-.172 1.375-.253 2.067-.253 4.903 0 8.534 4.008 8.746 8.746.019.427.008.864-.044 1.277 15.353 11.854 34.58 18.892 55.477 18.892 20.847 0 40.087-7.046 55.422-18.849z" fill="#fff"/></g></g></g></g></g><g><g><g><g><g><path d="m322.245 241.519c-.659.168-1.359.246-2.042.246-4.903 0-8.534-4.008-8.746-8.746-.019-.418-.02-.855.03-1.26-15.327-11.841-34.507-18.87-55.367-18.897v181.786c20.8-.027 39.996-7.066 55.301-18.846l.193-1.162c-.212-4.723 4.171-8.746 8.746-8.746.62 0 1.276.009 1.851.131 15.336-16.273 24.683-38.144 24.683-62.269.002-24.094-9.351-45.971-24.649-62.237z" fill="#e9edf5"/></g></g></g></g></g><path d="m229.366 280.813 6.105-2.331-5.187-13.585-5.371 2.051c-2.348-5.785-5.232-11.297-8.591-16.474l4.439-3.452-8.927-11.478-4.303 3.347c-2.207-2.503-4.545-4.885-6.993-7.151-3.862 2.978-7.448 6.23-10.782 9.779 2.21 1.985 4.288 4.109 6.277 6.315l-5.517 4.291 8.927 11.478 5.355-4.165c2.521 4.017 4.709 8.263 6.528 12.699l-7.096 2.709 5.187 13.584 6.23-2.379c.737 3.406 1.266 6.888 1.572 10.432h-6.132v14.541h6.132c-.307 3.545-.836 7.027-1.572 10.432l-6.23-2.379-5.187 13.584 7.096 2.709c-1.818 4.435-4.007 8.681-6.528 12.699l-5.355-4.165-8.927 11.478 5.517 4.291c-1.988 2.207-4.068 4.329-6.278 6.313 3.334 3.55 6.907 6.792 10.769 9.77 2.448-2.267 4.8-4.637 7.008-7.14l4.303 3.347 8.927-11.478-4.438-3.452c3.359-5.177 6.243-10.689 8.591-16.474l5.371 2.051 5.187-13.584-6.105-2.331c1.221-5.083 2.046-10.318 2.44-15.671h7.231v-14.541h-7.231c-.395-5.353-1.22-10.588-2.442-15.67z" fill="#ff6c52"/><path d="m315.968 359.675 5.517-4.291-8.927-11.478-5.355 4.165c-2.521-4.017-4.709-8.263-6.528-12.699l7.096-2.709-5.187-13.584-6.23 2.379c-.737-3.406-1.266-6.888-1.572-10.432h6.132v-14.541h-6.132c.307-3.545.836-7.027 1.572-10.432l6.23 2.379 5.187-13.584-7.096-2.709c1.818-4.436 4.007-8.681 6.528-12.699l5.355 4.165 8.927-11.478-5.517-4.291c1.988-2.207 4.068-4.329 6.278-6.314-3.334-3.55-6.895-6.783-10.758-9.761-2.448 2.267-4.811 4.629-7.019 7.132l-4.303-3.347-8.927 11.478 4.439 3.452c-3.359 5.177-6.243 10.689-8.591 16.474l-5.371-2.051-5.187 13.585 6.105 2.331c-1.221 5.083-2.046 10.318-2.44 15.671h-7.231v14.541h7.231c.394 5.353 1.219 10.588 2.44 15.671l-6.105 2.331 5.187 13.584 5.371-2.051c2.348 5.785 5.232 11.297 8.591 16.474l-4.438 3.452 8.927 11.478 4.303-3.347c2.207 2.503 4.505 4.916 6.953 7.183 3.862-2.978 7.457-6.228 10.791-9.778-2.211-1.985-4.258-4.143-6.246-6.349z" fill="#ff432e"/></g></svg>