<?xml version="1.0" encoding="utf-8"?>
<!-- Generator: Adobe Illustrator 24.3.0, SVG Export Plug-In . SVG Version: 6.00 Build 0)  -->
<svg version="1.1" baseProfile="tiny" id="Layer_1" xmlns="http://www.w3.org/2000/svg" xmlns:xlink="http://www.w3.org/1999/xlink"
	 x="0px" y="0px" viewBox="0 0 512 512" overflow="visible" xml:space="preserve">
<g>
	<path fill="#E6E2E0" d="M236.8,269.4c8.3,6,18.4,9.5,29.4,9.5h94v45.6l59.6-45.6h25.7c27.7,0,50.2-22.4,50.2-50V50
		c0-27.6-22.5-50-50.2-50H266.2C238.5,0,216,22.4,216,50v219.4H236.8z"/>
	<path fill="#D9D2CE" d="M445.6,0h-43c27.7,0,50.2,22.4,50.2,50v178.8c0,27.6-22.5,50-50.2,50h-25.7l-16.6,12.7v32.9l59.6-45.6h25.7
		c27.7,0,50.2-22.4,50.2-50V50C495.8,22.4,473.3,0,445.6,0z"/>
	<path fill="#FFC60B" d="M317.2,205.5l5.2,4.2c8.2,6.6,18.4,10.3,29,10.3h73.4c7,0,12.6-5.8,12.2-12.8c-0.3-6.6,0-66.6,0-73.4
		c0-6.8-5.5-12.3-12.3-12.3l-49.8-0.2l6.1-14.4c6.3-15,5.3-32.1-2.8-46.3c-4.4-6.8-15-4.3-15.2,4c0,13-4.7,25.5-13.3,35.2
		l-31.8,35.9h-11.6v69.7L317.2,205.5L317.2,205.5z"/>
	<path fill="#00AEEF" d="M312.2,216.6h-33.5c-2.2,0-4-1.8-4-4v-85.5c0-2.2,1.8-4,4-4h33.5c2.2,0,4,1.8,4,4v85.5
		C316.3,214.8,314.5,216.6,312.2,216.6z"/>
	<path fill="#00AEEF" d="M236.8,359V178.5c0-21.8-17.7-39.5-39.6-39.5H55.8c-21.9,0-39.6,17.7-39.6,39.5v141
		c0,21.8,17.7,39.5,39.6,39.5h77.7v36.3l47-36.3H236.8z"/>
	<path fill="#0083CA" d="M197.3,139.1h-56.1c21.9,0,39.6,17.7,39.6,39.5V359h56.1V178.5C236.8,156.7,219.1,139.1,197.3,139.1z"/>
	<path fill="#F7F3F1" d="M178.4,260.6H150l3.1-18.8h25.3c10,0,10-15.5,0-15.5h-22.8l4.3-25.7c1.6-9.8-13.6-12.4-15.2-2.5l-4.7,28.3
		h-18.6l4.3-25.7c1.6-9.8-13.6-12.4-15.2-2.5l-4.7,28.3h-31c-10,0-10,15.5,0,15.5h28.4l-3.1,18.8H74.7c-10,0-10,15.5,0,15.5h22.8
		L93.2,302c-1.6,9.7,13.6,12.4,15.2,2.5l4.7-28.3h18.6l-4.3,25.7c-1.6,9.7,13.6,12.4,15.2,2.5l4.7-28.3h31
		C188.4,276.1,188.4,260.6,178.4,260.6L178.4,260.6z M134.3,260.6h-18.6l3.1-18.8h18.6L134.3,260.6z"/>
	<path fill="#C65CCF" d="M313.4,330.2H213c-15.5,0-28.1,12.5-28.1,28v100.1c0,15.5,12.6,28,28.1,28h55.1V512l33.4-25.8h11.9
		c15.5,0,28.1-12.5,28.1-28v-100C341.5,342.7,328.9,330.2,313.4,330.2L313.4,330.2z"/>
	<path fill="#86328C" d="M313.4,330.2h-43.3c15.5,0,28.1,12.5,28.1,28v100.1c0,15.5-12.6,28-28.1,28h-2V512l33.4-25.8h11.9
		c15.5,0,28.1-12.5,28.1-28v-100C341.5,342.7,328.9,330.2,313.4,330.2z"/>
	<path fill="#F7F3F1" d="M263.2,442.2c24.2-12.8,36.7-23.7,36.7-40.6c0-23.3-28.5-29.1-36.7-11.6c-9.3-18-36.7-11.6-36.7,11.6
		C226.6,418.5,239.1,429.4,263.2,442.2L263.2,442.2z"/>
</g>
</svg>
