<?xml version="1.0" encoding="utf-8"?>
<!-- Generator: Adobe Illustrator 24.1.0, SVG Export Plug-In . SVG Version: 6.00 Build 0)  -->
<svg version="1.2" baseProfile="tiny" id="Layer_1" xmlns="http://www.w3.org/2000/svg" xmlns:xlink="http://www.w3.org/1999/xlink"
	 x="0px" y="0px" viewBox="0 0 998.41 601.37" xml:space="preserve">
<g>
	<path fill="#EB1D26" d="M883.17,330.72c-0.23,3.62,1.31,5.55,5.09,5.81c4.29,0.3,8.57,0.89,12.86,1.36
		c0.88-1.54-1.51-2.22-0.45-3.9c1.14-1.45,2.73-0.17,4.36,0.13c0.36-3.06,0.12-6-0.33-8.98c-2.84-1.5-5.4,1.74-8.22,0.28
		c23.36-12.89,27.27-34.57,26.24-58.36c-0.45-10.29-2.03-20.48-4.37-30.53c-0.29-1.23-0.91-2.55-0.12-3.85l-0.09,0.09
		c1.12,0.26,2.24,0.57,3.56-0.43c-2.17-2.13-0.06-3.92,0.69-5.86c0.57-1.48,0.98-2.82-0.23-4.18c-1.15-1.29-2.17-0.68-3.51-0.17
		c-3.64,1.38-3.26-2.07-4.51-3.77c10.2-3.23,11.19-2.92,11.69,3.62c3.86,0.29,8.63-1.9,10.63,3.49c3.33-1.05,5.05-3.31,5.61-6.92
		c4.54,3.55,8.1,1.19,12.11-1.06c-1.67-1.23-3.29-0.73-4.81-0.7c-5.11,0.1-10.29,0.6-12.91-5.47c-0.47-1.1-1.52-2.01-3.89-1
		c-3.03,1.29-4.28-3.06-6.56-4.89c-4.78,0.94-9.58,2.47-15.07,2.02c-4.23-15.73-8.54-31.43-12.67-47.18
		c-4.14-15.79-8.78-31.39-16.36-46.49c4.63-2.92,8.74-6.29,8.36-12.45c-0.71-0.81-1.52-0.35-2.27-0.12
		c-7.41,2.18-13.77,2.25-18.09-6.01c-1.73-3.31-5.75-5.37-8.43-8.26c-2.15-2.32-4.73-4.96-0.97-8.17c5.89,5.08,7.11,5.14,14.11,0.65
		c1.54,2.08,3.09,4.17,5.05,6.82c0-1.77,0-2.94,0-4.13c2.71-1.55,5.75-1.04,8.79-2.1c-6.17,0.37-6.81-3.64-6.75-8.19
		c-3.9,0.88-7.55,0.78-11.2,0.54c-10.47-0.67-10.96-0.3-13.65,10.6c-6.06-6.98-14.57-0.05-21.61-4.56c1.18-0.55,2.07-0.96,2.96-1.37
		c-4.8-1.82-9.64-1.85-14.33-0.65c-17.1,4.34-34.17,8.8-51.22,13.37c-93.9,25.15-187.8,50.31-281.66,75.58
		c-5.46,1.47-10.93-0.7-16.31,0.95c-2.03,0.62-4.36,0.38-5.37,2.87c-0.16,0.4-0.7,0.83-1.13,0.92
		c-13.7,2.81-26.09,10.17-40.18,11.62c-0.15,0.02-0.31-0.11-0.65-0.25c1.96-2.27,4.93-2.54,7.59-4.08
		c-2.97-3.69-5.84-7.25-9.32-11.58c-1.16,1.93-2.08,3.47-2.97,4.97c-2.12-1.3-3.37-2.06-4.65-2.85c-0.14,5.54,0.08,6.03,4.31,9.84
		c-0.88,7.28-6.69,7.69-11.94,9.1c-79.76,21.33-159.5,42.7-239.25,64.07c-1.28,0.34-2.54,0.77-3.7,1.13
		c-0.69,1.45,1.32,2.47,0.04,4.29c-5.77,0.06-9.43-3.19-11.85-8.62c-3.33,3.44-7.99,4.48-11.52,7.07
		c-10.24,7.52-22.53,9.02-34.1,12.66c-15.62,4.91-25.73,15.14-31.04,30.66c-1.24,3.62-3.39,7.63-7.72,9.26
		c-0.35,3.54,2.65,3.67,5.06,4.51c-1.7,20.02,1.62,39.32,6.67,58.59c-11.06,4.47-21.9,8.85-33.59,13.57
		c3.25,1.76,5.3,0.01,7.71-0.06c1.41,2.01,3.21,3.92,5.31,5.52c3.24-1.83,6.76,0.75,7.03,4.92c0.14,2.14-2.72,4.44,0.14,6.38
		c2.94,1.99,6.15,3.33,9.82,3.14c0.99-0.05,1.97-0.1,3.3-0.17c0.46-3.11,0.98-6.25,3.61-8.33c-4.37-5.18-4.34-8.69,0.02-10.42
		c3.39,5.51,2.15,13.06,7.06,18.26c-0.52,0.53-0.01,2.45,2.93,7.43c-1.14-0.67-1.89-1.1-2.96-1.73c0.95,3.69,1.83,7.13,2.74,10.69
		c-2.56,2.2-4.8,2.01-6.68-1.21c-1.55,2.17-2.95,4.13-4.9,6.86c0-2.46,0-3.98,0-5.85c-3.5,0.3-6-3.33-9.63-1.46
		c-0.21,3.41,6.37,3.52,3.38,8.32c6.72,0.53,13.21,5.23,18.46-1.82c3.76,2.09,2.4,6.03,3.21,9.21
		c4.74,18.56,10.35,36.79,20.22,54.55c-8.69-3.13-16.68,0.64-25.29-1.54c0.78,2.62,1.45,4.89,2.23,7.54
		c-5,2.51-10.44,2.3-15.83,2.33c-9.23,0.05-9.2,0.02-12.72-8.46c-6.6-15.89-11.06-32.44-15.4-49.03c-1-3.81-2.34-7.54-3.9-12.5
		c-1.78,4.88-1.33,9.1-3.56,12.59c-0.29-5.17,0.96-10.16,2.58-14.96c0.6-1.78,3.05-0.67,4.56-0.35c5.41,1.16,10.17,3.94,15.39,6.56
		c0.87-2.4,2.03-4.52,4.48-5.53c-3.6-6.13-9.08,3.8-12.34-2.63c6.93-7.59,16.53-8.22,25.81-9.6c-0.54-2.3-0.54-2.3-10.83-6.47
		c-0.81,2.74-1.88,5.39-5.72,6.16c-1.87-4.95-6.26-3.37-10.62-2.87c-0.37-2.59,0.17-6.14-3.75-6.04c-2.59,0.06-5.15,0.98-7.84,1.54
		c-1.85-3.18-1.88-6.64-3.16-9.64c-1.41-3.31-0.07-8.16-5.18-9.53c-0.37-0.1-0.55-1.16-0.71-1.8c-7.23-27.93-11.82-56.09-7.21-85.01
		c2.28-14.31,6.92-27.75,15.05-39.86c1.57-2.35,1.53-2.38,0.89-7.76c1.81,0.45,3.33,2.03,5.29-0.29
		c13.63-16.13,31.59-25.11,51.67-30.4c1.13-0.3,2.24-0.63,3.37-0.93c5.15-1.37,10.25-2.97,15.46-4.04c5.58-1.14,8.1-6.63,13.29-8.63
		c2.35,3.97,5.79,3.54,9.81,2.46c98.38-26.45,196.77-52.84,295.2-79.08c5.68-1.51,10.53-4.84,16.5-5.79
		c12.75-2.02,25.21-5.5,37.68-8.85c102.73-27.58,205.47-55.08,308.21-82.61c29.49-7.9,57.43-5.83,82.78,12.88
		c7.83,5.78,14.51,12.74,20.55,20.33c0.7,0.88,1.67,1.72,1.1,3.53c-4.11,2.71-9.15,3.46-14.15,4.03c0,2.14,0,4.07,0,6.66
		c2.22-1.38,3.97-2.47,5.82-3.61c2.61,1.5,1.39,4.01,1.57,6.42c3.75-0.09,7.3-3.53,11.57,0.09c-1.12-4.07-3.57-3.16-5.5-2.91
		c-3.53,0.45-4.96-1.36-5.18-4.48c-0.25-3.62,2.67-3.43,4.82-3.34c2.79,0.11,5.71-1.65,8.45,0.49c-0.58,1.35-1.74-0.16-2.72,0.78
		c2.97,5.01,6.01,10.14,9.43,15.91c-10.99,1.78-20.42,5.84-30.41,10.26c10.01,9.04,22.18,2.01,32.4,5.57
		c1.26-1.49,1.05-3.48,3.2-4.63c12.59,27.04,17.77,56.31,26.21,84.43c4.23,0.66,2.62-4.31,5.42-5.46c0.56,3.6,1.07,6.93,1.54,9.96
		c-1.4,2.24-3.69,0.73-5.33,1.97c1.52,5.74,3.4,11.45,4.48,17.31c1.31,7.08,4.27,13.68,5.18,20.9c0.98,7.75,2.62,15.42,3.48,23.2
		c0.86,7.8,1.22,15.61,1.02,23.44c-0.67,25.64-6.61,49.49-24.21,69.19c-13.33,14.93-30.45,23.49-49.45,28.61
		c-45.64,12.31-91.31,24.52-136.97,36.76c-0.64,0.17-1.27,0.35-1.76,0.48c-1.29,1.19,0.5,2.3-0.46,3.58
		c-2.96,0.04-6.14-1.07-8.35-0.53c-1.11-0.09-1.18-0.1-1.24-0.1c2.74-0.91,5.48-1.81,8.36-2.77c0.53-2.61-1.35-4.58-1.85-7.23
		c-15.4,5.97-31.56,5.09-47.25,7.43c-6.58,0.98-13.27,1.47-19.16,5.05c-0.82,0.5-1.57,0.34-2.29-0.24
		c-1.11-1.78,1.48-2.45,0.91-5.05c-6.2,2.38-5.38,10.33-10.5,13.18c3.39-0.15,6.83-0.71,10.16-0.33c2.78,0.31,6.61-2.78,8.5,2.14
		c0.15,0.39,3.66-0.47,5.6-0.83c2.43-0.44,4.85-0.96,7.39-0.95c-40.11,10.76-80.22,21.49-120.31,32.34
		c-4.48,1.21-5.9-1.56-7.68-4.93c3.27-1.38,3.09-3.85,2.04-6.57c-1.6-4.14-1.39-7.16,4.52-6.28c-0.43-1.28-0.7-2.1-0.97-2.91
		c2.43-1.24,4.3,0.42,5.98,0.74c4.94-2.16,3.01-6.85,3.85-10.25c0.54-2.16-2.3-4.39-5.38-3.16c-2.46,0.98-4.8,2.29-7.56,3.63
		c2.05,2.91-3.39,5.57,1,9.78c-8.69-4.4-17.5,2.73-25.64-4.07c2.96-0.82,5.24-1.46,7.97-2.22c-4.49-3.71-7.31-8.05-8.28-13.95
		c4.66-1.27,9.25-2.53,13.81-3.77c1.47,1.55-0.44,2.94,0.24,4.54c0.83,1.15,2.85-0.14,3.97,1.71c-0.53,2.94-2.17,6.73,2.39,8.49
		c4.8,1.86,2.65-4.53,6.72-4.5c-2.43-1.63-3.91-2.63-5.86-3.93c1.95-0.17,2.55-1.82,3.97-2.47c5.28,3.36,10.93,5.74,16.49,7.89
		c0.57,1.81-1.11,2.6-1.1,3.93c-0.23,0.36-0.74,0.87-0.64,1.06c0.47,0.91,0.97,0.13,1.45-0.11c5.46-2.66,11.43-3.49,17.26-4.84
		c6.05-1.4,11.94-3.17,15.16-9.3c-1.78-2.76-3.59-2.93-5.58-0.47c-1.04,1.29-1.97,2.69-3.11,3.89c-1.82,1.9-3.88,1.19-6.02,0.46
		c-2.43-0.83-3.3-2.51-3.47-4.9c-0.24-3.25,0.16-6.74-3.05-9.44c-9.24,4.05-3.44,11.57-3.56,17.56c-6.89-0.7-7.88-1.58-9.65-8.32
		c-4.71,1.4-7.91-1.08-11.23-4.68c3.31-0.94,5.26-2.9,6.66-5.63c1.46-2.84,3.57-4.37,5.84-0.72c1.44,2.32,3.12,1.8,5.15,1.25
		c43.23-11.61,86.47-23.19,129.7-34.78c20.73-5.56,41.46-11.13,62.19-16.7c1.43-0.38,2.85-0.82,4.28-1.24
		c-0.34-1.08-0.61-1.97-0.87-2.79c0.47-0.32,0.71-0.61,1-0.67c27.06-5.41,54.3-10.01,80.77-18.09c1.24-0.38,2.71-1.49,4.13-0.18
		L883.17,330.72z M544,142.55c-2.55-0.06-3.18-0.91-3.1-3.37c0.07-2.06,2.08-2.89,2.63-4.73c-2.94-3.35-5.51-1.79-8.04,0.48
		c-3.65,3.27-6.63,7.58-12.46,7.59c0.42,2.94,0.48,5.58,2.14,8.38c1.42-3.01-1.57-5.09-0.48-7.7c6.69,3.1,13.02,2.38,19.24-0.66
		c2.92,0,5.83,0,8.88,0c0.18-1.82-1.13-3.4,0.51-4.65c1.53-0.86,2.7,2.08,4.52,0.51c-0.72-4.85-5.57-2.22-7.43-4.56
		C547.37,136.47,548.08,141.24,544,142.55z M582.29,114.67c0.02,0.2,0.03,0.39,0.05,0.59c0.05-0.08,0.16-0.2,0.14-0.23
		c-0.08-0.11-0.2-0.2-0.3-0.29c1.08-4.88,5.36-4.31,8.68-4.62c2.98-0.29,5.9,0.79,6.78,4.94c-2.89-0.52-5.17-0.3-4.57,3.58
		c5.93,0.5,6.09-7.05,11.39-7.15c-2.23-6.42,0.13-14.04-8.83-16.96c4.41,4.69-0.03,6.33-1.88,8.98c-1.21,1.75-2.45,2.54-4.47,2.27
		c-2.42-0.33-1.97-2.24-2.15-3.83c-0.35-3.1-1.9-5.94-5.05-5.66c-2.95,0.26-5.78,2.19-5.94,6.09c3.15,0.54,6.01-1.33,8.97-0.31
		c-1.43,6.16-4.46,8.22-10.78,7.37c-4.11-0.55-8.06-2.04-12.28-1.95c-2.93,0.06-4.68,1.63-5.34,4.32c-0.45,1.82-1.45,3.93,1.03,5.27
		c4.61,2.49,9.21,4.99,13.81,7.49c-1.45-2.9-4.9-3.03-6.78-5.84C571.04,118.17,576.22,114.58,582.29,114.67z M483.05,122.37
		c3.01,4.23,2.08,8.09,2.22,11.81c0.15,3.93,1.15,7.58,5.39,8.59c4.47,1.06,3.81,4.44,4.97,8.5c-9.55-5.45-16.79-13.63-28-12.59
		c-0.74,3.6-4.22,6.48-1.43,10.12c-3.08,2.74-5.18-0.57-8.51-1.22c2.05,2.18,1.87,4.52,2.96,5.93c1.15,1.49,3.41,2.13,5.56,3.36
		c-0.32-1.32-0.5-2.07-0.68-2.85c6.13-1.39,10.9,4.08,17.06,3.15c0.12-1.49,0.25-3.1,0.39-4.91c5.42-1.03,10.75,0.45,16.01-0.26
		c5.4-0.73,6.87-3.03,5.45-8.51c-11.53,1.21-12.75,0.28-15.16-11.51c-0.3-1.47-0.58-2.95-1.09-4.35
		C487.45,125.62,486.6,123.62,483.05,122.37z M94.1,251.85c-9.39-6.15-19.09-10.82-31.48-8.74c2.29,2.63,2,4.51-0.04,6.82
		c-1.34,1.51-0.54,3.82,1.79,5.28c7.95,4.97,16.19,4.39,24.64,2.43c-0.11-2.4-2.28-3.5-1.75-5.79
		C89.54,251.85,91.82,251.85,94.1,251.85z M776.49,377.15c10.52,1.67,19.45-0.68,28.23-3.43c2.17-0.68,2.29-3.34-0.08-4.04
		c-4.85-1.44-9.24-6.43-15.04-2.18c-2.53,1.85-3.42-1.24-4.66-2.26C778.95,366.9,779.81,372.74,776.49,377.15z M632.24,419.56
		c-1.3,2.6-2.24,5.15-4.49,7.14c0.95,0.29,1.25,0.44,1.56,0.46c4.31,0.35,8.76,0.14,12.9,1.18c4.44,1.11,8.11-3.57,12.54-0.98
		c0.81,0.47,1.85-0.55,2.16-1.61c0.32-1.09-0.3-2.03-1.02-2.65c-1.67-1.44-3.71-1.16-5.72-0.93c-2.2,0.25-4.46,0.61-6.2-1.6
		c2.42-2.24,5.68-2.01,7.71-4.17c-0.84-2.06-1.52-4.37-4.25-4.16c-4.05,0.31-2.89,4.04-3.46,6.13c-1.54,0.91-2.94-0.42-4.24,0.77
		c0.72,1.18,2.18,2.15,1.45,4.09C637.78,423.54,635.81,420.27,632.24,419.56z M841.96,54.3c4.47-2.01,4.47-2.01,9.53,3.93
		c1.78-1.32,3.55-2.65,5.19-3.86c2.06,1.05,3.89,1.98,6.38,3.25c-0.69-3.25-2.29-3.91-4.48-3.7c-1.48,0.14-2.94,0.39-4.42,0.54
		c-1.56,0.16-3.19,0.07-3.61-1.78c-0.4-1.76,1.28-2.03,2.42-2.62c1.23-0.64,2.95-0.42,3.72-2.22c-4.79-0.4-9.26,0.9-14.02,1.22
		C842.44,50.73,842.25,52.16,841.96,54.3z M952.19,259.68c-0.06,7.55-5.33,5.52-10.15,5.45c9.56,3.87,15.1,3.33,18.93-1.77
		C958.18,262.2,955.49,261.07,952.19,259.68z M176.12,239.02c3.82,0.31,6.75,0.6,9.69,0.77c3.44,0.2,4-1.76,3.02-4.48
		c-0.49-1.36-1.41-2.58-2.26-4.07C183.29,233.62,179.47,235,176.12,239.02z M865.33,356.43c5.06,5.78,9.87,1.91,14.59,0.85
		C875.3,356.13,870.85,352.5,865.33,356.43z M806.1,46.47c3.78,5.45,9.09,7.56,12.92,5.41C814.87,50.14,811.03,48.53,806.1,46.47z
		 M898.69,114.08c0.09,0.47,0.17,0.94,0.26,1.41c3.09-0.05,7.15,4.16,8.81-3.15C904.61,112.94,901.65,113.51,898.69,114.08z
		 M845.8,76.71c2.33,0.56,4.76,5.48,7.12-0.08C850.57,75.36,848.21,75.7,845.8,76.71z"/>
	<path fill="#EB1D26" d="M481.4,437.49c-0.37-2.94-3.06-2.76-4.46-4.36c3.02-1.08,5.93-2.13,9.35-3.36
		c-0.48,2.41-0.17,4.4,2.63,5.59c-2.37,0.76-4.08,1.3-5.75,1.84c-0.45,1.82,0.78,2.96,1.39,4.25c4.07,8.59,4.07,8.52,11.82,3.28
		c3.01-2.04,6.48-0.8,9.73-0.81c4.92,0,9.85,0.31,12.61-5.2c3.03,1.4,6.02,1.07,8.98,1.2c3.68,0.16,3.75,0.33,3.21,5.08
		c-12.15-2.3-18.91,5.43-25.32,13.88c-2.01,2.65-4.11,5.27-6.46,7.6c-5.54,5.51-7.23,5.57-13.8,1.44c-2.74-1.72-5.19-4.11-8.87-4.28
		c-0.31,9.77,10.05,12.85,12.1,20.27c-96.5,25.82-193.2,51.7-289.99,77.61c0.16,0.94,0.2,1.41,0.31,1.85
		c2.44,9.4,2.45,9.42,11.75,7.01c1.73-0.45,3.4-1.21,5.31-0.33c-1.53,3.95-10.23,5.01-4.1,12.08c-3.85,1.46-7.34,2.78-10.69,4.06
		c-0.84,1.87,0.91,2.45,1.4,3.54c1.48,3.3,2.2,6.09-2.73,6.84c-3,0.46-4.63,3.02-6.61,4.79c-1.21,0.06-1-0.85-1.17-1.38
		c-2.52-7.89-2.52-7.89-10.6-8.05c-3.86-0.08-5.06-1.02-8.23-6.76c3.14-1.03,6.21-2.04,9.16-3c-4.23-3.41-11.27-2.98-18.24,1.78
		c6.71-0.59,4.3,9.99,11.82,7.61c0.35,4.09-2.21,4.02-4.79,4.15c-37.06,1.83-68.15-10.99-93.37-38.11
		c-21.09-22.68-33.94-49.95-43.65-78.93c-4.6-13.74-7.86-27.87-11.75-41.81c-0.17-0.6-0.09-1.27-0.13-1.97
		c2.15-0.56,3.64,0.76,5.27,1.31c2,0.66,3.46,1.26,5.79-0.14c3.45-2.08,6.96,0.1,8.04,4.22c6.45,24.67,13.43,49.13,25.56,71.79
		c9.62,17.97,21.41,34.18,37.78,46.59c25.5,19.33,54.19,23.3,84.85,16.93c3.37-0.7,5.95-2.74,7.25-6.5
		c-3.42-2.18-6.89-3.89-10.91-4.62c-1.03,1.68,1.54,2.28,0.27,4.28c-10.26-2.74-21.26-1.66-32.62-2.61c0.29-3,0.53-5.56,0.81-8.44
		c4.12,1.61,7.61,2.1,8.95-3.93c-8.43-9.09-19.99-11.2-32.16-12.17c-0.8-0.41-0.67-1.29-0.74-2.1c-0.06-0.65-0.16-1.29-0.25-1.99
		c-1.74,0.73-3.33,1.4-5.14,2.16c0.53,1.46,1.02,2.82,1.51,4.18c-3.13,3.64-7.34,4.59-11.56,5.62c-2.1,0.51-3.47-0.54-4.93-1.71
		c-10.66-8.53-19.79-18.57-26.25-30.48c-2.33-4.28-3.83-8.75-7.94-12.1c1.46,0.11,2.91,0.21,4.49,0.33
		c0.43-2.39-2.82-5.54,0.82-6.99c4.2-1.67,6.25,2.66,9.2,4.4c1.76-1.31,0.3-3.2,1.14-4.78c8.66,2.46,16.94-1.95,25.61-1.45
		c1.08-0.9-0.36-1.7,0-2.78c1.72-0.54,3.58-1.12,5.49-1.72c2.58,4.47,5.75,8.53,9.26,12.3c13.11,14.1,29.07,18.88,47.67,13.92
		c82.16-21.93,164.3-43.95,246.44-65.99c1.48-0.4,3.17-0.46,3.94-2.51c1.85-4.91,5.98-5.18,9.89-3.43c2.58,1.16,4.65,1.01,7.1,0.34
		C458.39,443.65,469.9,440.59,481.4,437.49z M284.02,507.25c-6.29-3.89-11.53,4.09-17.12,0.68c-1.24,1.83,1.03,2.48,0.06,3.75
		c-2.79,1.09-6.4-2.36-7.97-0.45c-4.09,4.95-9.82,7.44-16.04,11.58c7.54-0.05,14.11,3.86,19.06-2.83c1.51,1.07,2.85,2.01,4.56,3.22
		c1.7-3.57,6.28-5.49,3.77-10.37c2.53-0.89,4.77-1.53,6.89-2.47C279.45,509.38,282.13,509.35,284.02,507.25z M397.38,493.84
		c-1.64-3.19-0.92-7.06-4.93-6.9c-3.36,0.13-2.7,3.35-3.64,6.01C391.67,493.25,394.04,493.5,397.38,493.84z"/>
	<path fill="#EB1D26" d="M792.09,277.67c-0.14,3.5,3.27,6.08,2.52,10.31c-3.3-2.14-6.67-3.51-10.96-3.15
		c0.44,1.58,2.82,3.9-0.63,4.26c3.35,2.37,9.03,0.63,10.18,6.5c8.12,1.31,5.9,8.76,7.55,13.54c3.15,9.09,5.16,18.58,7.71,28.19
		c-4.23,2.25-8.86,2.87-13.27,4.07c-21.03,5.74-42.11,11.33-63.18,16.94c-2.89,0.77-5.78,1.5-8.83,1.55
		c-4.38,0.06-7.39-1.79-8.77-5.95c-1.35-4.08-0.66-8.18,3.16-10.1c9.85-4.96,9.56-12.19,6.82-21.37
		c-5.28-17.67-9.69-35.6-14.45-53.4c2.3-2.21,4.76-2.73,7.83-1.63c-0.18-4.36,2.68-5.64,5.59-7.11c-2.28-1.05-3.8-0.76-5.95,0.81
		c-2.24,1.64-5.53,1.84-8.8,2.8c-3.54-13.15-7-25.96-10.44-38.77c-5.57-20.74-11.13-41.47-16.71-62.21
		c-3.09-11.5-3.29-11.66-14.74-13.17c-0.81-0.11-1.69-0.05-2.82-2.34c6.23,2.97,10.7-0.32,15.5-2.3c-4.73-0.39-9.49-0.16-13.81,2.04
		c-2.34,1.19-4.37,1.88-5.75-0.6c-1.15-2.05-4.15-4.04-0.85-7.12c1.22-1.14-1.04-4.12,1.8-5.71c2.8-1.57,5.66-2.83,8.71-3.65
		c14.14-3.82,28.3-7.57,42.45-11.35c11.57-3.09,23.13-6.2,35.48-9.52c0.47,5.5,5.27,10.18,0.77,15.9c-0.72,0.91-0.87,2.17-2.39,1.84
		c-0.74-0.16-0.73-0.65-0.02-3.32c-1,0-1.38,1.65-2.89,0.73c-1.27-0.78-3.99-2.45-3.19,1.71c0.18,0.92-0.97,0.65-1.41,0.57
		c-3.37-0.66-7.27,0.96-10.04-2.34c-0.22-0.27-0.91-0.14-1.39-0.2c-0.2,6.5-0.16,6.09,6.19,6.82c2.98,0.34,6.83-1.3,8.85,3.1
		c1.13-2.14,1.9-3.59,2.69-5.08c1.2,0.82,2.38,1.62,3.64,2.47c-0.64,0.98-1.17,1.79-1.73,2.65c1.03,0.81,2.63,0.36,3.97,2.86
		c0.13,0.29-2.09,0.28-2.15,1.6c2.36,1.24,4.01-1.25,6.63-0.94c2.51,9.4,5.07,18.98,7.64,28.56c5.05,18.81,10.11,37.62,15.16,56.43
		c1.94,7.21,1.16,9.06-5.16,12.43c-1.01,0.54-2.02,1.08-3.06,1.64c3.14,3.75,3.21,3.86,8.08,0.96c2.09-1.24,3.68-1.95,4.47,1.05
		c3.41,13.03,6.77,26.08,10.14,39.12c-1.34,0.1-2.98-0.54-3.57,1.47C792.15,280.56,792.15,280.56,792.09,277.67z M735.76,221.26
		c4.95-0.7,9.71-0.01,14.08-2.29c1.49-0.78,3.23-0.35,4.76,0.61c0.96,0.6,2.04,1.46,3.23,0.82c4.45-2.36,8.04-1.04,10.75,2.41
		c4.65-0.82,0.81-5.86,4.38-6.95c-3.58-2.65-7.26-3.75-11.27-1.97c-1.67,0.74-2.86,0.07-4.18-0.6c-3.45-1.76-5.45-4.81-7.4-8.34
		c4.1-0.91,1.63-4.94,3.73-7.14c-2.54,0.62-4.65,0.03-6.86-0.52c-1.28-0.32-2.94-1.45-4.4,0.65c-2.27,3.26-6.08,3.95-9.72,3.9
		c-4.02-0.05-6.17,1.89-7.79,5.28c4.46,2.41,8.85-0.53,13.46,0.59c5.69,1.38,8,2.09,9.12,8.47c-3.39-0.91-6.39,3.94-10.05,0.33
		C738.9,219.03,735.95,219.28,735.76,221.26z M753.01,276.07c-1.88,0.02-1.68-2.25-3-2.31c-3.19,0.99-5.52,3.54-8.79,3.73
		c-3.2,0.19-5.33,3.54-8.97,2.73c2.84,3.22,6.07,5.83,9.83,6.99c2.44,0.75,4.83-1.38,6.07-3.76c0.8-1.52,1.2,0.5,2.2-0.1
		c3.52-2.11,7.79,0.45,11.84-1.51c-0.52-2.14-1.24-4.59,1.12-6.32c4.98,2.95,11.25,0.48,15.94,4.48c-0.21,1.51-1.27,2.99-0.75,4.96
		c0.96-0.01,2.04,0.75,3.05-0.82c-3.34-4.66,0.78-5.02,4.47-5.88c-1.12-1.25-1.93-2.81-2.56-2.74c-5.11,0.57-9.6-3.52-14.81-1.87
		c-3.27,1.04-6.67,0.91-9.79-0.19C755.71,272.35,753.93,273.2,753.01,276.07z M725.24,218.75c1.55-1.25-1.04-2.07,0.06-3.13
		c2.49-1.73,6.03-0.49,8.77-2.73c-7.55-2.52-12.02-0.55-15.64,7.22C720.6,218.16,722.91,217.33,725.24,218.75z M700.18,150.57
		c-2.06-0.87-4.67-1.23-6.02-2.74c-1.64-1.82-2.51-3.56-5.04-1.22C692.53,149,695.39,152.35,700.18,150.57z M771.3,304.18
		c-2.42,0-4.15,0-6.05,0C768.1,307.4,768.1,307.4,771.3,304.18z"/>
	<path fill="#EB1D26" d="M312.07,246.75c9.26-3.59,12.85-12.56,19.77-18.09c6.64-5.31,13.13-10.44,22.31-9.8
		c2.16,0.15,3.94-0.49,5.83-1.92c3.45-2.61,7.38-0.84,8.8,3.27c1.56,4.52,1.49,7.6-2.99,11.33c-17.39,14.51-11.6,37.1,7.45,43.8
		c2.04,0.72,4.06,1.51,6.14,2.08c4.74,1.31,9.97,1.46,12.57,5.89c2.63-0.15,1.47-1.79,2.15-2.68c14.43,2.01,29.05,3.08,43.23,7.09
		c15.17,4.29,28.85,11.39,40.27,22.18c3.94,3.71,6.26,9.14,9.21,13.62c1.45,0.76,1.76-1.72,3.08-0.81c0.11,0.17,0.28,0.32,0.26,0.42
		c-2.7,11.46,7.75,20.76,4.67,31.83c2.54,1.95,5.55,0.44,7.41,3.12c-2.85,0.7-5.44,2.05-7.12,4.62c0.44,1.48,1.71,0.77,2.74,1.34
		c-3.04,0.85-2.15,3.37-2.58,5.39c-0.62,2.91,0.91,7.19-4.52,7.23c-0.8,0.01-0.57,1.5-0.95,2.04c-0.94,1.33-0.91,3.83-3.72,3.27
		c-2.6-0.52-1.95,1.29-1.93,2.78c2.46,0.26,4.35-0.62,5.99-1.91c1.79,2.18,0.96,3.95,0.2,5.83c-3.87,9.54-9.9,17.56-16.53,25.37
		c-5.23,6.17-11.87,10.08-18.42,14.27c-7.04,4.51-14.7,7.75-22.92,10.15c-1.83-2.44-2.06-5.38-2.6-8.13
		c3.13-2.49,3.79,3.71,6.94,1.48c-1.69-1.87-3.35-3.56-5.9-3.88c-2.32-0.29-2.77-2.02-3.2-3.84c-0.5-2.13,0.59-3.25,2.28-4.37
		c6.28-4.19,12.11-8.89,15.36-16c0.89-1.94,1.45-4.04,2-5.61c-0.62-2.43-3.23-1.82-3.74-3.64c-0.08-2.6,2.92-0.96,3.55-2.58
		c-0.44-11.05-3.83-15-13.43-15.58c-1.08-1.54,1.44-2.55,0.02-4.83c-8.65-3.07-17.94-5.6-28.33-6.02
		c-6.92-0.28-14.31-2.67-21.49-4.1c-8.17-1.62-16.3-3.35-24.23-5.94c-1.27-0.41-2.4-0.93-3.84-0.47c-2.42,0.77-4.25,0.04-6.17-1.92
		c-3.57-3.65-8.28-5.39-12.98-7.44c-3.08-1.34-7.4-4.67-8.26-8.12c-1.18-4.7-3.82-4.13-6.99-3.92c0.82-2.46,4.17-1.98,4.49-5.01
		c-5.04,1.63-6.74-1.96-8.48-5.37c-11.59-22.62-14.47-45.78-4.27-69.74C314.49,250.38,314.47,250.37,312.07,246.75z M456.91,345.43
		c2.22-2.04,3.33-5.23,7.69-2.8c-5.24-5.99-9.11-6.95-12.91-3.9c6.03,0.73,6.03,0.73,5.12,4.67c-3.6-0.6-6.97,0.65-10.69,1.74
		c0.22-5.63-3.58-6.14-7.21-5.16c-2.48,0.67-3.91-0.18-6.48-2.41c1.95,5.17-3.11,3.4-3.62,5.82c4.98,1.52,10.94-3.04,14.35,0.49
		c2.88,2.98,7.06,5.72,7.39,10.06c5.84,0.41,9.06-3.08,12.38-6.22C461.89,346.47,461.51,346.31,456.91,345.43z M490.15,365.33
		c-0.93-2.66,1.87-4.27,1.57-6.31c-0.27-1.82-0.08-4.61-2.68-5.26c-2.82-0.7-5.69-0.51-7.96,1.68c-1.63,1.57-2.83,3.34-5.77,2.72
		c-4.54-0.96-6.37,1.09-5.62,5.71c-2.5,1.49-6.36-0.05-8.03,3.23c5.6,2.97,11.34-7.6,17.03,0.52
		C481.87,364.93,485.87,366.36,490.15,365.33z M403.94,329.82c-5.06-5.18-5.92-5.23-12.13-2.42c-1.84,0.83-3.93,1.36-6.25,0.87
		c-1.81-0.38-4.52-0.54-3.6,3.1c0.17,0.67-0.33,1.97-1.48,2.29c-3.43-2.31-7.86-0.5-11.48-3.05c0-0.54,0.09-1.33-0.03-2.09
		c-0.11-0.7,0.16-1.75-1.1-1.79c-0.59,3.46-0.59,3.46-4.7,6C377.63,336.84,390.87,335.67,403.94,329.82z M461.43,314.84
		c-2.77-1.54-2.77-1.54-5.11-0.12c-4.6,2.78-9.81,1.3-12.82-3.12c-0.94-1.38-3.33-2.5-5.05-1.35c-1.3,0.87-1.99,0.3-3.07,0.16
		c-1.78-0.24-4.24-2-5.24,0.55c-0.98,2.49,1.86,3.38,3.25,4.89c1.63,1.77,5.53,0.86,5.15,4.28
		C447.15,322.06,454.15,318.39,461.43,314.84z M360.14,326.75c-0.95-1.3-1.65-2.48-2.87-2.32c-7.13,0.91-14.08,2.7-20.95,4.75
		c-0.93,0.28-1.6,1.17-1.11,2.37c0.55,1.35,1.54,1.51,2.82,1.16C345.33,330.72,352.64,328.77,360.14,326.75z M333.49,255.09
		c3.32-1.02,6.81-3.69,10.04-1.55c1.86,1.23,3.36,1.29,4.05,0.19c0.99-1.58,1.94-3.88,0.32-5.74c-1.12-1.28-2.33-2.66-4.59-1.21
		c-2.36,1.51-3.08,4.13-4.75,6.01C334.69,251.23,334.69,251.23,333.49,255.09z M331.73,244.04c-6.68-3.27-10.89-1.69-12.25,4.31
		C325.95,250.4,329.38,249.24,331.73,244.04z M430.59,338.28c-3.16-2.42-6.52,1.23-8.55-2.27c1.03,4.15-2.39,3.47-4.07,4.08
		c-1.3,0.47-3.24-0.22-2.79,2.15c0.48,2.54,2.46,1.76,3.86,1.19C422.75,341.92,426.37,340.17,430.59,338.28z M461.34,384.94
		c2.8-1.89,4.89-2.86,3.07-5.53c-1.84-2.71-3.76-0.94-5.79-0.01C461.91,379.55,461.63,381.89,461.34,384.94z M442.64,418.7
		c3.78,3.9,6.11,0.01,8.83,0.03C448.51,416.29,446.16,419.99,442.64,418.7z M466.04,403.39c4.54,3.45,5.32,3.23,6.37-1.18
		C470.3,401.54,468.67,403.1,466.04,403.39z M429.55,307.19c-2.27-0.61-3-4.4-6.99-2.8C424.52,306.99,426.75,307.67,429.55,307.19z"
		/>
	<path fill="#EB1D26" d="M491.83,215.11c2.45-3.16,1.8-4.15-4.3-6.04c1.06,1.3,1.92,2.37,2.85,3.52c-1,2.37-3.74,3.35-3.79,6
		c-2.54-0.49-1.95-2.17-2.16-3.56c-1.62-10.4-4.17-12.85-14.46-13.36c-4.77-0.24-7.87-2.59-9.29-6.85
		c-1.39-4.18,1.21-8.39,6.46-11.11c0.34,1.98-2.38,3.72-0.09,5.79c2.14,1.94,3.67-0.19,5.75-0.12c-4.1-0.45-1.95-4.69-4.53-6.42
		c3.38-0.93,6.5-1.79,9.62-2.66c3.2-0.89,6.4-1.78,9.42-2.62c1.39-1.85-1.4-5.28,2.18-5.69c2.38-0.27,4.93,0.48,5.59,3.72
		c5.5-1.46,10.92-2.91,16.33-4.35c-0.27-1.32-2.17-0.22-2.14-1.86c14.35,1.25,26.93-6.39,40.72-8.07c3.22,3.35,0.8,9.57,5.97,12.03
		c-1.1,2.2-0.98,3.59,1.2,12.92c-3.93,1.88-7.27,2.02-11.16-1.02c-4.73-3.7,0.44-6.74-0.32-10.3c-8.35-0.47-15.39,3.39-22.71,7.02
		c6.34,2.08,15.33-2.83,18.34,6.85c-2.57,3.03-7.33,0.26-9.65,4.77c3.95-0.58,7.63-1.59,10.78-1.39c4.97,0.31,10.41-1.99,15.21,2.2
		c3.8,3.32,4.8,8.62,0.67,12.03c7.76,1.67,5.78,8.81,8.04,13.62c1.03,2.2-0.1,5.81,4.52,5.74c-3.93,3.39-0.4,6.4-0.79,10.25
		c-13.76-1.74-27.65-2.55-40.35,4.43c4.57,5.27,6.14,5.54,12,2.52c1.56-0.8,3.5-1.19,5.26-1.18c1.8,0.02,3.56,0.36,5.37-0.55
		c0.49-1.41-0.83-3.29,1.05-4.56c3.94,0.71,8.07,1.46,11.83,2.14c1.71,1.7-0.47,3.11,0.4,4.55c0.68,0.65,1.65,0.65,2.12-0.05
		c0.75-1.11,0.56-3.16,2.69-2.75c1.81,0.35,1.88,2.13,2.26,3.52c2.78,10.11,5.54,20.23,8.26,30.35c3.18,11.88,6.49,23.72,9.35,35.68
		c0.75,3.15,6.15,5.06,1.85,9.16c-1.03-0.73-2.98-1.99-4.38,0.28c-0.94,1.53-1.53,3.74-0.5,5.31c1.71,2.58,4.16,3.02,7.15-0.01
		c2.6,9.82,5.03,18.98,7.79,29.39c-3.44-2.87-6.92-1.34-9.86-2.87c0.21,1.49,0.46,3.18,0.74,5.09c-4.82-1.73-9.19-4.5-14.1-2.36
		c-3.65,1.59-6.18,6.29-11.33,3.68c-0.45-0.23-2.9,1.77-2.77,2.38c1.17,5.52-3.32,4.24-5.93,5.27c-0.9,0.35-1.69,1.01-2.94,1.79
		c3.72,1.3,6.41-0.22,9.33-1.5c2.73-1.21,6.22-3.46,7.58,2.21c4.21-2.09,8.63-1.63,13.02-1.8c4.26-0.16,6.63-3.67,9.23-6.52
		c0.88-0.97,1.44-2.25,2.36-3.17c2.64-2.66,5.73-2.09,6.13,1.41c0.63,5.59,2.84,10.72,3.91,16.16c0.45,2.33-0.02,5.66,4.26,4.71
		c0.24-0.05,1.09,1.26,1.15,1.98c0.14,1.83-2.13,1.13-2.84,2.27c0.41,1.99,0.8,3.91,1.22,5.98c-16.52,6.31-33.71,9.61-50.42,14.56
		c-2.47,0.73-5.41,0.65-6.64,3.71c-0.35,0.88-1.42,1.22-2.12,0.93c-6.04-2.56-11.29,0.96-16.74,2.27
		c-11.61,2.81-13.22,2.4-19.61-6.8c1.35-5.58,5.35-8.63,9.69-11.46c4.6-3,4.42-7.54,3.16-12.06c-4.11-14.73-8.14-29.5-12.09-44.26
		c-4.85-18.13-9.56-36.3-14.33-54.46c-4.09-15.58-8.29-31.14-12.45-46.7c-0.34-1.26-1.01-2.47-0.46-4.13
		c4.61-1.51,9.94-1.19,14.31-4.25c-3.15-0.32-6.2-0.42-9.37,0.21c-5.38,1.07-6.83-0.17-8-5.99c2.39-2.36,5.81,1.24,7.99-1.67
		c-0.54-0.81-0.64-2.45-2.11-3.21C492.07,215.54,491.95,215.32,491.83,215.11z M581.26,371.83c6.98,1.88,14.5-1.13,21.64,2.01
		c-3.93,3.8-5.87,4.63-9.87,3.64c-3.92-0.97-7.55-0.78-8.26,3.76c-0.4,2.5-1.69,1.75-2.63,1.71c-2.46-0.11-2.76,0.98-2.4,2.75
		c2.76,1.68,4.45-2.63,7.19-0.58c2.07,1.54,4.68-1.07,7.26,0.29c0.59,0.31,3.8,0.35,5.46-2.51c1.26-2.17,3.69-5.36,8.14-5.51
		c-2.82-1.77-3.98-3.79-4.1-6.44c-1.46,0.06-2.57,1.32-3.63,0.36c-5.05-4.55-10.76-0.59-16.12-1.18c-0.52-0.06-3.02-0.55-2.58,1.82
		c-1.12-1.33-3.04,0.94-4.25-1.21c-2.07-3.68-4-2.08-5.5,0.3c0.22,2.45,3.38,1.47,3.7,4.71c-4.62-1.17-8.48,1.12-12.7,1.72
		c2.39,5.32,6.92,2.32,9.93,2.34C576.6,379.82,579.29,375.6,581.26,371.83z M531.68,339.34c-0.25-0.31-0.49-0.61-0.74-0.92
		c-5.02-2.17-5.17,4.35-8.86,4.62c3.57-0.1,6.99,0.34,10.41-0.41c1.83-0.4,5.1-0.78,5.46,1.02c0.96,4.82,7.22,5.48,6.68,11.49
		c3.21-2.09,5.95-1.8,8.35-2.57c2.2-0.7,0.69-5.82,5-4.42c-0.7-4.55-4.54-0.55-5.96-2.75c2.97-4.37,2.97-4.37,6.74-4.17
		c-4.21-4.75-8.23-5.82-13.05-3.34c1.54,2.16,8.69-1.76,5.85,5.16c-3.96-0.8-7.49,0.71-11.31,1.82
		C540.42,337.85,535.7,339.19,531.68,339.34z M551.46,313.06c-6.05,1.83-11.6,3.26-14.36-4.25c-0.24-0.66-0.79,0.07-0.99,0.02
		c-3.47-1.02-7.02,0.37-10.62-0.67c-1.85-0.54-3.16,1.83-1.33,3.7c1.59,1.63,3.48,3.66,5.5,4c2.52,0.43,2.29,2.24,2.61,2.83
		c9.24,2.25,16.41-1.74,24.25-5.69c-2.21-0.96-3.93-1.7-6.01-2.59C550.89,311.47,551.13,312.13,551.46,313.06z M522.69,222.96
		c-7.77,2.83-14.17,5.3-20.04,9.03C510.38,232.87,516.57,229.96,522.69,222.96z M530.04,187.37c-5.84-2.02-7.69-1.2-11.92,4.99
		C522.82,192.23,525.37,187.23,530.04,187.37z M533.55,398.8c2.21,1.72,4.23,2.93,6.57,1.66c2.04-1.1,0.79-2.71,0.13-4.46
		C538.17,397.08,535.4,395.87,533.55,398.8z M572.46,343.53c-2.72,2.62-5.88,0.35-7.2,3.24c-0.43,0.94,0.01,2.6,1.69,2.99
		C568.39,348.02,571.18,347.82,572.46,343.53z"/>
	<path fill="#EB1D26" d="M225.13,415.66c1.3,5.43,2.79,10.82,3.82,16.29c0.5,2.66,1.89,3.18,4.96,2.71
		c-4.17,3.7-2.66,7.35-1.15,10.78c2.34,5.32,4.85,10.54,9.55,14.39c3.32,2.72,7.43,3.84,11.32,6.14c-7.36-1.33-7.71,6.84-12.9,8.54
		c5.42-1.02,10.63-0.03,16.83-0.14c-3.28-2.45,1.13-6.81-3.88-8.23c2.82-0.42,5.34-1.42,7.45,1.45c1.57,2.14,3.21,0.42,4.48-0.92
		c1.29,1.6-0.26,2.89-0.55,3.19c-3.18,3.22-3.46,6.65-1.89,10.74c1.14,2.97-0.05,3.99-3.48,4.46c-7.05,0.98-13.95,3.02-20.95,4.47
		c-11.68,2.41-23.46,1.64-35.33,0.87c-0.7-1.61,0.29-3.59-0.99-5.16c-14.75,4.5-25.65-3.35-36.29-11.65
		c-1.71-1.33-3.3-1.17-5.24-1.39c0.69-1.8,0.91-3.13-0.05-5.28c-5.92-13.25-8.52-27.57-12.43-41.48c-0.58-2.07,0.77-2.71,2.2-3.22
		c2.97-1.07,5.98-2.01,9-3.01c-5.88-6.12-7.03-6.35-12.65-2.57c-1.47-3.12-1.47-3.12-4.33-5.48c2.45-3.5-1.56-15.8-6.4-17.71
		c3.68-0.85,2.92-2.89,2.27-5.18c-4.9-17.04-8.89-34.32-14.15-51.27c-1.59-5.12-2.57-10.57-3.93-15.85
		c-0.83-3.21-2.34-6.15-2.58-9.64c-0.37-5.33-5.64-2.98-8.52-4.21c-1.57-0.68-3.41-1.32-5.12-2.28c-1.62,1.76,0.82,3.55-0.57,5.49
		c-2.5-1.4-6.07-0.31-8.46-3.59c3.88-0.1,5.22-3.24,7.01-5.66c1.58-2.14,2.97-3.09,5.76-2.04c2.85,1.08,5.99,1.49,7.8-2.79
		c-0.34,4.92,4.99,4.4,6.14,8.5c1.39-2.35,4.55-2.5,2.92-5.97c-0.7-1.49,1.28-2.05,2.66-1.9c2.35,0.25,3.89-1.23,6.86-2.34
		c-3.86-0.94-6.4-0.6-8.68,0.88c-1.59,1.03-3.27,1.42-5.08,1.7c-1.51,0.23-3.08,0.7-3.88-1.03c-0.94-2.04,0.11-3.75,1.4-5.02
		c-0.3-2.28-2.83-1.85-3.76-4.17c3.47-1.7,9.6,1.67,11.32-5.14c-5.35,1.09-10.95-1.12-14.18,4.55c-0.25,0.32-0.5,0.63-0.75,0.95
		c-2.3-0.19-2.21,1.91-2.94,3.27c-4.07-1.27-8.21-1.02-12.32-1.19c1.13-4.73,7.2-9.62,12.22-10.13c9.64-0.99,18.82-4.07,27.98-6.9
		c4.09-1.27,8.35-1.61,12.33-3.12c13.33-5.06,27.53-6.85,41.15-10.84c7.6-2.22,12.2,1.2,13.09,7.8c-3.82,6.58-12.43,3.14-16.4,8.93
		c2.49,3.07,5.7-0.86,8.88,0.97c-3.38,5.36-12.58,1.36-13.85,9.02c3.45,0.29,5.61-3.13,8.63-4.17c2.59,16.62,8.22,31.78,11.73,47.85
		c-3.22,1.16-6.36,2.29-10.35,3.73c4.32,1.42,6.32,7.59,11.92,3.37c1.59,1.96,1.85,4.25,2.12,6.29c0.33,2.55,2.15,3.3,4.61,4.6
		c-2.99,1-2.58,2.75-2.1,4.53c5.66,21.03,11.31,42.05,16.98,63.07c0.12,0.45,0.54,0.83,0.82,1.24L225.13,415.66z M220.18,431.83
		l0.15,0.04l-0.19-0.1c-2.28-4.84-7.94-6.57-12.39-3.69c1.49,2.04,8.25-1.97,5.7,4.97c-4.25-1.11-8.01,1.24-11.98,1.72
		c-0.92-6.39-8.14-7.08-17.13-1.86c5.65,0.65,10.88-0.91,16.19,0.23c0.11,1.45,0.22,2.85,0.33,4.29c5.11-0.57,3.77,4.89,6.92,6.61
		c2-1.91,4.97-1.02,7.88-1.71c0.51-2.3,0.28-5.4,4.05-4.32c-0.89-4.5-4.54-0.66-6.13-2.61
		C216.89,430.96,216.89,430.96,220.18,431.83z M148.73,316.6c0.87,2.19-0.35,4.7,2.71,5.2c3.74,0.62,7.32,0.73,10.84-1.01
		c1.46-0.72,3.33-0.64,4.95-2.63c-3.96,0.43-7.2,0.06-10.48,0.74c-1.98,0.41-5.38,0.87-5.85-1.27c-0.99-4.56-6.8-5.26-6.31-10.92
		c-3.16,2.14-5.74,2.32-8.82,2.05c-0.52,2.47-0.74,5.43-4.34,4.83c0.58,4.24,3.99,0.91,5.76,2.54c-1.14,2.76-2.46,5.11-6.32,3.89
		c3.33,4.54,8.11,5.88,12.5,3.55c-1.4-2.1-8.27,1.62-5.56-4.92C141.67,319.07,145.14,318.06,148.73,316.6z M138.75,350.69
		c-0.23-1.31-0.73-2.49-0.43-2.74c3.69-3.18,10.59-1.55,13.04,2.97c0.35,0.65,1.29,0.9,1.54,1.16c2.35,2.41,4.51-1.22,6.94,0.02
		c1.47,0.75,4.14,1.93,5.24-0.38c1.22-2.54-1.59-3.52-3.04-4.94c-1.8-1.78-5.46-1.39-5.58-5.39c-3.99,2.05-8.04-0.96-12.01,1.37
		c-3.41,2-7.34,3.13-11.01,4.63c0.57,1.43,1.51,1.34,2.23,1.66C136.58,349.44,137.42,349.97,138.75,350.69z M213.44,403.46
		c-1.48,0.38-2.6,0.55-3.64,0.95c-3.87,1.49-8.21,0.08-9.85-3.77c-0.89-2.1-3.51-0.03-3.96-2.22c-2.6,2.3-5.32,0.38-8.01,0.31
		c-2.05-0.05-2.65,1.41-1.83,3.06c1.91,3.81,6.87,4.09,9.34,7.65c0.41,0.59,5.38,0.83,8.2,0.17c4.96-1.15,9.4-3.58,14.64-5.92
		c-2.4-1.09-4.17-1.9-6.61-3.01C212.5,401.94,212.83,402.48,213.44,403.46z M160.95,415.18c3.25-2.84,6.8-4.07,11.71-2.64
		c-2.31-2.87-5.63-0.89-7.16-3.48c1.42-0.6,2.68-1.13,3.95-1.66c-3.86-1.07-6.6,0.55-9.03,4.3c0.43-3.09,0.08-4.54-2.76-3.89
		c0.65,1.89,1.24,3.72,1.91,5.52C159.74,413.75,160.14,414.1,160.95,415.18z M185.32,342.13c-0.81,1.5-2.98,0.77-3.43,2.56
		c6.91-0.51,9.79-3.23,8.29-8.06c-2.48,1.64-5.09,2.9-8.09,3.18C182.6,341.82,184.69,340.56,185.32,342.13z M156.6,305.49
		c-1.79-3.12-4.83-4.15-8.16-4.7c1.62,0.26,2.43,1.74,3.64,2.48c2.12,1.3-0.16,3.34,1.53,5.13
		C154.04,306.63,155.68,306.89,156.6,305.49z M214.76,469.47c4.19-0.26,2.82,3.07,3.37,5.28c2.41-0.95,4.04-2.29,3.28-4.43
		C220.24,466.99,217.54,468.32,214.76,469.47z M170.59,466.31c-1.94-1.18-2.18,2.05-4.42,0.89c-2.39-1.24,0.16,3.43-2.52,3
		c0.32,0.48,0.53,1.17,0.97,1.4c1.39,0.73,2.51-0.42,2.66-1.32C167.64,468.19,170.73,468.76,170.59,466.31z"/>
	<path fill="#EB1D26" d="M971.68,291.15c2.72,1.94,5.57,0.07,8.35,0.3c1.23-7.39,1.13-14.86,1.15-22.86
		c2.95,1.68,5.7,3.07,8.03-0.76c-1.32-3.39-3.22-6.21-8.15-5.02c-1.11-9.02-2.17-17.72-3.31-26.94c5.65-0.59,11.37-1.5,15.93-6.84
		c2.41,9.63,3.31,18.35,3.97,27.08c1.86,24.47,0.58,48.62-8.1,71.9c-14.61,39.16-43.43,62.81-82.83,73.71
		c-62.24,17.22-124.73,33.58-187.11,50.31c-108.36,29.05-216.71,58.11-325.07,87.16c-44.86,12.03-89.72,24.03-134.57,36.1
		c-2.37,0.64-4.44,0.9-6.62-0.57c-2.52-1.71-5.48-0.89-8.62-0.94c0.13-5.16-3.56-7.65-8.3-10.33c15.68-4.2,30.4-8.12,45.11-12.07
		c63.99-17.17,127.97-34.33,191.95-51.52c3.49-0.94,6.94-2.3,9.75,1.15c1.95-1.1,0.21-2.66,1.35-4.06c3.21-0.23,7.48-4.34,9.51,2.41
		c2.05-0.12,4.08,0.11,5.93-0.94c0.06-2.24-2.39-2.61-3.33-4.6c4.44-1.26,8.8-2.5,13.5-3.83c-4.76-2.82-7.11-8.9-13.75-8.08
		c4.56-1.32,9.12-2.63,13.76-3.97c1.4-7.83-0.01-16.31,6.08-23.68c1.44,3.45,2.63,6.28,4.03,9.64c4.39-4.09,10.47-3.62,15.25-6.7
		c1.29,1.41,0.26,3.22,1.29,5.23c11.5-4.69,23.66-7.84,35.09-13.49c3.05,2.96,2.38,6.69,2.28,10.28c-0.07,2.39-2.1,2.22-3.61,2.63
		c-18.48,4.99-36.96,9.95-55.44,14.92c-1.28,0.34-2.54,0.74-3.82,1.11c1.88,5.43,2.19,5.49,7.21,3.26c1.89-0.84,3.55-2.53,6.14-2.11
		c-0.29,2.87-3.81,3.08-4.59,6.07c12.3-3.42,24.8-3.84,36.74-7.47c0.08,2.7,0.08,2.7-9.25,4.25c2.63,1.58,4.25,4.36,7.45,1.04
		c0.82-0.86,3.5-0.07,5.3,0.19c1.98,0.29,3.93,0.83,6.21-0.65c-1.24-1.94-2.88-3.81-3.09-6.95c22.58-5.93,45.45-11.31,68.59-18.81
		c0.14-0.24-2.8-1.03-0.82-2.27c1.06-0.66,2.44-1.4,3.18-0.49c2.62,3.22,5.51,1.37,8.23,0.64c85.71-22.93,171.43-45.81,257.08-68.94
		c28.39-7.66,51.73-22.61,66.68-48.82c2.9-5.08,4.56-10.79,7.42-15.78c3.5-6.11-1.07-11.79,0.32-17.63
		c0.29-1.21-1.78-1.15-2.87-1.87c2-3.33,0.03-6.42-0.32-9.61C971.21,291.67,971.45,291.41,971.68,291.15z M648.88,466.34
		c-0.1-4.87,3.13-4.67,6.07-4.73c1.43-0.03,3.83-1.45,3.05,2.24c1.51-1,2.63-1.65,2.97-3.02c-8.03-7.66-15.43-7.09-21.66,1.88
		C642.99,462.26,645.85,463.79,648.88,466.34z"/>
	<path fill="#EB1D26" d="M883.3,174.79c1.28,0.84,1.69,3,3.89,2.02c-0.06,2.09-1.2,3.37-0.44,5.25c3.26,7.99,5.68,16.27,7.74,24.88
		c2.54-2.05,1.96-5.49,4.21-7.69c1.67,2.39,3.25,4.65,5.09,7.27c-3.13,0.72-5.7,1.31-8.96,2.07c6.59,35,0.05,67.13-23.21,94.55
		c-12.82,15.11-29.22,25.57-49.2,30.91c-1.59-5.85-3.14-11.54-4.73-17.37c7.11-4.1,13.08-8.73,12.81-17.71c2.13,0,4.49,0,7.07,0
		c-0.45,0.77-0.79,1.37-1.15,1.98c4.62,1.28,22.85-4.59,33.53-10.87c-4.46-0.98-8.72,2.66-12.7-0.29c-4.7,3.86-7.64-1.48-11.72-2
		c5.05-4.12,11.81-1.51,16.74-5.08c3.13,4.03,9.43,4.66,15.14,1.46c-0.48-1.08-0.95-2.37-2.41-2.08c-6.99,1.36-13.78-0.48-20.67-1
		c-5.34-0.41-10.79,0.25-16.13,1.25c-3.28,0.61-9.78-3.71-10.65-6.96c-4.46-16.7-8.92-33.4-13.39-50.15
		c3.48-0.3,6.66-0.57,10.41-0.9c-2.09-3.29-4.98-2.14-6.61-1.87c-4.31,0.7-5.05-1.59-5.89-4.8c-3.8-14.48-7.75-28.92-11.64-43.38
		c-2.05-7.62-4.31-15.2-6.05-22.89c-2.13-9.42-6.16-17.85-12.18-25.31c-0.82-1.02-0.7-2.06-0.87-2.37
		c-5.31-2.46-10.36-0.24-15.52-0.68c-1.56-5.83-3.06-11.4-4.54-16.94c31.57-11.33,71.4-0.98,94.87,25.46
		c-0.66,1.87-3.16,1.02-3.87,2.79c0.1,0.11,0.31,0.55,0.49,0.53c7.61-0.79,10.96,4.66,14.53,9.85c6.52,9.45,12.49,19.19,16.1,30.18
		c-4.02-2.01-7.93-2.23-11.09,1.41c-1.29,1.49-2.68,2.57-4.21,3.76c-3.38,2.61-8.39,1.8-10.94,5.69c-1.27,1.4-2.49,0.08-3.65-0.16
		c-4.92-1.02-9.2-0.33-12.46,3.95c3.22,2.44,7.06-1.72,10.39,1.3c-4.83,3.29-9.51,0.97-14.23,0.88c-6.55-0.12-11.74,2.46-13.68,5
		c4.12-0.74,8.12,0.98,11.71-1.67c0.51-0.37,1.84-0.34,2.31,0.06c3.77,3.28,7.52,2.09,11.14-0.03c3.14-1.84,6.08-2.36,9.25-0.17
		c0.91,0.62,2.07,1.32,3.24,0.54c0.73-0.49,0.72-1.24,0.48-2.18c-0.44-1.74-1.87-1.66-3.07-2.04c-1.52-0.48-3.72,1.56-4.65-1.28
		c0.16-2.07,3.58-1.77,3.16-4.26c7.41-1.47,14.27-5.16,21.86-5.71C882.69,179.7,882.33,176.9,883.3,174.79z M866.46,243.45
		c0,0.41,0,0.82,0,0.34c0.1,0.49,0.02,0.11-0.06-0.27c-2.09-0.16-4.18-0.33-6.85-0.54c1.57,2.22-0.48,3.13-1.37,4.6
		C860.67,245.3,862.36,242.01,866.46,243.45z M844.69,257.12c-3.97,2.2-7.85,4.52-12.8,3.54c-0.93-0.18-2.2,1.31-2.48,2.72
		c1.81,1.68,4.04,1.95,6.34,2.17c2.95,0.29,5.79,0.13,8.85,1.4c1.79,0.74,7.83,4.05,8.01-2.97c5.56,0.04,10.64,3.7,15.95,0.97
		c-1.24-0.69-2.44,0-3.45-1.97c-1.37-2.68-3.79-5.05-7.33-4.97c-2.9,0.07-5.04,2.12-7.49,3.31c-3.87,1.87-5.11,0.29-4.97-3.45
		c0.4-0.15,0.9-0.35,0.52-0.83C845.72,256.87,845.09,257.08,844.69,257.12z M850.94,165.85c-1.84-3.01-8.55-2.37-10.57,0.42
		c-2.07,2.86-2.99,3.08-5.07,0.5c-1.67-2.08-2.1-0.51-3.2,0.47c1.3,0.48,2.78,0.34,2.45,2.12c-2.55,2.58-5.84,2.06-10.41,1.48
		c2.75,4.61,9,3.66,9.05,8.67c11.37-2.76,22.63-1.45,33.77-2.92c-1.37-2.81-2.37-7.11-7.27-4.81c-6.5,3.05-12.18-2.61-19.11,0.13
		c0.97-2.66,1.45-4,2-5.51C845.98,170.14,847.65,162.32,850.94,165.85z M830.25,163.64c-5.43,2.14-10.43,1.78-15.37-0.78
		c-0.37,1.55,0.6,3.11-1.34,3.76c-1.12-1.05-0.22-3.29-2.77-4.1c-0.7,2.53-3.04,3.26-5.6,3.85c3.22,0.22,4.52,4.41,7.9,3.58
		c1.27-0.31,2.23-0.72,2.7,0.76c0.55,1.74-1.76,1.03-1.99,2.14c-0.05,0.24,0.08,0.52,0.14,0.83c1.45-0.04,2.93,0.27,4.35-0.7
		c-0.22-0.95-0.44-1.87-0.62-2.63C821.95,168.21,825.88,165.58,830.25,163.64z M827.9,135.72c3.13-0.24,5.27-0.56,7.4-0.5
		c1.32,0.04,2.18-2.83,3.67-0.59c2.05,3.07,5.5,3.25,8.87,4.51c0.33-1.74,2.87-2.02,2.68-4.47c-3.58-0.03-7.33,0.53-9.16-4.47
		C837.79,134.51,831.86,129.91,827.9,135.72z M884.79,199.89c-1.8-4.98-6.46-3.42-10.38-5.62c0.56,2.34,0.37,3.94,1.51,5.38
		C878.83,200.15,881.84,196.86,884.79,199.89z"/>
	<path fill="#EB1D26" d="M21.96,309.38c-4.73,0.25-4.08,2.86-4.18,4.87c-0.81,16.39,0.88,32.6,3.94,48.68
		c1.33,7,2.95,13.95,4.47,21.03c-2.58,0.24-4.61,0.95-5.52,3.67c-0.46,1.36-1.52,2.6-2.56,3.65c-1.74,1.77-3.04,5.51-6.15,3.59
		c-2.3-1.43-4.57-4.05-2.97-7.73c0.37-0.86-0.38-2.23-0.66-3.36c-4.16-17.02-6.86-34.27-7.92-51.77c-0.16-2.57-0.42-4.89,1.97-7.21
		c1.77-1.72,3.02-5.23-0.78-7.03c-2.49-1.18-1.34-3.19-1.25-4.71c1.63-29.62,9.44-57.05,28.86-80.3c0.42-0.5,0.77-1.07,1.42-1.98
		c-3.41-0.15-4.82-2.44-6.43-4.8c2.33-1.32,3.4,1.42,5.72,0.89c1.61-2.09,3.51-4.54,5.32-6.89c1.97,0.29,1.7,2.08,3,3.41
		c9.16-8.53,19.61-15.22,30.73-20.92c4.6-2.36,9.32-4.4,14.26-5.78c98.7-27.66,197.93-53.36,296.89-80.04
		c15.17-4.09,30.34-8.17,45.51-12.26c1.27-0.34,2.5-0.95,3.88-0.57c0.78,6.1-6.1,5.85-8.68,10.44c7.98-3.6,13.67,0.38,20.63,3.95
		c-14.7,3.97-28.41,7.69-42.12,11.36c-77,20.63-154,41.23-230.99,61.88c-24.65,6.61-49.45,12.72-73.86,20.1
		c-45.51,13.76-70.41,45.08-76.02,92.05C18.19,305.66,17.41,308.02,21.96,309.38z M15.52,319.53c-0.12,0.24-0.24,0.49-0.36,0.73
		c0.15,0.06,0.29,0.12,0.44,0.17c-0.06-0.29-0.12-0.57-0.18-0.86c-2.46-2.3-4.93-4.61-7.59-7.09
		C6.62,317.4,9.09,319.43,15.52,319.53z"/>
	<path fill="#EB1D26" d="M695.35,53.02c-1.47-1.78-2.84-2.09-4.91-1.53c-27.62,7.5-55.28,14.85-82.75,22.19
		c-0.95,1.58,0.89,2.17,0.75,3.39c-1.04,0.78-2.67,0.64-3.07-0.1c-1.49-2.75-3.45-1.73-5.5-1.18c-6.59,1.78-13.19,3.5-19.78,5.27
		c-7.26,1.95-14.7-2.53-16.48-10.02c2.46-1.17,4.67,1.55,7.5,0.34c-1.88-1.39-3.57-2.63-5.94-4.38
		c62.71-16.81,124.73-33.44,186.62-50.03c1.05-2-1.13-3.76,0.54-5.99c3.31,5.26,7.85,3.49,12.63,2.73c2.86-0.46,6,1.29,9.06,1.56
		c2.32,0.2,5.52,2.27,6.69-2.05c0.1-0.36,1.82-0.3,2.8-0.41c3.97-0.46,7.94-0.91,11.91-1.35c2.17-0.24,3.92-1.13,4.26-3.46
		c0.59-4.03,3.6-4.58,6.81-5.19c55.65-10.71,101.52,9.64,132.6,58.86c4.72,7.47,8.97,15.19,12.71,23.19
		c0.99,2.11,2.07,3.73,4.77,3.54c0.59-1.49-1.11-3.82,2.03-4.62c0.6,3.48,2.82,7.22-3.34,7.85c3.02,8.13,6.17,15.83,8.68,23.73
		c1.35,4.27,4.37,1.55,7.44,2.63c-7.44,4.15-3.49,9.43-2.15,14.45c6.18,23.11,12.39,46.22,18.59,69.33
		c0.25,0.93,0.71,1.86,0.11,2.96c-2.24,0.63-4.44-1.2-6.83-0.31c-2.04,3.14-2.15,8.44-8.47,7.66
		c-9.66-32.77-16.82-66.46-27.75-98.91c-6.88-0.28-9.98-1.47-12.56-4.71c0.87-1.56,2.44-2.16,3.98-2.73c1.54-0.57,3.13-1,5.09-1.61
		c-5.16-12.08-10.42-23.84-18.18-34.33c-1.93-2.61-3.35-5.59-5.28-8.2c-28.01-37.83-67.87-52.03-113.76-40.49
		c-9.84,2.48-19.61,5.24-29.46,7.88c0.39,7.4-9.15,4.17-9.77,10.13c-3.63-1.3-2.27-4.13-2.88-6.12
		C750.3,33.84,697.31,49.39,695.35,53.02z M769.39,30.06c-3.18-1.5-4.75-5.19-8.73-5.27C761.32,30.6,763.59,31.98,769.39,30.06z"/>
	<path fill="#EB1D26" d="M275.16,248.81c1.18-5.32,5.49-4.03,7.74-5.75c-1.43-0.79-1.24-0.24-9.2,2.42
		c-3.26,1.09-6.24,4.23-10.99,2.12c1.74,3.81,6.56,2.77,6.57,6.92c6.55-2.33,13.02-1.36,19.86-1.5c1.16,2.22-0.87,4.15-1.95,6.35
		c-4.46-0.76-8.65-1.48-11.68,2.78c2.58,1.56,5.17-1.27,7.97,1.18c-6.98,3.15-15.01-1.67-22.3,4.1c3.85-0.11,6.5,0.9,9.07-0.8
		c0.4-0.27,1.14-0.63,1.38-0.46c5.73,4.11,10.16-0.41,14.97-2.23c2.79-1.06,3.61-0.62,4.4,2.53c-1.65,1.15-3-1.16-4.61-0.43
		c-1.96,12.6,10.96,65.68,16.85,68.38c-1.13,1.72-2.08,3.16-1.36,5.7c4.64,16.53,8.94,33.15,13.26,49.77
		c2.45,9.42,4.69,18.86,3.18,28.78c-0.44,2.91-1.08,4.03-4.46,4.48c-5.48,0.74-10.06-0.37-15.09-3.29c3.02-1.68,2.23-4.07,2.16-6.22
		c-0.44-12.98-5.01-25.07-8.13-37.46c-2.48-9.89-5.27-19.7-7.97-29.74c2.61-1.98,6.54-1.79,8.1-5.13
		c-3.79-2.79-8.99,0.87-12.68-3.29c1.89-1.58,1.39-3.77,0.77-6.07c-3.79-13.96-7.44-27.96-11.31-41.9
		c-1.78-6.43-5.25-12.08-8.98-17.56c-1.91-2.8-4.04-4.88-8.96-2.02c2.9-5.03,0.2-6.22-2.71-7.12c-2.7-0.83-5.45-1.47-8.19-2.16
		c-3.62-0.91-5.8-3.24-6.38-6.87c-0.56-3.51,1.15-6.08,3.97-8.01c4.08-2.81,8.91-3.63,13.53-4.92c10.41-2.91,20.86-5.68,31.33-8.35
		c2.72-0.69,5.58-1.14,8.37-1.1c5.28,0.07,8.76,3.59,8.69,8.28c-0.07,4.75-3.84,6.48-8.83,8
		C286.11,249.87,281.33,246.81,275.16,248.81z M306.26,371.73c-4.35-2.02-7.99-1.5-12.35,1.34c4.42-1.23,3.42,1.98,3.97,3.62
		C301.54,376.38,303.32,373.69,306.26,371.73z"/>
	<path fill="#EB1D26" d="M358.49,383.52c-1.2,1.94-3.4,2.62-1.65,5.22c10.53,15.72,23.16,28.74,41.89,34.47
		c3.7,1.13,7.46,1.99,11.28,1.75c3.41-0.22,4.63,1.21,5.24,4.32c0.82,4.21,2.11,8.32,3.29,12.82c-10.12,2.59-19.89,3.33-29.82,1.33
		c-2.61-0.53-5.24-0.97-7.89-1.26c-1.54-0.17-3.42-0.83-4.14,1.53c-0.35,1.15-1.26,1.56-2.36,1.14c-4.95-1.87-6.51,1.63-7.98,5.09
		c-1.66,3.89-3.73,7.17-8.65,6.89c-4.94-0.28-7.38-3.64-8.75-7.75c-3.02-9.01-5.55-18.18-7.65-27.46c-0.43-1.9,0.38-3.48,0.62-5.27
		c1.8,0.47,0.83,2.3,2.49,2.91c1.01-1.04,2.3-2.22,4.26-2.87c-2.72-0.97-4.2-4.08-6.99-2.19c-1.26-1.42,0.53-2.04,0.11-3.1
		c-1.65-0.22-3.44,0.08-4.01-2.47c-1.85-8.27-4.92-16.26-6.03-24.71c-0.89-6.79,1.56-8.56,7.97-10.08
		c7.31-1.73,10.5,1.78,12.82,7.29C353.72,383.91,355.64,383.97,358.49,383.52z M341.19,408.66c10.27,0.93,11.74,1.65,16.87-2.97
		C352.57,407.48,346.72,406.9,341.19,408.66z"/>
	<path fill="#EB1D26" d="M382.24,216.27c-3.44,4.71-6.36,2.67-9.35,1.08c2.93,0.18,4.13-5.78,7.95-2.28c0.8-2.8-1.47-5.21-1.29-7.92
		c4.19-3.04,10.18,0.04,14.02-4.34c1.27,0.81,2.09,2.1,4.03,2.2c7.47,0.4,14.91,1.24,22.37,1.84c6.36,0.51,10.86-4.67,9.94-11.35
		c9.78-4.51,10.8-4.48,14.52,0.51c-2.09,0.71-4.15,1.42-6.21,2.12c0.12,0.38,0.24,0.75,0.36,1.13c1.4,0,2.9,0.33,4.17-0.06
		c3.48-1.09,4.36,0.91,5.07,3.62c1.8,6.92,3.35,13.94,5.71,20.66c1.74,4.96,1.88,10.18,4.13,15.49c-8.17-0.18-14.98,3.01-22.09,5.48
		c0.79,2.64,3.92,2.98,5.88,4.57c2.64,2.14,4.25-1.19,6.34-2.15c3.53-1.62,7.4-0.33,10.93-1.21c3.29,5.59,2.37,12.22,5.28,18.26
		c-0.53,0.88-2.45,1.21-3.67,2.64c-4.84,5.68-12.05,5-16.51-1.42c-1.41-2.03-2.55-4.11-6-3.81c2.94-1.68,2.28-3.33,1.1-5.4
		c-4.77-8.3-11.38-14.94-18.84-20.6c1.14-2.19,3.59-0.13,4.59-2.26c-1.09-1.66-2.6-3.13-4.65-1.88c-3.46,2.1-6.9,0.43-10.33,0.45
		c-1.26,0.01-2.67,0.06-1.91-2.23c0.47-1.41-1.41-1.45-2.37-1.86c-4.78-2.02-9.89-3.31-14.96-3.4
		C385.36,224.07,382.18,222.92,382.24,216.27z"/>
	<path fill="#EB1D26" d="M608.6,160.24c5.68,0.39,10.68-1.72,16.35-0.63c3.53,0.68,8.14,0.61,12.65-1.75
		c0.94,6.6,4.02,11.9,5.04,18.11c1.28,7.84,3.96,15.45,6,23.17c1.55,5.86,0.51,8.52-4.15,10.76c-5.3,2.56-8.66,1.79-12.15-2.9
		c-2.19-2.94-4.15-6.04-6.42-8.91c-8.28-10.47-18.82-17.71-31.67-21.57c1.33-2.42,4.62-0.92,5.84-3.42
		c-1.76-2.55-5.19,0.05-7.35-4.13c0.2,7.25-3.24,6.97-7.12,6.21c-5.41-1.05-10.92-0.25-16.69-0.58c-1.53-5.65-3.05-11.22-4.51-16.62
		c2.6-3.27,8.71-0.53,9.68-6.13c6.99,0.77,13.53-1.86,20.41-3.3c12.6-2.64,24.73-7.04,38.08-9.35c1.61,6.06,3.23,12.19,4.85,18.28
		c-1.96,0.75-2.64,0.1-3.18-1.15c-0.99-2.29-2.92-2.79-4.88-1.62c-4.51,2.69-8.82-2.16-13.27-0.21c-0.1,0.05-0.86-0.92-0.96-1.48
		c-0.12-0.64,0.25-1.42,1.05-1.38c2.52,0.13,3.75-2.54,6.08-2.87c-3.69-0.95-6.17,1.2-9.33,2.68c-2.71,1.27-5.74,5.13-10.58,1.69
		C603.08,158.04,608.96,156.6,608.6,160.24z M589.81,157.03c-4.03,1.13-8.52,0.49-12.02,3.35c0.8,1.76,2,0.77,3.27,0.67
		c2.39-0.19,4.58-2.4,7.04-0.94c1.13,0.67,1.8,0.53,2.48-0.33C591.54,158.56,590,157.98,589.81,157.03z"/>
	<path fill="#EB1D26" d="M683.29,372.66c-4.36,1.75-8.88,1.87-13.54,2.01c-3.43,0.1-6.72,1.55-9.91,3.86
		c-3.46,2.5-7.22,5.19-13.05,3.47c-4.13-1.22-9.68,0.79-14.4,2.42c-2.02,0.7-4.15,1.04-6.41,1.59c-1.79-3.45-2.32-7.04-3.2-10.78
		c7.16-4.85,16.57-3.12,24.53-8.37c-4.94-1.87-11.61,1.5-13.22-5.79c7.51-5.82,14.35-12.58,18.64-21.46
		c3.96-8.2,7.08-16.7,7.91-25.88c0.17-1.94,1.07-3.86-2.34-4.23c-1.86-0.2-2.21-2.86-0.23-3.24c1.71-0.33,1.7-2.39,3.2-2.25
		c1.49,1.16-0.72,2.19,0.51,3.5c2.67-0.45,5.92,0.68,7.72-3.71c0.87-2.12,0.95-3.51-0.34-4.74c-1.48-1.42-3.4-0.53-4.33,0.85
		c-1.73,2.58-3.75,2.61-6.68,1.27c2.22-0.49,3.17-1.78,3.22-4.45c3.7,3.19,7.21-1.12,11.48,1.32c3.03,1.74,5.21,3.49,6.04,6.31
		c3.22,10.98,6.06,22.07,8.98,33.13c0.15,0.56-0.17,1.23-0.28,1.94c-4.28-3.04-8.27-0.5-10.96,1.56c-4.64,3.56-9.63,5.05-15.11,5.88
		c-0.79,0.12-1.68,0.18-2.16,1.21c1.15,0.84,3.16,1.99,3.74,1.17c2.08-2.91,3.88,0.02,4.13,0.59c1.6,3.56,4.21,2.42,6.06,1.12
		c2.65-1.88,6.13-1.65,8.54-4.05c1.08-1.07,2.82-0.75,4.52,0.28c-4.78,2.01-1.58,4.7-0.73,7.33c1.77-1.27,4.45,0.37,6.19-2.46
		c1.42,5.11,2.74,9.83,4.08,14.64c-2.42,2.38-5.68,1.84-8.31,2.97c-1.66,0.7-4.29,0.12-4.42,3.06L683.29,372.66z M666.1,371.56
		c-5.28-3.21-10.74-3.2-16.41-1.94c0.61,1.74,1,4.43,3.1,3.75C657.17,371.95,661.66,372.18,666.1,371.56z"/>
	<path fill="#EB1D26" d="M627.53,233.09c-0.5,3.26,2.03,6.64-0.72,10.1c2.73,0.47,3.52,2.29,3.47,4.63
		c-6.57,1.24-13.64,0.08-20.28,3.75c2.56,2.06,4.94-1.25,6.86,0.79c1.23,1.73-1.72,1.8-1.09,3.76c5.05-1.33,10.16-2.67,15.85-4.17
		c2.23,8.31,4.41,16.78,6.8,25.2c0.77,2.73-1.82,2.64-2.79,3.95c0.23,0.21,0.46,0.4,0.66,0.61c3.99,4.29,6.61,9.18,7.36,15.11
		c0.53,4.17,0,7.72-4.14,9.72c-4.35,2.1-8.25,1.13-11.09-2.65c-3.19-4.25-5.91-8.86-9.01-13.18c-1.99-2.77-4.06-5.76-8.26-4.07
		c-0.41-1.97,1.5-1.05,2.01-2.16c-3.81-3.21-8.07-5.37-12.95-5.65c-3-0.17-3.81-1.57-4.56-4.08c-1.46-4.88-1.72-10.17-4.92-14.77
		c2.03-1.65,4.1-3.32,6.18-5.01c-1.97-3.02-4.48,0.22-6.71-1.06c1.42-2.99,5.46-2.06,7.12-4.98c-1.76-1.7-4.54-3.08-3.54-7.07
		c5.54,4.89,10.7,0.16,16.17,0.34c-0.17-3.73-3.47-1.43-4.67-3.25c0.3-5.39,0.45-11.01,0.99-16.6c0.49-5.08,3.64-8.18,8.2-8.6
		c4.93-0.45,7.15,2.63,8.73,6.64c1.58,4,1.42,8.55,3.94,12.25C627.25,232.79,627.39,232.94,627.53,233.09z M607.19,251.74
		c-2.79,0.72-5.36-1.76-8.33-0.62c0.66,1.5-0.65,3.31,1.32,4.67c2.75-1.34,5.95-1.01,9.43-1.59c-2.57,0.39-1.66-1.77-2.48-2.57
		c0.17-0.02,0.34-0.05,0.51-0.07c-0.07-0.04-0.18-0.13-0.21-0.1C607.33,251.53,607.26,251.64,607.19,251.74z"/>
	<path fill="#EB1D26" d="M448.82,116.26c2.11-3.63,5.48-2.97,7.46-4.9c-1.66-3.31-4.65-2.39-7.07-2.93
		c-1.77-0.39-3.7-0.59-4.55-2.58c-1.09-2.54,1.68-2.77,2.52-4.01c0.06-1.6-2.36-0.7-2.04-2.69c20.2-5.42,40.53-10.87,60.87-16.33
		c3.37-0.9,6.91-1.43,10.07-2.81c6.91-3.02,13.92-1.22,20.91-1.06c3.54,0.08,3.52,2.67,3.3,5.19c4.95,1.16,8.83-0.28,12.29-3.24
		c3.1-2.65,6.46-4.04,10.74-2.22c0.32,1.98,0.66,4.05,1.07,6.62C526.16,95.54,487.91,105.79,448.82,116.26z"/>
	<path fill="#EB1D26" d="M316.61,436.66c-6.57,19.94-18.51,34.71-39.13,42.97c-1.57-5.9-3.18-11.21-4.36-16.62
		c-0.62-2.84,2.47-3.3,4.07-4.34c3.56-2.32,5.56-4.63,1.74-8.71c3.01-1,5.19-3.33,8.49-1.88c1.51,0.66,2.49-0.66,3.22-1.76
		c1.93-2.89,4.01-5.73,5.54-8.84c1.19-2.42,2.36-4.54,4.96-4.92c0.69-1.84-1.74-1.48-1.22-3.8c4.47,2.76,9.26,0.07,14.27,1.3
		c-1.72,4.06-5.06,2.91-8.3,2.8C308.32,438.18,312.99,434.32,316.61,436.66z"/>
	<path fill="#EB1D26" d="M26.18,387.77c-1.45,14.57,9.31,25.82,9.15,39.97c-8.58-3.2-9.11-3.93-6.73-8.97
		c-3.77-0.28-9-0.11-7.86-5.39c0.81-3.71-0.18-7.84,2.39-11.34c2.3-3.14,3.56-6.68,0.48-10.46
		C21.98,389.57,23.99,388.89,26.18,387.77z"/>
	<path fill="#EB1D26" d="M981.43,218.09c7.23-3.32,10.73-2.94,12.58,1.19c-0.53,1.96-2.9,1.4-4.08,3.31
		c0.61,1.54,1.55,3.64-1.32,4.88c-1.97,0.85-4.29-0.32-3.93-1.33C986.04,222.35,982.19,221.08,981.43,218.09z"/>
	<path fill="#EB1D26" d="M94.72,293.87c2.81-1.48,4.48-2.86,7.03-0.98c1.63,1.2,3.78-0.5,5.44-1.27c3.48-1.61,5.81-0.71,7.65,2.46
		c-1.76,1.57-3.89,1.46-6.08,1.81c-2.89,0.46-5.92-1.49-8.94,1.72C97.84,299.71,96.61,295.67,94.72,293.87z"/>
	<path fill="#EB1D26" d="M47.98,407.76c1.26,1.11,2.05,2.61,3.59,1.71c1.37-0.81,2.52-1.61,3.84,0c1.27,1.56,0.66,3.03,0.04,4.62
		c-0.64,1.63-2.57,3.25-0.38,5.12C51.15,420.62,49.68,418.3,47.98,407.76z"/>
	<path fill="#EB1D26" d="M661.49,38.6c-8.65,4.44-8.65,4.44-9.62-4.72C656.21,33.18,656.25,33.2,661.49,38.6z"/>
	<path fill="#EB1D26" d="M927.16,100.59c-1.87-3.87-3.39-7.03-4.95-10.26c3.78-1.36,6.99-0.7,8.6,2.3
		C932.6,95.96,929.18,97.65,927.16,100.59z"/>
	<path fill="#EB1D26" d="M619.38,364.55c-0.79-5.55,2.5-7.5,9.08-5.55c-1.44,7.23-1.75,7.38-6.66,3.24
		C619.97,361.84,621,364.6,619.38,364.55z"/>
	<path fill="#EB1D26" d="M235.53,563.61c-4.35,1.2-7.93,2.19-12.14,3.36c1.83-3.02,5.72-3.01,6.09-6.59
		C231.4,561.41,233.08,562.3,235.53,563.61z"/>
	<path fill="#EB1D26" d="M493.68,432.13c2.99-0.75,4.04-3.87,6.55-5.36c1.74,2.35,1,4.33-0.49,5.52
		C498.09,433.62,495.87,434.13,493.68,432.13z"/>
	<path fill="#EB1D26" d="M757.55,122.88c-1.87,1.59-0.85,4.37-3.86,3.99c-2.84-0.35-1.81-2.47-2.57-3.65
		C753.24,121.09,755.02,122.66,757.55,122.88z"/>
	<path fill="#EB1D26" d="M222.98,494.08c2.02-0.65,3.87-1.74,6.11-1.39C227.86,497.51,226.94,497.71,222.98,494.08z"/>
	<path fill="#EB1D26" d="M555.61,410.12c2.95,0,4.49,0,6.13,0c0.8,1.45,0.28,2.65-0.9,4.01
		C559.45,413.06,558.1,412.03,555.61,410.12z"/>
	<path fill="#EB1D26" d="M980.73,263.63c0.11,0.92,0.22,1.56,0.24,2.21c0.02,0.48-0.07,0.97-0.11,1.55
		c-1.88,0.76-2.92-0.72-4.43-1.18C977.31,264.34,978.69,263.99,980.73,263.63z"/>
	<path fill="#EB1D26" d="M642.14,448.44c-2.08,1.18-3.7,2.09-5.4,3.05C636.38,447.25,636.38,447.25,642.14,448.44z"/>
	<path fill="#EB1D26" d="M225.2,415.75c0.3-1.02,1.04-1.16,2.01-1.39c-0.18,2.02-1.31,1.25-2.09,1.31
		C225.13,415.66,225.2,415.75,225.2,415.75z"/>
	<path fill="#EB1D26" d="M492.2,215.74c-0.29,0.89-0.17,2.2-1.59,2.04c-0.53-0.06-1.42-0.76-1.41-1.15
		c0.06-1.74,1.71-1.05,2.64-1.52C491.95,215.32,492.07,215.54,492.2,215.74z"/>
	<path fill="#EB1D26" d="M918.24,232.68c-1.41-0.02-0.85-0.82-0.45-2.11c0.18,1.12,0.27,1.66,0.36,2.2
		C918.15,232.77,918.24,232.68,918.24,232.68z"/>
	<path fill="#EB1D26" d="M111.44,286.47c0.43,0.2,0.89,0.51,0.48,0.96c-0.18,0.2-0.81,0-1.23-0.01
		C110.94,287.11,111.19,286.79,111.44,286.47z"/>
	<path fill="#EB1D26" d="M683.19,372.73c0.18,0.21,0.36,0.43,0.54,0.64c-0.16,0.01-0.35,0.08-0.46,0.02
		c-0.41-0.22-0.39-0.48,0.03-0.72C683.29,372.66,683.19,372.73,683.19,372.73z"/>
	<path fill="#EB1D26" d="M970.98,291.93c-0.17-0.26-0.55-0.61-0.48-0.75c0.33-0.68,0.78-0.3,1.19-0.02
		C971.45,291.41,971.21,291.67,970.98,291.93z"/>
	<path fill="#EB1D26" d="M627.12,232.65c0.19-0.08,0.38-0.16,0.58-0.24c-0.06,0.23-0.12,0.45-0.17,0.68
		C627.39,232.94,627.25,232.79,627.12,232.65z"/>
	<path fill="#EB1D26" d="M883.29,330.79c-0.02-0.22-0.04-0.44-0.05-0.66c0.2,0.03,0.39,0.07,0.59,0.1
		c-0.21,0.16-0.43,0.32-0.64,0.48C883.17,330.72,883.29,330.79,883.29,330.79z"/>
	<path fill="#EB1D26" d="M531.68,339.34c-0.79,0.5-1.58,0.99-2.65,0.1c0.18-1.15,1.06-1.07,1.92-1.02
		C531.19,338.73,531.43,339.03,531.68,339.34z"/>
	<path fill="#EB1D26" d="M549.43,346.28c0.55-0.43,1.1-0.63,1.64,0.04C550.51,346.9,549.97,346.8,549.43,346.28z"/>
</g>
</svg>
